<mxfile host="app.diagrams.net" agent="Mozilla/5.0 (Windows NT 10.0; Win64; x64) AppleWebKit/537.36 (KHTML, like Gecko) Chrome/131.0.0.0 Safari/537.36" version="25.0.3">
  <diagram name="Page-1" id="ICxUlPSKzvxOCtlDUFCp">
    <mxGraphModel dx="2483" dy="3128" grid="0" gridSize="10" guides="1" tooltips="1" connect="1" arrows="1" fold="1" page="0" pageScale="1" pageWidth="850" pageHeight="1100" background="none" math="0" shadow="0">
      <root>
        <mxCell id="0" />
        <mxCell id="1" parent="0" />
        <mxCell id="KOnMKB9TphHeXahdwBBf-14" style="edgeStyle=none;curved=1;rounded=1;orthogonalLoop=1;jettySize=auto;html=1;exitX=0;exitY=1;exitDx=0;exitDy=0;entryX=1;entryY=0.5;entryDx=0;entryDy=0;fontSize=12;startSize=8;endSize=8;labelBackgroundColor=none;fontColor=default;" parent="1" source="KOnMKB9TphHeXahdwBBf-2" target="KOnMKB9TphHeXahdwBBf-13" edge="1">
          <mxGeometry relative="1" as="geometry">
            <Array as="points">
              <mxPoint x="164" y="225" />
            </Array>
          </mxGeometry>
        </mxCell>
        <mxCell id="KOnMKB9TphHeXahdwBBf-17" style="edgeStyle=none;curved=1;rounded=1;orthogonalLoop=1;jettySize=auto;html=1;exitX=0;exitY=0.5;exitDx=0;exitDy=0;fontSize=12;startSize=8;endSize=8;labelBackgroundColor=none;fontColor=default;" parent="1" source="KOnMKB9TphHeXahdwBBf-2" target="KOnMKB9TphHeXahdwBBf-16" edge="1">
          <mxGeometry relative="1" as="geometry" />
        </mxCell>
        <mxCell id="KOnMKB9TphHeXahdwBBf-24" style="edgeStyle=none;curved=1;rounded=1;orthogonalLoop=1;jettySize=auto;html=1;exitX=1;exitY=0;exitDx=0;exitDy=0;entryX=0;entryY=0.5;entryDx=0;entryDy=0;fontSize=12;startSize=8;endSize=8;labelBackgroundColor=none;fontColor=default;" parent="1" source="KOnMKB9TphHeXahdwBBf-2" target="KOnMKB9TphHeXahdwBBf-21" edge="1">
          <mxGeometry relative="1" as="geometry">
            <Array as="points">
              <mxPoint x="276" y="143" />
            </Array>
          </mxGeometry>
        </mxCell>
        <mxCell id="KOnMKB9TphHeXahdwBBf-25" style="edgeStyle=none;curved=1;rounded=1;orthogonalLoop=1;jettySize=auto;html=1;exitX=1;exitY=0.5;exitDx=0;exitDy=0;entryX=0;entryY=0.5;entryDx=0;entryDy=0;fontSize=12;startSize=8;endSize=8;labelBackgroundColor=none;fontColor=default;" parent="1" source="KOnMKB9TphHeXahdwBBf-2" target="KOnMKB9TphHeXahdwBBf-23" edge="1">
          <mxGeometry relative="1" as="geometry" />
        </mxCell>
        <mxCell id="KOnMKB9TphHeXahdwBBf-26" style="edgeStyle=none;curved=1;rounded=1;orthogonalLoop=1;jettySize=auto;html=1;exitX=1;exitY=1;exitDx=0;exitDy=0;entryX=0;entryY=0.5;entryDx=0;entryDy=0;fontSize=12;startSize=8;endSize=8;labelBackgroundColor=none;fontColor=default;" parent="1" source="KOnMKB9TphHeXahdwBBf-2" target="KOnMKB9TphHeXahdwBBf-22" edge="1">
          <mxGeometry relative="1" as="geometry">
            <Array as="points">
              <mxPoint x="267" y="228" />
            </Array>
          </mxGeometry>
        </mxCell>
        <mxCell id="KOnMKB9TphHeXahdwBBf-2" value="Mind" style="text;html=1;align=center;verticalAlign=middle;whiteSpace=wrap;rounded=1;fontSize=16;labelBackgroundColor=none;" parent="1" vertex="1">
          <mxGeometry x="187" y="171" width="60" height="30" as="geometry" />
        </mxCell>
        <mxCell id="KOnMKB9TphHeXahdwBBf-6" value="Engineering" style="rounded=1;whiteSpace=wrap;html=1;shadow=0;labelBackgroundColor=none;treeFolding=0;resizeWidth=0;resizeHeight=0;" parent="1" vertex="1">
          <mxGeometry x="54" y="106" width="71" height="28" as="geometry" />
        </mxCell>
        <mxCell id="KOnMKB9TphHeXahdwBBf-13" value="Health and&lt;div&gt;Fitness&lt;/div&gt;" style="rounded=1;whiteSpace=wrap;html=1;labelBackgroundColor=none;" parent="1" vertex="1">
          <mxGeometry x="54" y="235" width="71" height="28" as="geometry" />
        </mxCell>
        <mxCell id="KOnMKB9TphHeXahdwBBf-15" style="edgeStyle=none;curved=1;rounded=1;orthogonalLoop=1;jettySize=auto;html=1;exitX=0;exitY=0;exitDx=0;exitDy=0;entryX=1;entryY=0.5;entryDx=0;entryDy=0;fontSize=12;startSize=8;endSize=8;labelBackgroundColor=none;fontColor=default;" parent="1" source="KOnMKB9TphHeXahdwBBf-2" target="KOnMKB9TphHeXahdwBBf-6" edge="1">
          <mxGeometry relative="1" as="geometry">
            <Array as="points">
              <mxPoint x="159" y="142" />
            </Array>
          </mxGeometry>
        </mxCell>
        <mxCell id="KOnMKB9TphHeXahdwBBf-16" value="Sketching" style="rounded=1;whiteSpace=wrap;html=1;labelBackgroundColor=none;" parent="1" vertex="1">
          <mxGeometry x="52" y="171" width="71" height="28" as="geometry" />
        </mxCell>
        <mxCell id="KOnMKB9TphHeXahdwBBf-21" value="Photography" style="rounded=1;whiteSpace=wrap;html=1;labelBackgroundColor=none;direction=east;" parent="1" vertex="1">
          <mxGeometry x="313" y="106" width="71" height="28" as="geometry" />
        </mxCell>
        <mxCell id="KOnMKB9TphHeXahdwBBf-22" value="Storytelling" style="rounded=1;whiteSpace=wrap;html=1;labelBackgroundColor=none;" parent="1" vertex="1">
          <mxGeometry x="313" y="235" width="71" height="28" as="geometry" />
        </mxCell>
        <mxCell id="KOnMKB9TphHeXahdwBBf-23" value="Videography" style="rounded=1;whiteSpace=wrap;html=1;labelBackgroundColor=none;" parent="1" vertex="1">
          <mxGeometry x="311" y="171" width="71" height="28" as="geometry" />
        </mxCell>
        <mxCell id="Wg5zc0KwgjEXMHmSU5Xn-58" value="Branch" style="whiteSpace=wrap;html=1;shape=partialRectangle;top=0;left=0;bottom=1;right=0;points=[[0,1],[1,1]];fillColor=none;align=center;verticalAlign=bottom;routingCenterY=0.5;snapToPoint=1;recursiveResize=0;autosize=1;treeFolding=1;treeMoving=1;newEdgeStyle={&quot;edgeStyle&quot;:&quot;entityRelationEdgeStyle&quot;,&quot;startArrow&quot;:&quot;none&quot;,&quot;endArrow&quot;:&quot;none&quot;,&quot;segment&quot;:10,&quot;curved&quot;:1,&quot;sourcePerimeterSpacing&quot;:0,&quot;targetPerimeterSpacing&quot;:0};rounded=1;" parent="1" vertex="1" collapsed="1">
          <mxGeometry x="441" y="72" width="73" height="26" as="geometry" />
        </mxCell>
        <mxCell id="Wg5zc0KwgjEXMHmSU5Xn-59" value="" style="edgeStyle=entityRelationEdgeStyle;startArrow=none;endArrow=none;segment=10;curved=1;sourcePerimeterSpacing=0;targetPerimeterSpacing=0;rounded=1;exitX=1;exitY=0.25;exitDx=0;exitDy=0;" parent="1" source="KOnMKB9TphHeXahdwBBf-21" target="Wg5zc0KwgjEXMHmSU5Xn-58" edge="1">
          <mxGeometry relative="1" as="geometry">
            <mxPoint x="226" y="36" as="sourcePoint" />
          </mxGeometry>
        </mxCell>
        <mxCell id="Wg5zc0KwgjEXMHmSU5Xn-62" value="Phython&amp;nbsp;" style="whiteSpace=wrap;html=1;shape=partialRectangle;top=0;left=0;bottom=1;right=0;points=[[0,1],[1,1]];align=center;verticalAlign=bottom;routingCenterY=0.5;snapToPoint=1;recursiveResize=0;autosize=1;treeFolding=0;treeMoving=1;newEdgeStyle={&quot;edgeStyle&quot;:&quot;entityRelationEdgeStyle&quot;,&quot;startArrow&quot;:&quot;none&quot;,&quot;endArrow&quot;:&quot;none&quot;,&quot;segment&quot;:10,&quot;curved&quot;:1,&quot;sourcePerimeterSpacing&quot;:0,&quot;targetPerimeterSpacing&quot;:0};rounded=1;" parent="1" vertex="1" collapsed="1">
          <mxGeometry x="-103" y="39" width="82" height="26" as="geometry" />
        </mxCell>
        <mxCell id="Wg5zc0KwgjEXMHmSU5Xn-63" value="" style="edgeStyle=entityRelationEdgeStyle;startArrow=none;endArrow=none;segment=10;curved=1;sourcePerimeterSpacing=0;targetPerimeterSpacing=0;rounded=1;exitX=0;exitY=0.5;exitDx=0;exitDy=0;" parent="1" source="KOnMKB9TphHeXahdwBBf-6" target="Wg5zc0KwgjEXMHmSU5Xn-62" edge="1">
          <mxGeometry relative="1" as="geometry">
            <mxPoint x="-141" y="125" as="sourcePoint" />
          </mxGeometry>
        </mxCell>
        <mxCell id="Wg5zc0KwgjEXMHmSU5Xn-64" value="Mechanical&lt;div&gt;Engineering&lt;/div&gt;" style="whiteSpace=wrap;html=1;shape=partialRectangle;top=0;left=0;bottom=1;right=0;points=[[0,1],[1,1]];fillColor=none;align=center;verticalAlign=bottom;routingCenterY=0.5;snapToPoint=1;recursiveResize=0;autosize=1;treeFolding=0;treeMoving=1;newEdgeStyle={&quot;edgeStyle&quot;:&quot;entityRelationEdgeStyle&quot;,&quot;startArrow&quot;:&quot;none&quot;,&quot;endArrow&quot;:&quot;none&quot;,&quot;segment&quot;:10,&quot;curved&quot;:1,&quot;sourcePerimeterSpacing&quot;:0,&quot;targetPerimeterSpacing&quot;:0};rounded=1;" parent="1" vertex="1" collapsed="1">
          <mxGeometry x="-103" y="64.5" width="99" height="41" as="geometry" />
        </mxCell>
        <mxCell id="Wg5zc0KwgjEXMHmSU5Xn-65" value="" style="edgeStyle=entityRelationEdgeStyle;startArrow=none;endArrow=none;segment=10;curved=1;sourcePerimeterSpacing=0;targetPerimeterSpacing=0;rounded=1;exitX=0;exitY=0.5;exitDx=0;exitDy=0;" parent="1" source="KOnMKB9TphHeXahdwBBf-6" target="Wg5zc0KwgjEXMHmSU5Xn-64" edge="1">
          <mxGeometry relative="1" as="geometry">
            <mxPoint x="49" y="142" as="sourcePoint" />
          </mxGeometry>
        </mxCell>
        <mxCell id="Wg5zc0KwgjEXMHmSU5Xn-66" value="Electronics" style="whiteSpace=wrap;html=1;shape=partialRectangle;top=0;left=0;bottom=1;right=0;points=[[0,1],[1,1]];fillColor=none;align=center;verticalAlign=bottom;routingCenterY=0.5;snapToPoint=1;recursiveResize=0;autosize=1;treeFolding=0;treeMoving=1;newEdgeStyle={&quot;edgeStyle&quot;:&quot;entityRelationEdgeStyle&quot;,&quot;startArrow&quot;:&quot;none&quot;,&quot;endArrow&quot;:&quot;none&quot;,&quot;segment&quot;:10,&quot;curved&quot;:1,&quot;sourcePerimeterSpacing&quot;:0,&quot;targetPerimeterSpacing&quot;:0};rounded=1;" parent="1" vertex="1" collapsed="1">
          <mxGeometry x="-103" y="108" width="94" height="26" as="geometry" />
        </mxCell>
        <mxCell id="Wg5zc0KwgjEXMHmSU5Xn-67" value="" style="edgeStyle=entityRelationEdgeStyle;startArrow=none;endArrow=none;segment=10;curved=1;sourcePerimeterSpacing=0;targetPerimeterSpacing=0;rounded=1;exitX=0;exitY=0.5;exitDx=0;exitDy=0;" parent="1" source="KOnMKB9TphHeXahdwBBf-6" target="Wg5zc0KwgjEXMHmSU5Xn-66" edge="1">
          <mxGeometry relative="1" as="geometry">
            <mxPoint x="41" y="168" as="sourcePoint" />
          </mxGeometry>
        </mxCell>
        <mxCell id="Wg5zc0KwgjEXMHmSU5Xn-68" value="Design" style="whiteSpace=wrap;html=1;shape=partialRectangle;top=0;left=0;bottom=1;right=0;points=[[0,1],[1,1]];fillColor=none;align=center;verticalAlign=bottom;routingCenterY=0.5;snapToPoint=1;recursiveResize=0;autosize=1;treeFolding=0;treeMoving=1;newEdgeStyle={&quot;edgeStyle&quot;:&quot;entityRelationEdgeStyle&quot;,&quot;startArrow&quot;:&quot;none&quot;,&quot;endArrow&quot;:&quot;none&quot;,&quot;segment&quot;:10,&quot;curved&quot;:1,&quot;sourcePerimeterSpacing&quot;:0,&quot;targetPerimeterSpacing&quot;:0};rounded=1;" parent="1" vertex="1" collapsed="1">
          <mxGeometry x="-103" y="137" width="72" height="26" as="geometry" />
        </mxCell>
        <mxCell id="Wg5zc0KwgjEXMHmSU5Xn-69" value="" style="edgeStyle=entityRelationEdgeStyle;startArrow=none;endArrow=none;segment=10;curved=1;sourcePerimeterSpacing=0;targetPerimeterSpacing=0;rounded=1;exitX=0;exitY=0.5;exitDx=0;exitDy=0;" parent="1" source="KOnMKB9TphHeXahdwBBf-6" target="Wg5zc0KwgjEXMHmSU5Xn-68" edge="1">
          <mxGeometry relative="1" as="geometry">
            <mxPoint x="33" y="178" as="sourcePoint" />
          </mxGeometry>
        </mxCell>
        <mxCell id="b3oyP1oJiZm0cQTsbSEI-1" style="edgeStyle=orthogonalEdgeStyle;rounded=0;orthogonalLoop=1;jettySize=auto;html=1;curved=1;strokeWidth=1;entryX=0;entryY=0.5;entryDx=0;entryDy=0;exitX=0.5;exitY=0;exitDx=0;exitDy=0;" parent="1" source="Wg5zc0KwgjEXMHmSU5Xn-130" target="b3oyP1oJiZm0cQTsbSEI-11" edge="1">
          <mxGeometry relative="1" as="geometry">
            <mxPoint x="357" y="-762" as="targetPoint" />
            <mxPoint x="160" y="-375.96296296296305" as="sourcePoint" />
          </mxGeometry>
        </mxCell>
        <mxCell id="Wg5zc0KwgjEXMHmSU5Xn-130" value="Mind" style="text;html=1;align=center;verticalAlign=middle;whiteSpace=wrap;rounded=1;fontSize=16;labelBackgroundColor=none;" parent="1" vertex="1">
          <mxGeometry x="187" y="-292" width="60" height="30" as="geometry" />
        </mxCell>
        <mxCell id="Wg5zc0KwgjEXMHmSU5Xn-159" value="Sketching" style="swimlane;fontStyle=0;childLayout=stackLayout;horizontal=1;startSize=30;horizontalStack=0;resizeParent=1;resizeParentMax=0;resizeLast=0;collapsible=1;marginBottom=0;whiteSpace=wrap;html=1;rounded=1;treeMoving=0;treeFolding=0;strokeColor=default;align=center;verticalAlign=middle;fontFamily=Helvetica;fontSize=12;fontColor=default;fillColor=default;" parent="1" vertex="1">
          <mxGeometry x="-185" y="-338" width="140" height="120" as="geometry" />
        </mxCell>
        <mxCell id="Wg5zc0KwgjEXMHmSU5Xn-160" value="Item 1" style="text;strokeColor=none;fillColor=none;align=left;verticalAlign=middle;spacingLeft=4;spacingRight=4;overflow=hidden;points=[[0,0.5],[1,0.5]];portConstraint=eastwest;rotatable=0;whiteSpace=wrap;html=1;rounded=1;fontFamily=Helvetica;fontSize=12;fontColor=default;fontStyle=0;" parent="Wg5zc0KwgjEXMHmSU5Xn-159" vertex="1">
          <mxGeometry y="30" width="140" height="30" as="geometry" />
        </mxCell>
        <mxCell id="Wg5zc0KwgjEXMHmSU5Xn-161" value="Item 2" style="text;strokeColor=none;fillColor=none;align=left;verticalAlign=middle;spacingLeft=4;spacingRight=4;overflow=hidden;points=[[0,0.5],[1,0.5]];portConstraint=eastwest;rotatable=0;whiteSpace=wrap;html=1;rounded=1;fontFamily=Helvetica;fontSize=12;fontColor=default;fontStyle=0;" parent="Wg5zc0KwgjEXMHmSU5Xn-159" vertex="1">
          <mxGeometry y="60" width="140" height="30" as="geometry" />
        </mxCell>
        <mxCell id="Wg5zc0KwgjEXMHmSU5Xn-162" value="Item 3" style="text;strokeColor=none;fillColor=none;align=left;verticalAlign=middle;spacingLeft=4;spacingRight=4;overflow=hidden;points=[[0,0.5],[1,0.5]];portConstraint=eastwest;rotatable=0;whiteSpace=wrap;html=1;rounded=1;fontFamily=Helvetica;fontSize=12;fontColor=default;fontStyle=0;" parent="Wg5zc0KwgjEXMHmSU5Xn-159" vertex="1">
          <mxGeometry y="90" width="140" height="30" as="geometry" />
        </mxCell>
        <mxCell id="Wg5zc0KwgjEXMHmSU5Xn-163" value="" style="endArrow=classic;html=1;rounded=1;entryX=0.996;entryY=-0.03;entryDx=0;entryDy=0;exitX=0;exitY=0.5;exitDx=0;exitDy=0;edgeStyle=entityRelationEdgeStyle;curved=1;entryPerimeter=0;" parent="1" source="Wg5zc0KwgjEXMHmSU5Xn-130" target="Wg5zc0KwgjEXMHmSU5Xn-161" edge="1">
          <mxGeometry relative="1" as="geometry">
            <mxPoint x="52" y="-278" as="sourcePoint" />
            <mxPoint x="-23" y="-214.34" as="targetPoint" />
          </mxGeometry>
        </mxCell>
        <mxCell id="Wg5zc0KwgjEXMHmSU5Xn-164" value="Sketching" style="edgeLabel;resizable=0;html=1;;align=center;verticalAlign=middle;labelBorderColor=default;fontSize=13;rounded=1;" parent="Wg5zc0KwgjEXMHmSU5Xn-163" connectable="0" vertex="1">
          <mxGeometry relative="1" as="geometry" />
        </mxCell>
        <mxCell id="Wg5zc0KwgjEXMHmSU5Xn-169" value="" style="endArrow=classic;html=1;rounded=1;entryX=1;entryY=0.5;entryDx=0;entryDy=0;exitX=0;exitY=0;exitDx=0;exitDy=0;edgeStyle=entityRelationEdgeStyle;curved=1;" parent="1" source="Wg5zc0KwgjEXMHmSU5Xn-130" target="8DC9Q0Ns15ucPgyI6AoZ-15" edge="1">
          <mxGeometry relative="1" as="geometry">
            <mxPoint x="185" y="-421" as="sourcePoint" />
            <mxPoint x="-7.628000000000156" y="-479.9000000000001" as="targetPoint" />
          </mxGeometry>
        </mxCell>
        <mxCell id="Wg5zc0KwgjEXMHmSU5Xn-170" value="Engineering" style="edgeLabel;resizable=0;html=1;;align=center;verticalAlign=middle;labelBorderColor=default;fontSize=13;spacingTop=0;rotation=0;arcSize=12;overflow=visible;noLabel=0;labelPadding=0;perimeter=rectanglePerimeter;imageWidth=24;rounded=1;fontStyle=0" parent="Wg5zc0KwgjEXMHmSU5Xn-169" connectable="0" vertex="1">
          <mxGeometry relative="1" as="geometry" />
        </mxCell>
        <mxCell id="Wg5zc0KwgjEXMHmSU5Xn-171" value="Heath &amp;amp; Fitness" style="swimlane;fontStyle=0;childLayout=stackLayout;horizontal=1;startSize=30;horizontalStack=0;resizeParent=1;resizeParentMax=0;resizeLast=0;collapsible=1;marginBottom=0;whiteSpace=wrap;html=1;rounded=1;treeMoving=0;treeFolding=0;strokeColor=default;align=center;verticalAlign=middle;fontFamily=Helvetica;fontSize=12;fontColor=default;fillColor=default;" parent="1" vertex="1">
          <mxGeometry x="-185" y="-193" width="140" height="120" as="geometry" />
        </mxCell>
        <mxCell id="Wg5zc0KwgjEXMHmSU5Xn-172" value="Item 1" style="text;strokeColor=none;fillColor=none;align=left;verticalAlign=middle;spacingLeft=4;spacingRight=4;overflow=hidden;points=[[0,0.5],[1,0.5]];portConstraint=eastwest;rotatable=0;whiteSpace=wrap;html=1;rounded=1;fontFamily=Helvetica;fontSize=12;fontColor=default;fontStyle=0;" parent="Wg5zc0KwgjEXMHmSU5Xn-171" vertex="1">
          <mxGeometry y="30" width="140" height="30" as="geometry" />
        </mxCell>
        <mxCell id="Wg5zc0KwgjEXMHmSU5Xn-173" value="Item 2" style="text;strokeColor=none;fillColor=none;align=left;verticalAlign=middle;spacingLeft=4;spacingRight=4;overflow=hidden;points=[[0,0.5],[1,0.5]];portConstraint=eastwest;rotatable=0;whiteSpace=wrap;html=1;rounded=1;fontFamily=Helvetica;fontSize=12;fontColor=default;fontStyle=0;" parent="Wg5zc0KwgjEXMHmSU5Xn-171" vertex="1">
          <mxGeometry y="60" width="140" height="30" as="geometry" />
        </mxCell>
        <mxCell id="Wg5zc0KwgjEXMHmSU5Xn-174" value="Item 3" style="text;strokeColor=none;fillColor=none;align=left;verticalAlign=middle;spacingLeft=4;spacingRight=4;overflow=hidden;points=[[0,0.5],[1,0.5]];portConstraint=eastwest;rotatable=0;whiteSpace=wrap;html=1;rounded=1;fontFamily=Helvetica;fontSize=12;fontColor=default;fontStyle=0;" parent="Wg5zc0KwgjEXMHmSU5Xn-171" vertex="1">
          <mxGeometry y="90" width="140" height="30" as="geometry" />
        </mxCell>
        <mxCell id="Wg5zc0KwgjEXMHmSU5Xn-175" value="" style="endArrow=classic;html=1;rounded=1;entryX=0.996;entryY=-0.03;entryDx=0;entryDy=0;exitX=0;exitY=1;exitDx=0;exitDy=0;edgeStyle=entityRelationEdgeStyle;curved=1;entryPerimeter=0;" parent="1" source="Wg5zc0KwgjEXMHmSU5Xn-130" target="Wg5zc0KwgjEXMHmSU5Xn-173" edge="1">
          <mxGeometry relative="1" as="geometry">
            <mxPoint x="188" y="-131" as="sourcePoint" />
            <mxPoint x="-22" y="-68.34" as="targetPoint" />
          </mxGeometry>
        </mxCell>
        <mxCell id="Wg5zc0KwgjEXMHmSU5Xn-176" value="Health and&lt;div&gt;Fitness&lt;/div&gt;" style="edgeLabel;resizable=0;html=1;;align=center;verticalAlign=middle;labelBorderColor=default;fontSize=13;rounded=1;" parent="Wg5zc0KwgjEXMHmSU5Xn-175" connectable="0" vertex="1">
          <mxGeometry relative="1" as="geometry" />
        </mxCell>
        <mxCell id="Wg5zc0KwgjEXMHmSU5Xn-183" value="Videography" style="swimlane;fontStyle=0;childLayout=stackLayout;horizontal=1;startSize=30;horizontalStack=0;resizeParent=1;resizeParentMax=0;resizeLast=0;collapsible=1;marginBottom=0;whiteSpace=wrap;html=1;rounded=1;treeMoving=0;treeFolding=0;strokeColor=default;align=center;verticalAlign=middle;fontFamily=Helvetica;fontSize=12;fontColor=default;fillColor=default;" parent="1" vertex="1">
          <mxGeometry x="426" y="-337.5" width="140" height="120" as="geometry" />
        </mxCell>
        <mxCell id="Wg5zc0KwgjEXMHmSU5Xn-184" value="Color Grading" style="text;strokeColor=none;fillColor=none;align=left;verticalAlign=middle;spacingLeft=4;spacingRight=4;overflow=hidden;points=[[0,0.5],[1,0.5]];portConstraint=eastwest;rotatable=0;whiteSpace=wrap;html=1;rounded=1;fontFamily=Helvetica;fontSize=12;fontColor=default;fontStyle=0;" parent="Wg5zc0KwgjEXMHmSU5Xn-183" vertex="1">
          <mxGeometry y="30" width="140" height="30" as="geometry" />
        </mxCell>
        <mxCell id="Wg5zc0KwgjEXMHmSU5Xn-185" value="Item 2" style="text;strokeColor=none;fillColor=none;align=left;verticalAlign=middle;spacingLeft=4;spacingRight=4;overflow=hidden;points=[[0,0.5],[1,0.5]];portConstraint=eastwest;rotatable=0;whiteSpace=wrap;html=1;rounded=1;fontFamily=Helvetica;fontSize=12;fontColor=default;fontStyle=0;" parent="Wg5zc0KwgjEXMHmSU5Xn-183" vertex="1">
          <mxGeometry y="60" width="140" height="30" as="geometry" />
        </mxCell>
        <mxCell id="Wg5zc0KwgjEXMHmSU5Xn-186" value="Item 3" style="text;strokeColor=none;fillColor=none;align=left;verticalAlign=middle;spacingLeft=4;spacingRight=4;overflow=hidden;points=[[0,0.5],[1,0.5]];portConstraint=eastwest;rotatable=0;whiteSpace=wrap;html=1;rounded=1;fontFamily=Helvetica;fontSize=12;fontColor=default;fontStyle=0;" parent="Wg5zc0KwgjEXMHmSU5Xn-183" vertex="1">
          <mxGeometry y="90" width="140" height="30" as="geometry" />
        </mxCell>
        <mxCell id="Wg5zc0KwgjEXMHmSU5Xn-187" value="" style="endArrow=classic;html=1;rounded=1;entryX=-0.016;entryY=-0.091;entryDx=0;entryDy=0;exitX=1;exitY=0.5;exitDx=0;exitDy=0;edgeStyle=entityRelationEdgeStyle;curved=1;entryPerimeter=0;" parent="1" source="Wg5zc0KwgjEXMHmSU5Xn-130" target="Wg5zc0KwgjEXMHmSU5Xn-185" edge="1">
          <mxGeometry relative="1" as="geometry">
            <mxPoint x="759" y="-260" as="sourcePoint" />
            <mxPoint x="549" y="-197.34" as="targetPoint" />
          </mxGeometry>
        </mxCell>
        <mxCell id="Wg5zc0KwgjEXMHmSU5Xn-188" value="Videography" style="edgeLabel;resizable=0;html=1;;align=center;verticalAlign=middle;labelBorderColor=default;fontSize=13;rounded=1;" parent="Wg5zc0KwgjEXMHmSU5Xn-187" connectable="0" vertex="1">
          <mxGeometry relative="1" as="geometry" />
        </mxCell>
        <mxCell id="Wg5zc0KwgjEXMHmSU5Xn-189" value="Photography" style="swimlane;fontStyle=0;childLayout=stackLayout;horizontal=1;startSize=30;horizontalStack=0;resizeParent=1;resizeParentMax=0;resizeLast=0;collapsible=1;marginBottom=0;whiteSpace=wrap;html=1;rounded=1;treeMoving=0;treeFolding=0;strokeColor=default;align=center;verticalAlign=middle;fontFamily=Helvetica;fontSize=12;fontColor=default;fillColor=default;" parent="1" vertex="1">
          <mxGeometry x="424" y="-481.5" width="140" height="120" as="geometry" />
        </mxCell>
        <mxCell id="Wg5zc0KwgjEXMHmSU5Xn-190" value="Color Grading" style="text;strokeColor=none;fillColor=none;align=left;verticalAlign=middle;spacingLeft=4;spacingRight=4;overflow=hidden;points=[[0,0.5],[1,0.5]];portConstraint=eastwest;rotatable=0;whiteSpace=wrap;html=1;rounded=1;fontFamily=Helvetica;fontSize=12;fontColor=default;fontStyle=0;" parent="Wg5zc0KwgjEXMHmSU5Xn-189" vertex="1">
          <mxGeometry y="30" width="140" height="30" as="geometry" />
        </mxCell>
        <mxCell id="Wg5zc0KwgjEXMHmSU5Xn-191" value="Item 2" style="text;strokeColor=none;fillColor=none;align=left;verticalAlign=middle;spacingLeft=4;spacingRight=4;overflow=hidden;points=[[0,0.5],[1,0.5]];portConstraint=eastwest;rotatable=0;whiteSpace=wrap;html=1;rounded=1;fontFamily=Helvetica;fontSize=12;fontColor=default;fontStyle=0;" parent="Wg5zc0KwgjEXMHmSU5Xn-189" vertex="1">
          <mxGeometry y="60" width="140" height="30" as="geometry" />
        </mxCell>
        <mxCell id="Wg5zc0KwgjEXMHmSU5Xn-192" value="Item 3" style="text;strokeColor=none;fillColor=none;align=left;verticalAlign=middle;spacingLeft=4;spacingRight=4;overflow=hidden;points=[[0,0.5],[1,0.5]];portConstraint=eastwest;rotatable=0;whiteSpace=wrap;html=1;rounded=1;fontFamily=Helvetica;fontSize=12;fontColor=default;fontStyle=0;" parent="Wg5zc0KwgjEXMHmSU5Xn-189" vertex="1">
          <mxGeometry y="90" width="140" height="30" as="geometry" />
        </mxCell>
        <mxCell id="Wg5zc0KwgjEXMHmSU5Xn-193" value="" style="endArrow=classic;html=1;rounded=1;entryX=-0.005;entryY=-0.022;entryDx=0;entryDy=0;exitX=1;exitY=0;exitDx=0;exitDy=0;edgeStyle=entityRelationEdgeStyle;curved=1;entryPerimeter=0;" parent="1" source="Wg5zc0KwgjEXMHmSU5Xn-130" target="Wg5zc0KwgjEXMHmSU5Xn-191" edge="1">
          <mxGeometry relative="1" as="geometry">
            <mxPoint x="759" y="-275" as="sourcePoint" />
            <mxPoint x="547" y="-341.34000000000003" as="targetPoint" />
          </mxGeometry>
        </mxCell>
        <mxCell id="Wg5zc0KwgjEXMHmSU5Xn-194" value="Photography" style="edgeLabel;resizable=0;;align=center;verticalAlign=middle;labelBorderColor=default;fontColor=default;labelBackgroundColor=default;textShadow=0;html=1;fontSize=13;rounded=1;" parent="Wg5zc0KwgjEXMHmSU5Xn-193" connectable="0" vertex="1">
          <mxGeometry relative="1" as="geometry" />
        </mxCell>
        <mxCell id="Wg5zc0KwgjEXMHmSU5Xn-195" value="Storytelling" style="swimlane;fontStyle=0;childLayout=stackLayout;horizontal=1;startSize=30;horizontalStack=0;resizeParent=1;resizeParentMax=0;resizeLast=0;collapsible=1;marginBottom=0;whiteSpace=wrap;html=1;rounded=1;treeMoving=0;treeFolding=0;resizeHeight=1;resizeWidth=1;dropTarget=1;" parent="1" vertex="1">
          <mxGeometry x="426" y="-192.5" width="140" height="120" as="geometry">
            <mxRectangle x="426" y="-192.5" width="94" height="30" as="alternateBounds" />
          </mxGeometry>
        </mxCell>
        <mxCell id="Wg5zc0KwgjEXMHmSU5Xn-196" value="Item 1" style="text;strokeColor=none;fillColor=none;align=left;verticalAlign=middle;spacingLeft=4;spacingRight=4;overflow=hidden;points=[[0,0.5],[1,0.5]];portConstraint=eastwest;rotatable=0;whiteSpace=wrap;html=1;rounded=1;" parent="Wg5zc0KwgjEXMHmSU5Xn-195" vertex="1">
          <mxGeometry y="30" width="140" height="30" as="geometry" />
        </mxCell>
        <mxCell id="Wg5zc0KwgjEXMHmSU5Xn-197" value="Item 2" style="text;strokeColor=none;fillColor=none;align=left;verticalAlign=middle;spacingLeft=4;spacingRight=4;overflow=hidden;points=[[0,0.5],[1,0.5]];portConstraint=eastwest;rotatable=0;whiteSpace=wrap;html=1;rounded=1;" parent="Wg5zc0KwgjEXMHmSU5Xn-195" vertex="1">
          <mxGeometry y="60" width="140" height="30" as="geometry" />
        </mxCell>
        <mxCell id="Wg5zc0KwgjEXMHmSU5Xn-198" value="Item 3" style="text;strokeColor=none;fillColor=none;align=left;verticalAlign=middle;spacingLeft=4;spacingRight=4;overflow=hidden;points=[[0,0.5],[1,0.5]];portConstraint=eastwest;rotatable=0;whiteSpace=wrap;html=1;rounded=1;" parent="Wg5zc0KwgjEXMHmSU5Xn-195" vertex="1">
          <mxGeometry y="90" width="140" height="30" as="geometry" />
        </mxCell>
        <mxCell id="Wg5zc0KwgjEXMHmSU5Xn-199" value="" style="endArrow=classic;html=1;rounded=1;entryX=0.005;entryY=-0.072;entryDx=0;entryDy=0;edgeStyle=entityRelationEdgeStyle;curved=1;exitX=1;exitY=1;exitDx=0;exitDy=0;entryPerimeter=0;" parent="1" source="Wg5zc0KwgjEXMHmSU5Xn-130" target="Wg5zc0KwgjEXMHmSU5Xn-197" edge="1">
          <mxGeometry relative="1" as="geometry">
            <mxPoint x="759" y="-245" as="sourcePoint" />
            <mxPoint x="550" y="-51.34" as="targetPoint" />
          </mxGeometry>
        </mxCell>
        <mxCell id="Wg5zc0KwgjEXMHmSU5Xn-200" value="Storytelling" style="edgeLabel;resizable=0;html=1;;align=center;verticalAlign=middle;labelBorderColor=default;spacingTop=0;spacing=2;fontSize=13;rounded=1;" parent="Wg5zc0KwgjEXMHmSU5Xn-199" connectable="0" vertex="1">
          <mxGeometry relative="1" as="geometry" />
        </mxCell>
        <mxCell id="8DC9Q0Ns15ucPgyI6AoZ-3" value="Engineering" style="swimlane;fontStyle=0;childLayout=stackLayout;horizontal=1;startSize=30;horizontalStack=0;resizeParent=1;resizeParentMax=0;resizeLast=0;collapsible=1;marginBottom=0;whiteSpace=wrap;html=1;rounded=1;treeMoving=0;treeFolding=0;strokeColor=default;align=center;verticalAlign=middle;fontFamily=Helvetica;fontSize=12;fontColor=default;fillColor=default;resizeHeight=0;resizable=1;resizeWidth=0;" parent="1" vertex="1">
          <mxGeometry x="-185" y="-511.5" width="157" height="150" as="geometry" />
        </mxCell>
        <mxCell id="8DC9Q0Ns15ucPgyI6AoZ-13" value="Python" style="text;strokeColor=none;fillColor=none;align=left;verticalAlign=middle;spacingLeft=4;spacingRight=4;overflow=hidden;points=[[0,0.5],[1,0.5]];portConstraint=eastwest;rotatable=0;whiteSpace=wrap;html=1;rounded=1;fontFamily=Helvetica;fontSize=12;fontColor=default;fontStyle=0;" parent="8DC9Q0Ns15ucPgyI6AoZ-3" vertex="1">
          <mxGeometry y="30" width="157" height="30" as="geometry" />
        </mxCell>
        <mxCell id="8DC9Q0Ns15ucPgyI6AoZ-14" value="Mechanical Engineering" style="text;strokeColor=none;fillColor=none;align=left;verticalAlign=middle;spacingLeft=4;spacingRight=4;overflow=hidden;points=[[0,0.5],[1,0.5]];portConstraint=eastwest;rotatable=0;whiteSpace=wrap;html=1;rounded=1;fontFamily=Helvetica;fontSize=12;fontColor=default;fontStyle=0;" parent="8DC9Q0Ns15ucPgyI6AoZ-3" vertex="1">
          <mxGeometry y="60" width="157" height="30" as="geometry" />
        </mxCell>
        <mxCell id="8DC9Q0Ns15ucPgyI6AoZ-15" value="Electronics" style="text;strokeColor=none;fillColor=none;align=left;verticalAlign=middle;spacingLeft=4;spacingRight=4;overflow=hidden;points=[[0,0.5],[1,0.5]];portConstraint=eastwest;rotatable=0;whiteSpace=wrap;html=1;rounded=1;fontFamily=Helvetica;fontSize=12;fontColor=default;fontStyle=0;" parent="8DC9Q0Ns15ucPgyI6AoZ-3" vertex="1">
          <mxGeometry y="90" width="157" height="30" as="geometry" />
        </mxCell>
        <mxCell id="8DC9Q0Ns15ucPgyI6AoZ-12" value="Design" style="text;strokeColor=none;fillColor=none;align=left;verticalAlign=middle;spacingLeft=4;spacingRight=4;overflow=hidden;points=[[0,0.5],[1,0.5]];portConstraint=eastwest;rotatable=0;whiteSpace=wrap;html=1;rounded=1;fontFamily=Helvetica;fontSize=12;fontColor=default;fontStyle=0;" parent="8DC9Q0Ns15ucPgyI6AoZ-3" vertex="1">
          <mxGeometry y="120" width="157" height="30" as="geometry" />
        </mxCell>
        <mxCell id="8DC9Q0Ns15ucPgyI6AoZ-22" value="Johnny Ives - Apple Designer. Leaves and creates Love From" style="rounded=1;whiteSpace=wrap;html=1;" parent="1" vertex="1">
          <mxGeometry x="-682.9989655172413" y="-310.9962068965516" width="120" height="60" as="geometry" />
        </mxCell>
        <mxCell id="8DC9Q0Ns15ucPgyI6AoZ-21" style="edgeStyle=orthogonalEdgeStyle;rounded=0;orthogonalLoop=1;jettySize=auto;html=1;" parent="1" source="8DC9Q0Ns15ucPgyI6AoZ-12" target="8DC9Q0Ns15ucPgyI6AoZ-22" edge="1">
          <mxGeometry relative="1" as="geometry">
            <mxPoint x="-451.0689655172414" y="-339.58620689655174" as="targetPoint" />
          </mxGeometry>
        </mxCell>
        <mxCell id="8DC9Q0Ns15ucPgyI6AoZ-24" value="Deiter Rams - Famous Braun Designer. Inspired John Ives designs." style="rounded=1;whiteSpace=wrap;html=1;" parent="1" vertex="1">
          <mxGeometry x="-464.1666666666665" y="-306.33333333333326" width="120" height="60" as="geometry" />
        </mxCell>
        <mxCell id="8DC9Q0Ns15ucPgyI6AoZ-23" style="edgeStyle=orthogonalEdgeStyle;rounded=0;orthogonalLoop=1;jettySize=auto;html=1;" parent="1" source="8DC9Q0Ns15ucPgyI6AoZ-12" target="8DC9Q0Ns15ucPgyI6AoZ-24" edge="1">
          <mxGeometry relative="1" as="geometry">
            <mxPoint x="-404.1666666666665" y="-276.33333333333326" as="targetPoint" />
          </mxGeometry>
        </mxCell>
        <mxCell id="b3oyP1oJiZm0cQTsbSEI-7" style="edgeStyle=orthogonalEdgeStyle;rounded=0;orthogonalLoop=1;jettySize=auto;html=1;curved=1;entryX=0.5;entryY=1;entryDx=0;entryDy=0;exitX=1;exitY=0.5;exitDx=0;exitDy=0;" parent="1" source="b3oyP1oJiZm0cQTsbSEI-11" target="b3oyP1oJiZm0cQTsbSEI-10" edge="1">
          <mxGeometry relative="1" as="geometry">
            <mxPoint x="858" y="-804" as="targetPoint" />
            <mxPoint x="616" y="-720" as="sourcePoint" />
          </mxGeometry>
        </mxCell>
        <mxCell id="b3oyP1oJiZm0cQTsbSEI-10" value="The Worst Enemy to Plan A is Plan B" style="rounded=1;whiteSpace=wrap;html=1;" parent="1" vertex="1">
          <mxGeometry x="570" y="-668" width="120" height="60" as="geometry" />
        </mxCell>
        <mxCell id="b3oyP1oJiZm0cQTsbSEI-11" value="Personal Growth" style="rounded=1;whiteSpace=wrap;html=1;" parent="1" vertex="1">
          <mxGeometry x="424" y="-580" width="120" height="60" as="geometry" />
        </mxCell>
        <mxCell id="G8_HRAXNZ641OnYXsIYP-1" value="" style="shape=image;verticalLabelPosition=bottom;labelBackgroundColor=default;verticalAlign=top;aspect=fixed;imageAspect=0;image=data:image/png,iVBORw0KGgoAAAANSUhEUgAAAYMAAADjCAYAAABn53j8AAAAAXNSR0IArs4c6QAAAARnQU1BAACxjwv8YQUAAAAJcEhZcwAADsMAAA7DAcdvqGQAAP+lSURBVHhe7P13sG1ZetiH/dba6eSb04v9Xsfp7unpyRFpBpEQIJEUTclFWX+oRFsu/+Ugq2SpRNsqSyqXVSWzSnbJosySIULMIgACAigMQAwn59Q5vRxuviftuJb/+NbaZ5/z7uvpmemZ7hn09965O++94pe/bylrreUdeAfegXfgHfhzDQr4KSAGijPnL7B35zZ5ni1e/L4hSmK6nT5Hh/uLl34qYW1ri9HxMVmaLl76oaC3tMx0NKSqqsVLbwtoddosD5a5ffvW4qW3DDr9AWWek2dvbl+8maCDgJXlVfb3dxcvvenQaiUkSYvj4+PFS+/Amwx68cRPJlhQoJRavPCDgf0poZFvGNSb13YNePvLnG9+nX9YUPxENBz2xzQ/lAJjzOLpd+BHAD8VxEAB1pg3DaEZW8ko/HMCCvumtV0T5I1v/nvfLFDqR0MEf1iw9u2P/H582mX1Y/zWn2/4qSAGFuBNJAbWWLT+qWiaNwTW2h8R8Xt7T+IfRY1/WBDJYPHs2w9+FEX0xLn50zp4RzL4McFPjT5ka+sMo+Ex48l48dL3DUpr1tY32N+9+9PPlShYXd8gnUyZjEeLV38o6C8tMxmNqKpy8dLbArrdLoPBErdu3Vy89JZBrz8gm04pymLx0o8c3igzFQQB3X6f0ckJNJ9T8kcpUNbtazkGp35t3KqUwp7yXYWq1VBxHGMrQ1lVWGuxWKwnDtYiexaspazM68xXeyr5b357cX/GEFoUGqUVWst5fz3QGpRGKer7lXLSjJ2p0/I8J4oisixnNHpz59mbBUop9VPhULS1ucNkMmY4kgH6Q4FSrK1vcLC3+zqD66cHVtfWybOM0Wi4eOmHgv5gicl4/LYlBp1uh0Fvidt3vn8Dcj3h32QQYpBSlDksIFrVQGZKKZHmrKj4FhHZ6+3PbX0dlHu7vzbHJ8q+P9JaE0cxWZbOlakJizYF/1b3v/6WVSKZav8mJYhWbleEocYai3X1RIFWgnR1o20ArPHflW/7GlhrKYqCKAzRWjtJQxHHiZAIranKkiAMhZA5YqQcYbPWoFTg2pk5/tkiRMl/UJ519AlqspalGXGSMB6POTg8rJ9/O4EC7KyBfjJBKcXG2iZpnnJy8uZ4HaxubHL454QYrKyuUhYlw+GbQEgb0OsPmE7Gb1tvonanzdIP4U3kkZYfI6+HeJtco98qjxkbEMUx1pgG9ytIUSGMdY2kBNPUyBt3+L3UfaISFKSFf8YN8eZYb9bFl1HKK9x+GIYUeeGK4AmjFCrQ2iFZhTWWqqrQWhPFEWGo0f4eJYhYKyXEQClfqfpdON6fxpkmWGuxWvnGkfpbg/Eyg7EoLFmWgg4IdYCpKkpjaLe7DsErxuMxrVarPvbvbm6VI17gJR/fG/eOAWuFgPn9PM9JkoThaMjh0ZG85G0GvtUbFPMnE9ZW1ylNyfGb1NAra+scHez/+SAGK6uYquL4TSKkHnq9Pmk6pSx/PJLBHAJbOF68BtBqteh2uxwcHLzuvTUir884DterEqx1zOGMH/b3KmYIZBGUu+7BNjziFDMkXYP2RMBxqPbeOirZqWmCUoLAtVKi6vDfqPXy1Odk64mWrt/l32NrTnkRKRuMtaTpFCz0Oh2MNVTGkBcFo9EIrTXtVoswDNFKi6pFCxHw7+eUKss5Qbl2xm6DdU5/czc6jt5aFFAh6iNrLVmeo5Qm0gFFWWCATrvrulKIQZIkTq0lhNoj9Dli4Jtkob/nOn7hpLWWosxJ4hZHx0ccn7y5EvibBXXRlVIEQUDldHM/abC8vIrScHhwsHjpB4LllVWOjw5/Itvi+wEFLC+vUFWGk+GbSwy63T5ZllK+jv57EZk1wetm58DO1APKcWqL99SIpTGJF+8BCMOQJIkZjcb1dYWb7XbeqK6UcJ73vgV0oMHezwXSIWYtiNpLAzVnfkq5mgilLpdH3h5ZOcSvXP2tknYJUOCRrFJYRwi04Moa+VrluVuPAKRMFlHZGH9d4VDx6Q4VorW3GCPEQCtFp9XGWktpKoqy4OTkBK0D2u02QRAQ6BClpdxaS4m0+7ZBoWosLxKlbeLXORAivNiG1goRMMbUKqasyInCiEBBWZZYrWm1Wu7LislkQhzHSPPN19VLtqFTM/mflF/6RLt+CbQmUNLHFlBWUVYlWVFQVRV3d/c4Onpz59mbBY1hN+scY17PEPP2hKXlFcIwZH/vzQmE+WkmBouTZ2l5GWvsPSq2xfs81AhtAVk2j621RFGEdZPSI5rFd/rjmvNbAH/dOp2x39aIbAFp++GsPBc3N8Sl3P56EASEoabI8/peqZsT/us6zpCvnHM6ay0v00oRBKH7unuT57Td/nx7uW2DtfV1k3cY8iyn2+1iERVDnuZ1PZVSNTKdGTblPVqJ3hsFpqoIo7jBybovK4/ymy0+2/N1n2e9HVFz+1JW+Vkcws2yWgKoTIkxlqLIOTkZopQg3yiMHNJVaGtFleSIbJzEhFFEFEUEYUQYhoRhQBjJM0kcE8cxQRgSRqG8K4lJWglJJNeTJCGKYnQQkudTTo6PefWVV/jTf/4ZJtMpCjDGEQoE8UdRTFkWBKH0oXJ40FoxVhdlSTtpsbqyggr885bKVFhjMEakIFNVVKbCVIaqKqkqU99njOxbK9u3IzSGiTvxEyohDJaWSFptdu/cXrz0A8FgaYnhycnbqg1qxHkfhLq4v3jO18WrPXATv9frgtL3GJCbCGruG42/AN6I6VGLQ5se89RDbK4laxzuEc/cG9373H79R3Z0g/DM1Vc5dgxxDdZK0+606ocX+9IqUTsoT1lwvtZ2/qOeo/Y1aX7TOPZZW5EQLPeTEE7rG6frrg8NWKhMRZbm9AcDwJBlGVma1YTGc6FKib59ZtwUJKa1BmUoi4o4Tup3N79fV7HeOR2sdC/GgLXCJDbVNZ7YKaWwpsRaiKIQawV/lEXJNJWsAEop3vfep/jf/Xv/LhUB//Qf/UM+9y8+yyd+9mf5kz/+NP/Jf/qfcOHSA4RRQBiEBGiKsqAsC6rKCpI1JWmaMR6PmI7HZFmGtYaqrMjznDTLSKfiDLG7u8v169d58ZVXeOWV15hMs3vGwBuFe/vu3vH0kw5+fM+f/AkkCP1+j063z50f0Bi4CL3BEpPRsJ7Ypw2GJvjrzfZSDWeN2bnT3+MnlP/ReJcX7R2rOXtmtgv1xJVnFr+z+E5/rFB0Om10EDIcnswjZJnt9ZfmrjXKUnPRC3dppaTMNThuucFxC+Jy72iWq/Gcbehu6x8GjUYHgeh6lSLPc+IkRutABrb3QJEXzpVf2mH2rsaFmqB44mI90mMBd5+it/aEtqqqe/rAgyBQP/HmSgXWUlaC2AaDJcAymUyYTqf1XbWqQikCHRDGMVEUAWAqQxAGaKWZZim9fp9WnBCEWtQkYSC/ICSOIuI4IU5aJK2WO46I4phWK6bdatPr9+n1OnQ6XbqdLq0kppXE9TNRHDmpyJJNR/zzP/kM/+3/77c4ONijqgxKzWyRgVasr2/w9FNP0u122N3d5ejohLM7O9y8dYvHHn2k7scsz0jTlCzLKcoSYyqMNWIXcDYB5ZrMN6GMDSHGRVkymUw4Pjnh4PiI4XBMlv94bFc/qaBcc94D6kdMEJTSzmXrzXHR63W7DJZXuHXzxuKl+0KTQ2YBAcVxTFEU95TttAmulEcVzDdnjT1m4vhpDV4jQj+2lRxZO0uz0WBewQ18pesp4Z717LVCYQmjiCTpyEQyBmNFh2qM08U6ZJkkLcIwYDqdzhn06p9rpibHX9d5ru7u8kIbLR6jvKeMchh1dqnetQqLU1dai7HCGRprKMtCXAWjhDiK6XQ6BEHAcHhCp9cjCiO84dC3oeCMWfkBVIMQ+H5e7G8PfpzeUxcHdf8oyd2jAGMqBG0h5fGPWouRakmvOZWFcgTUWkNelAwGAwDGkwlD59PvyxAGAVEQ0um0+V/9O3+dj330Y5Rlwd/4G/8x29ubfOCDH+J/+B/+B/79//A/4NKlB6VoeoYsseKxZKqKqirJ84I0TRmPx4xGI8bjEfk0Jc0zQch54XImZeRlQV4UtSqkLEum0yknJ0Pu7u5y684d8rw5dyxKacJA02m1aLc7dNptWq2EMIoIw4BAiexlG2PAOrWijG05I23g2tMaUErq4frauDrlecEknTIajjg6OWE4mpIX97ddvQOn46YalBIXsrIs7ztJflAIwxBBeN4+4ScbMm1Pn3M1NCelUopOu83y8io3blx3w+jee5qweHzPOdcyr1dvX1ZoIIP64gw7+OEspVpEKB6pzveEUloMk+7exff7d1RuUvvHlWNXlVZ0ez22ts7MjIa+FF7cNwZjKoqyZDh0UpD1qhP3XXXvx+tr6Lr+p0GzfaDRlp4YNKDZzkIAfFmdftdPdCPIpyxL4jghCiO6vR5aaYajE7q9PmEYCo2xoq8VROylEuGo3ZekRWppw33XjUe5X6Jgg0C2OhD1k9YilXguPQxDgiBEBwFRGNJqtQjCULjsJCZpd+h2OxLo1u3RX1qi1+/RjkN6vS5Jq81kPObLn/8s/+1v/TZZltNut0Ap8jxjMpklrlNKESpFFEV0uh0efughHnjgAXq9Ls+/8CLKWrq9LsOTIWfPnEGHmizLyLOcPM8p8hxTlsJpyxvl54zNODWUdsNyRuzdOLJuJFtxG82Lgul0KkRrNGaSTilKFyQmmButFVEQksQxrVaLVqtF7CSawLWj8oyhe78HPzb8u+rxYYWI2sb4qIyhqirKoiTNUybjKcPJhPEk+7F5tf2kwgIKuhfUj0hC2NjcYnllVYwsVUXlOJTKTfSyLB3nUTUIxv2Rc6vVYnV1zREDh7Bsw7go87sGj84WcZlyzza/Uk+F5r1OVzx/beFlvhynnPP1OO06jfMeGWEFOQVB2HjGkhc5RSEBSovQ6fTYPnOurhPNLeKDba14fBweHWErmVyLui2lfH3n4d6yz8q1eL4pPQg3rmb3NZCLHM623ug2z/1VlGVFHMdoren2+gRaJINut0cYRvIVW3F0KE4A0o6aKAx5z9Pv4cy5cwRK8ZUvfYXheMTFS5e4deMGK8tL/MW//Jfp9vokcULSbtNqtWi3ZqqUKAwJHaIPw0BIout/2xhTVVUynYyZjkZkWUqe5oKU84wsK5wqZMpwNOTk6Ii9/X1eeuklXnjxFfKiwNxnrAfOayWKItrtFp1Oh06nIwbaKCIMAomUVRIh2+z72fzxE0KkBQ/N+bU41/yxJ862SQzSlDRNmUynpKlT7VgvGVkCL81EkTPyiqE4DEMCR1AtIv1ZTwzmxoNIhzWh8GOhJjhSLuOJQVmSFwVZmjHJMtKsvK8t5x0QaMzI+4P6EUgI2zvn2NrZnrmRWUE4CuW4W41lZqEvy5KTk2OOjo6cekl8pn0Ht9tt+oMl7t6543yq3UACqaZtqFAaOmoPC95kNehat3svzE+uefDXmtvT4LTn/UTz18IwrIlxu90mDKJayhDkkp/6/na7w/aZC2JwbEz/Jlindjk6OqonU1PlUbfUKdw8OCzo62C9PskRFfcKpZyhVLm+1doZPeWa9FbDg8f1kQ40QRA7g2JAFIUkSUIYhOR5xs0bNzg+PmbQ6xNozXA0ot3tETibQWUr9nbvYpyOOQwCOp0O/5f/63/Ez3/yU3Tabf7P/9Hf4LVXX+M/+8/+b/wX/8XfpKoM//t/9/9IUeRMJhMm4xGj4ZCTkxOGw2NOToZMxhPS6URUJlnGdJqSZjlFjcClpbWm9qgCi7KicrMWKivEWJBpzmQyZTweMRyNmEym5EXpkB/MWlPaRmwF2rVHTNsRrJYjVoFTuzQN7TU4iYvG2Hsj28V9UTtaTCWSZVbkZNnsV1US+GWdzStw7pfiISQ/cTOduWlaa2vu3TpE78G3oa0lt/k5YuWCeO+4MlVVRVEUpEVJWTZb8R04Dd4QMcBN6DdHQtCAZWNzmzNnz82Q8pyBbxF5yveqsiRLc4ytaleusiwwpqLdbmOM4fDggNDlQ/HIBTdY0rx0h/ZUTvd7wT0T6z7nFuGNtNdpE9BDGIY1x+O5P39PmqYUtS7UNtC9JY4TNrfPEAaR80CRSed/wmUZyqLg6OQYU/j8L03OvcE5Or/qMAiJopA4jomThLiV0EpadLs9uv0e7VaLVtKi3enQbndIWgmtJKHTadPtdul0umK4rN8Rk8QtklYix3EkHHgUirufQzppmjIeHrG7u8vzzz3Lb/3Wb/Pss89jbR0HKrYowXhYxL3SOqIehmJslpxEfXrdLkEQEoQBcRS68SLtpxvIVCmFcv7wiyB2h4VJ1LhROSO5xWJLg1UzhOZVXmmeMZlOmU6mjCYTppMJeVlSLbgg+rEmyFVUU3EsRt/Eq1zCkNDlzKn7WXpRXuLaZZHDlt3Z9p57fJs2GJXSqRlLZzcoy5KiKCjL0nkfuW8qccOV9tRiIwiCOvrYt60xph7Lp5XJg//+/DHATJVY+XJVhrIUwvUOvD74Gf+GQDk95WmG1TcGMjAVipW1Dc5dOI9G3PGsC4zx82gRyTYPlZoZVJUSHae1hsP9XU6Oj9FavKibYK1lmme1YfI0WPzm94Lv5/77tdfioD7tXBwntcqskwgxsBL3SZpOF/rDd6kSf+iqAq3RSvTeYRCyfWaHX/m1v+BUTCX7d3b55je/jq0qnnz6ab719a9z/uJ5Pvbxj7O9s83GxgYbG5tsbGywurZGb9AnTiKSMCLUug5Isk7KE/WToSzEK2Q6zUinU0bjEcOTY8bDY8bjCePxiOOjQ46Ojzk6PGI4HDFNp+RZRpHlrs4lZVlRViVFXlJkYhgcToSLnk6mTpXk6y/+4U0QpDgjBj7yuNPp0EoSojgiChoBRQ0kWiPThpTnjxe3zcm02IdBINk3q0qM+dapWCrnOTTNUqap96DJhLNdGDJNYqBd3p7AqV6anLbo4EXiqklBox5zWznwd80Q/il1aG4F6draIaEsy1pfX1WVd9KVex1jFrh21XoWUNj8+bY47btvZN86IiHlMJTGq5HqW9+B14HvixjgBuQPJSEojbKKwcoKFy8+gFZCDDy2V4395rECUf3IiXlioMSIdHi0z+jk2EkFs+cVYKxl+iasHtUkAF69IbLOvQ1Ze5I0r7gqKCXRoUGgCUNxzws9p+y45TCKUBYmoyG3b90izTLaraTWiVtrSadTMmczkO6QLrUNLs6D77vH3/UY//7/6T9gsLxCp9PhtVde5j//f/znaCx//X/5b/O3/tZ/wy988pP84i/9MkUuq26l0ylpmpJmM3e/qijIc0H0aSr3ZGlKkReO0BQUlehqrZEWqpGsR1SzP1Jm2ZOfSP61H3nhPUQmYzFUTiZM0ymVM1a6WtbvotFfWuMkgJkBs9VqkSTCUUeBuGN6xIRDYItj3N6Ho/b7xl2rEexC+1tPBKwgLCF2ot8u8oIsz8kLr2a517akHCMU+IjXQJC/N8J6YoY3BjuYtSt1G/lxMtu6etW7zbq7Oi5IB54Tr9VGxjiiIsSgWW7Zujo4At28VlbVnAttE4tbb31wpxa6pe4X6zy1jNu+A28cBHN8n6DeBBtCf2mZS5cecqHfMjAsMlqahWoOaIW451l5ouY9rAJtLQeHB4yGR2KH0DNUrFEYRKXSBG2FaxHwg9PWk0Pq5pS8DStEPZi1JghCojAmjAOiOKHT69Ef9Fnq91ge9BksL7G0vMLyygqrqyusrqyytDSgk4jhb2lpicHSEq2khdZhTSj8yC+mQ/7O3/3v+Y//4/+U8fBEODFMnaGxLKs3LAJHgahD2u02g8GATrtNkohqRvTzwmUaY4miULI8epc/57nhkYVVFtVMBVBP0nkV3/3GR/O8f8afayIbj3CqqiLLMibplOl0ymQyZTKdkmXiJeJtg7M+VPXw9gjI1y+OIlFvOXVU4NIMiHvjrE7e87XWNteYaIZ8DA5BunHjr81unyFcfGCatU6n7ZCo03GLiqXCmIrKCvprtqff184vwgefeS7bEwNfh2Y/NOGN9Mlp5/z+otG22VeL90q0tpTD97EvL05q8JJOlucMx+OFctxbh3tL6aBByN6B7x9ktvwA4CfXDyohdHsDLj/4sBj7ZixCPY2tH9B1AS1gMWWJVkp8uZWb8Ep0t4dHBwxPjlDO40IpnzdE0261GSwP6PR64hUSx8RR4sLZ27Tb4v/cbrXotNt0Ol1a7Q7tbod+t0un26HVbotXiecm3S9OIrQKxHe7MsIZ5+LKV+S5i6KUyV6UBUWWC4edZmRZSpbnlJl4lqSTCaPxmOOTYw4ODtnf3+fmzZscHB6Rpil57jhtj3A8QrrPZPaglSIKZ26PbVeXOElIkrhGip7DDGp1iVO41UTY4TWHKD1Y9/3mdKzL47g0BeB86i2iYqDBTVuEwDSRi3XugmVViX97nosqJc2YphlFkTvVi3xqRgyo7VOeGCjHxERhONOv1+oVx0278XQazOrjvmAdc1Ij/+Z1f86d8O1jRUUihvvKOUjM1Ct+Plnr0jvLG6FBpHA1kyJ7LnuWhK5JCBar4hGyB7+3eJ+HuXsbYw7fP/5843gO/PiRA3laOblQzdpaK0WaFZy8TXP9/3mAGa79AUD9EDaETq/Pgw8+7Dxj6llcQ3PgyzGYsuTatSuURe442ZAkkvwkK8trjMZDxqMj/ur//F/nF37hF+h02nQ64mnR7/VYGqwShsIFa6VByaQzxlBWBXmaM52I+mE0PGZ4csLx0RHHx8cMT4aMxyNRhWQZWZ6RFQVFnlOVJaZ0gV31pPHIzHG31hmxGkgOGojD4rynZt4QaZ6JR8tkwmQiHHGe51TVjAvzf73Jd3ZuHjSKIFBEoXjktJKklgriJCYKxSWxVjc4TtODL+Npx74sxroAL1dPwfUzrxBrJaNkE2nYOcQ5ax8aXKdw0DPuWdRQQhjKoqAy99b+3vHj1SqzOjbrWyNRl2/IPeW2vnz+vKt7w5GqsdO4z/VMg3j4jWekJLpWJAQ/Tup2nb2mJmwg31WudPPIX6TbRWLgiirHjXbx729e830z33qzPj7t3FzdGtd9mRZr4t/uv+O3aZ5zMpos3PsO/LjgtJ76vkD9gCqjVrvLQw8/QhTGMhgavv2nTWQAUxZcvfIqaToBx0WGoSaOI9bWNkEpynzKv/3X/y3e/74PYax10ZXi/re7e4fbN29ycnzMZDIhy1OKPKcsSsl/4iYlVrxStJNalHKukQ2Y1dR7sjjwHPQpTSFGPDf0fVstID/jPEzyQvzQvUpkOp0yTVOKwoXmN2zgFnml/+ZM9SWgXHmCQJBhHInHThSLRBBFjkPWYoBcRC6cggzkyBMxauIgahNHDBaeO3XfE4bmtvGrFoytVSnGSk8YmlISfhw1VCvNseTrpRxRUM5Fc9GY2XyP7AOn2A84pV1OO3fasQUCrSmd3aBZ53vBl+ne04r5Mjf7Tal5u4xvFzlsvGxRtVd/cR6sK7u/dlpJvxecVj9pD0tRlBwN3yEGbxWoH7BP50D9AAQhbrV5+OFHiSPJK2MbBWkOzPpYgS0Lrl29QjYd1xxXGAQuqlE43TCUEP12u1VzfqLycBNeq7nEZHPfmGuQewlAE5oIp1lnv7947p5jPAIVTlICq7wnhBCDvJAUAWmakaVOnVTODHYgRfST9/7EwHlqKdHXer157e8dOtWQQ5BiJZCXekJX8/L+G+6ccudq7h5cnZrcv3/23nOy8dx0o+3mCIKPlnYBRY4wLBKC7wUeWTZ/TeLnf4vPePDtTLNO9wF//X5jxLptEARYYylPWQ1usSyiXmkeujHbuG92DteBM2ZlVn5X17rF3bPNfV9u6k6aK7eHxXawTYLjQCk1Uxc1LzTGQ2UNkdbc3ju8x6X2HfjxwOJ4+IFBfZ8EIY5bPPTIoySxrC6E1x03B3cDGaFEMrh54yrT8QgQlYP4vIvuPklcqluv/nABOKHneJ1xzb/Pf1E5r6B6pPpBqgSz1ohLsF4Dkd07KWwD8Z+2tcqpUxoI0z9jG8bSynG/eZ6TZzlZUVAWhQTPuPs8iOueEINFPTNOHyvGXpfNU2tJleCJpfP5Vm4d13nkQj1MTuvW09pAmsnvzyb84k59e6N9lFdVNNvENoiBizkwLgWHWXDpPA0WkWrtOuq2i66kzfutu7/5fv+9+be+MajrKgcAhFE0R+BPg1mZhOtfnBsiITTOOZiVc7EG8zDrmlNa0lVY2kxO1N9qei01mYfT3rPQ1+4M1kqAYKI11+4cUN3n2XfgRwvfax59X/D9EIQoTnjwoUfptDv1kPW+0PjBv8DBm6rizs3rTEajOt1v4HS/URQRx2Ic9DlPwigS1zslnj9eB17zRAox+uInwUwasA6JqYUB7H8eKixaXoBd1A039mXVJXeff+cC0rNOLVJzwGVFWRRzKhExMEpO9TloTMR7JAPnbSX7jiNuuCLeqyqZPXgv2nCEc+7zswNpm9lTi+Pgfsf+rPXIvUEIcEjf56Cp+6Bx3cMi4vdQI3s5mEP6uuGB426+hwA0wY2euba533c9+Pvnm80ZU11/0FhIhYX3e6jbqXGudrtwXkZ13Vz/CfFQDnnLE8r9tXJYt0tjswDNWi/W3t3htJ+n1tOf8/sL28qUJFpz5fb+O8TgLYJ7+u2HBfUGjcphGPPgw4/Q6XRn3ESTGMxslzUYY9i9dZPx8KROj6CRnCdBMAt19yoQ4Xhnrnc1Qmjog717qXLcbD3ZGtcr7+Wi3GB2hKKuX1NNsjDIm/tNQ+ri1v88hygLZIinSeFWSfLXcQFlHu6LiJS41M6Iga5VZL5NtJZkeJ471h6JKI8qZu+eP5qdm5vsp93j2qtxQrYNYtNE6oEj7r5eRSFZSmeeNnNvg8Y37X3ao3lOOazlEeaMs52NDz8x5B4vcp3e5s16n/ZtAWm9ZktYJ61Z5BNhGLrI+pmE4Met7yu/Pyu3YHI1Z+OYtcZsX4i83DKTwBbL23zPDwazb8t7Gu20OCesre+rTEVLG169dXhPsN078MZAa00cx4RukR5jjHM4eWMen37Mv6mg3oDbaRBEPPjQw3T7fcnZopRbKIR64MJMIa6U5Grfu32T0dAtOqMMAWIHkMhLF4ATSi6bQAsxUB7pNAgCNJCSP2ycu2e/MZgXt5xCDDzMjq2L0BWuulY5ucng3SytWwmpqiR+wOvGvX589u3mhKfRlbPzMDN7iJro3omvlJOaPBJpIB8WjOPNtzfPLbbT4j00rsmBsLB2ARkppSTbp+OS55CHG9hzaYjv8x4Pc++WE83L4FRAi5f8c7ZZbrcz37qzutdIeVasRjvWlwG3JrJFVDu6QZiQwDiscvm3/DsX3qH8vPDzRC7KfvOcu7J4ogGvd+008H2i3iDRmN3j73djpTmWjcHYijYVL906ekcy+AHAJ/+rx25jTJVlSZqm37O/3LD80cD91gQA0Drg0kOPMOgPHDcqGnylvKrGuoEt+4I8LXt3bjM8PhIDsgt88nlkxAgq+XNmnK8gltnkbMxfuTLXBFJWmYyLUNfDb6wg4vp0/WK78I3ZcT0BFtrEet24U4cYJwX4SeP3fxiYQ45u3yOX+niOGLh76715uF9pvl8E48GvkWutLPVYliVaa5IkqVV8ozk/dOkrmmX033YMgBz6q77E0mkW3LYpbczGg6hVPCPh2sYh27qOSjWekXaT5TCbTIh7YxMBuvu9AVsrTRiFdLtd2q0OGsve/i5ZUdTLbHqQb8s3m/3WvK5nTeNr4nddUd3z7kpNoNw8bIJCrjVTvWkvLDVvXIDmeJVdV/eGJFzfU1W0dMELN96RDL5fiKKIVqsFTorOXUoPTyCAOqHl64EfGj8yCBsZN5ugdcDFyw+xsrRSz6d5YoCbUH7XYq3h4O4dTo6OsG6xbNzA9JNQ1QmxZghtxv3NJszrQT1hGwbNRWjecz+Q5/09btLVzzE3OfB68VN+OJHPvdVt7wfzSME/v1j3e5CIR1wL9yp3rWZ37wOL778XFt7pauJwEkEY1AM6nU6pnIE4jiUtB26gK6XcUofOk8kjfZz4CDW3LQfunPvmYjnleNam0mb40oHyBmfqRH86UGKA92v0BhFhqFGBuOdKe0nuKL8Orjd40xiP1kuGRuxfyhgGg4Es4FNVpOMjMIbjtKyD/5SXLBpzQzXeWZ93uvvF+tfwOn06a417x1rzkbkxTOOdzScbUjD3qEobY9xWtGzG8zeO35EMvg9QStHpdNDarVnhEH7ogkuVUjVDXrpMrveD+ZnwI4LTJASlNBcuXWZtdUN0001iAI1kE/4BGTRHe3c5PjysiYG1s6R0Evnu3ShFYliERWQA9aieb4jXGZDNeswG/fz91jfufd4z947G9+v9Jhf5BjxmFuHUenr4Xojf778eNNUX9ynb4jeabSVId1bHKJK4h6osybIMFLSSFlEco5Qiz7LaKSCdTuc8b1STU/dj4fXqX4P0kl8vo9VOJBtrFKFUQLfbIY4TiZ6OQrCaXichCELyvGDqEurlPoq8lLUlykIWjrEGULZG1IGW1AzejhUohQ4DiqwkikLSdEIcxViXW0crxVpXc5RaCjNz+bWq0U/KeYo16vy96l73x33Uax7uN3Y93DMPGq/y4/80O5nfF7uXHGsq4jLluZvvEIPvB4IgoN1uY60sj2qtJQwl5QyOgTLGkCSJLCeayXrUp4G6zzx+0+FeCUFz7sJFNje2ZFwr5bzWZRgp5RWw7nYFYDne3+Vwf19y5i8MGj+uVf1roqv5wXpfsH4YLzTLPYducDfO+ddb/Hsax6d8fvG++rxXYcyfvecNzfq/3qTmlOs1d9o4J7Wefed+b5zZOxbON5FLg1gsvkc1JTdHmCRFSESeiwttHMdEcQSWOtK43ekQBgGpy0dUv7epS3f9PvvYQjk9Ulool7UQxgmVs9dYUwrRcuX1Umf9T7s2VAqNBm0lA+9cO8+WdbUux5XSYvxXSmHKkigKKIoCrWWt4CZCV0qx1Aow1jLK3Wium1f25881rvn+nGt8b2tonquvQHM8uPvmxtjCePHXfB2553vzRKDeOmnBZ5u1WLQqCbMpL9w+kbxMi4PrHTgVPOKvXJK/IBAJWzmJIE3T2t3eH98PFvv3RwbqHrdTxc65C5zZ3vE3+BCm+v5m6WSOWIZHB+zv7tbeRJ5D9NdxlfIG08UBWyOr7wV+0rzuqJQy1t9oNKbfV/f5tj9uTrYm1JNn8cIPCfWkb0xO/w0/MRXK6alFJ6Aazyk1n9vfuj+1VwzKBTrNpDKP2OST9xqNlYIkaREnMwmynbQkJ1GeU5YiBXY6bXQQiGRQVa7T3Vcbbdzc9262zXZu1h2Lsw9JWhIplCQAVEoWkGklrXqJyMC1jdCBxndshdZg3Ip0lbFgDVEYUlbVTCpQNFqTuR7242U2nhTdSLHSCbg5VrIijpZF4f3Y0yismhERAGVnXmMWXFJBJd5kjogLeZq5lspz8w4H1vV/3cmuqHU5a5Zodr45H2ZN7nZqJ4l5NWhlLaGuYDripTtDDBZrVV0HY+8/T/68g5cMjDFkWUa73UYpNWc09mugvG0kAw9NCWHr7DnO7ZyXC2ohsGcBaSs3/icnh9y9c8cPc5S1MuoaLnqLz+IGYHPyyjmPT2aK0HoiNpFL4/nTYPa+e79xOviaNjgqOWrOuRpqbn1uQsw4QkHgrpG8rnjuNjnjyzS3baiMZpN4fuvvdaWor/m6giwCL+oWd481qCCAhlogz0vCSFJF50WBVoo4iTGVIQxD+v1+PZC1VpIipKgwVsTcJGlhyoosz6iqiiAIMBg0s0C55rZZ/tonwVoqp5qoipIoDmm3Ei6fP8vt3bu8cvU21to6SPGJdz3M+XM7fOs7zzMaTdBAEAihVCoAh4j9OJkRT6/bX2hH3/vulEenykhAojtZb1qhZTkJuJNqwsbKfvKRBWmhwQA1x5+1njjPztXn1aLtYNbLVs0Q+Kzgs7tmpW+AMlhHgWdj241gFaDDEBwBNsZQFhnGGCJdUY5HvLI7rN/t/gPIYjn1R94BD0oput0uSinyPEdryYrrJQCtNe12G6010+mU8nXWgV7o4h89qIaEsLa5w4XzF2TiNAoyj6wE0XledDw+5u7tO4AR3tOaU6vgK3ba5GgOeDmcJwZz956qshFoqlrmp1kTXBI5K/syP2QrbxZ2bPYV7+vvbB6eC220i9zVQOJywl338tUMSfgnmtBEUM1zcl5KYyoDLnFbpxUzSQuwM/nNqza0VsRRiFWKPBPXT+GkZ3ELuICqyhgC7dJJJzGtOCHLcpI4otvpknsjcS7rIkShW/UsjEApplPRi7LYHl7t9Drg62edd1aaZRhbce7MJu996gn+5DOf5/B4JCm8wxBrLRcvnuPc2XO89PKrFEVB6L2FXKcoGWRYt69wBmyAhbgCZaUMMmK91CV3BBa38pdG6YAoDgmigI4yBDZn/cIlXr1yk+loQuXiEJrz5J5xu9A+/rrnuEXQad4vDNUcOAnEjYb5aw6smzvNelrrxrSrr3VR9zqI6AzWwEIURhjg5PA2eToh0RXZ8JirB5PatVZApDvjs926z5wyfP9cgA8Wtc7t3FpbexP5c7nzJgpdAK5qqIxeDwR7/JhBxO+IVrfP5uYmoXapk10eIQIxlckEl1L6YZtNhty5c0tc5+y9lnE/MRb37wdz97tz1jeMdXv1nJH7/Bubc6c5IetvutatJ63cKPVyz8j+ovrAl8CL7XWJ5u6YAz/xrVPz+OdpcJweGm3iy9rcGmMIA8XKoE1ZWcpSeLusrMjzqo7absURyhriQOphlGKSlZTGoFVAu5UQhQGdboet7W12d/cwWteE3ZQVYJ0HjqVydgBjkPL7pSSQ6HNjKtI0IwwCqqok0AEWi3KTI3BIWCslShDtiK/D1N5QXFWGoqqwRtZ/fuKRC5zf2eFPPvt1srJimk5J4git4LGHH2BtfYNnnn0Zi3zDOybMIVsFyiqWlgZcvnyJl195lfFoNGtXJHXKA5cfoNfr0YoiwighiDSh1rI2Q5qSxCEozTTLsaYiDkOuv/Yi+yPLzvYG+3u7TCbpggG9UY7G2L8XZAzVcI8UuihRyLl7nmvArH5Sx+Z5aXt5j8FiVcBgdZNOt8ug22N/f5fDvdvkeUZHV4yOD7l+OJ37njy7aIhWWDPv6vrTDk3voCbkeU6e53XWhcXrvF3iDF4PlNKsrq+zurZBOpHsoRJoo4nikChJiJ2fbOCWJAQosjG7t6+j57gH9063fb3ha90M8FuZVHL3IpKWb3pELQh3vqlnz8llt537I6VRjfLdC4tXXA3caV8P/4576+X8xU+/ONcwbkrJXyt/ZOOkAmvJ8oxWEjLoxVzeXsGWst7t3smUa/sTcOm4tdLs9APedW6FKIi4fjjm7knKnVFOr90mCAOMW8ClrAzTPCPQEdZI9lFrK+I4ptfvs7G+SjqdcnIyJElirFUkcYw1YhvIsxytFMZUaBVQWUMQiBuyCpQLXPR1nbW5ndNhSx1Xex10oMiylCQJOX92mziM+exXniEvSw6Ph7SSkCcub/KRDz1JmlX86ReeJU0r52k0GyMerGvQ9fV1Hn/XY5QWvvH1r5GloqO11tLv9+kvDTg+PEK7FCBSUst0mlIVFZ1uGwOk4zEWGAzadELLYR7QarfpRJobN++i3TKRTVCnSAjWS3LKiS4WFPPrRDcHjX/H4rFymF0Yi5k9qNm2zXPWWiEAkgQYC0TdPltbG/w7/5t/h+Veh9/7nd/n03/8acajEb2w5OjwiFvH6VwZrLViM3Cp0OvzxmJR96Qj+WkEybsmCT19EKrEVM1SmEynU7RLQtkM2sy/jwjkAPgbiyd/PGBpdXpcOHeOXqfLoD+g2+8TRRHWWsq8YDqeMB6eMB4ek6VjTJVjyop8OnGDWt7TGMsyEfyAmZ1uIHpZB8EnuIsbv8j9fFqLIAgIAreUoP/Vx41lBt055T1OFmId6n23OLo//71+cq+oi2YList2/vd9vNPf71Q4/pwgUplscaRphZp2GHBpZ4WVQYtpbri2N0JpWZ6w25I1fduRZqXfYlqV7A0zqspSOKnOGktZFkynE4qyIgwitLIoK6qlTqfF0qBHv9sFayiLwq16JQjSVAWVcUnp9MxVWAc+UMu3k6B+H18g12drGWvlZSVxwxyOp1TGMuh0GAw6PHL5DGc3BqRFyZ29Y/KiJNCaTkvzsQ89ydrWBt9+5hXSrJLV3+7J5SQ/gCzP2Ds4oNvtsLK6xsH+bn29LEvGoxGlW+qyLEvJPVWUrh6KJIoF8VXCGMVxQCtUjHMIA0WnlXB0eDynLpBn56UVj5C9ZLi2uYmpKjqDJba2t+mvrHD+8oMoHbjEj6L2kzxeitAFbyq3KJJ/t9YNcc2BUsrFggjCVu4d1orHkHgNiavwxQd2+MWf+ziR1ty6dYvXrrxGNhnTDg3jNGVazBNa2c6rPJWSY6nfTzdop/NXLr4mTdPaCccHlJnG2tqlX/PD/ZoS5PeCt5AYQJy0WFldIwgCYVy0rE3Q7Xbp9vr0ej16vT6TyZgin/Lk2Q6T0TF56ZCa1qJaCoK5VatCt5JV8ycIPiAMZwjeD7oZp+cQeo1kZsi9/jUQryAF8f/2iNkTAq3ceacHFoTuo6LvRSQewTR/yiHu+t3f4yfP3Pvu037aGUjr9zqVSjuElW5MUVmW2zF3TyYcDSfsnqRufQJxaomDgCjSBEHEqLDcOJiSlVAYCSgMVYDgJ0u71WJ5eUCnnRAGkjak026TxBGdTtcFkUn6jTCKyPLciUGKshQEbCojSMkZm7XSqGAWee6jzvFtXrefJ5Yy5oRXsBR5yd7xCYdHI85vrfHoww/wjWde4c7eMcZYdKDQyvKuRy5glebbz17BogidlCq6/XvbFAtFnrO3t8ujjz5Cp93m6PCwTpSotUbRaPdG36MUSSzMUOU8qNpJSBgqJrklDCNaUcDJcAxW1GtSZ1+3eYnAusSHWMvK6ipFnpO02wz6XcIgYGt7i5OjA/Z2dzHIUqdhqOgmmtVBC60UaV6ys7GCtYaNjRU+/rGPELUS9vb2ZaEiYHWlz2/85r/CyuoyN27eZGNzh4uXLmNKQ5pOCMOIdrvN2bNnWF3qEmDZvXOb3bt3uXL1Glk6pR3BcJqRV8KwzfpQ+qwWi+fqacFJ7nNrEv0UQZIkBIG4H3tPoMWAMpz08HrG4TcCs5H0FkDl3AONMfU6tOLSKBMkDCOSOCaKAmxVsdJJ6LdCQfwuACkM5dhzSkEgBEJSMi8iwQVEWw82Pyk9kXGEwJ9vTlyX5tm/w18PXPbPoObi3bfq78wmvt/+ID+RVmbrD3iEoOv3yrv9Pfc803xXvS9lCwK4uN6SPElKQRAyyg23TgpGmaEyijiKWeq2iaKYMEqwOmKUgQ5irA6prBaPMWvQQUAYRURRjDGyZm+gBGG2WwlBEBEojSlLFJpO0iIKI9pxUhuN2y1JRRHHIUopwjgRJBy6PvKSWF3X+bo322W2eLwGt4bwNC84Oj5h7+CIqzd3iULodxMxmCrLC69c54tffQ5rLHEYyvhaIOzz35F9Uxm+8dWv8K6n3s329nZ93Y8XGmPKUyrlkjz6dOJBIMuUGqvpdlrsnNnk1u6BjEcUlanqstwX3MppRVlSVs7pQolxVzs1S16UrG8s8953P0y7HdFNQrZXu3RimXdlWaIVLPW6PPn4Izz5xENopdjY3mH7zBlarQ4PXX6A8+fOik0Fy+rSMkobzpzb4UMf/gDveuwS/8Zf+5d573vfQzY+ZnxyyHQ6wlSyjG0UBCgUgWPW/HzSjXEbNOaPVGPGiMmJuZr/VIDvW4/ofVyBcpJmnueEocwN3y4/KLzOKPrRQ2VmOk9xJ5SO9oE7yrk4B2FEZQ0llsQjgQbi88h7hsBlop/2qyekFsTuEapHqoHShG6CNRG8JMJz9/pjPbvXIwK5/15k1ETIzZ8/759frE99HOC4VYXW4t4oXK8irJHg7CdlaRAL/34l52dldgFUWrM1iMkqxbQKCMKY3WFGWSJpF5xqTWlNURrCMHJWU1mPWocBcRyRtGICrcQbxrWV1pp2OxHCHkesLi/TarXo9bqUZUEYBujAeeRosNq7GQvnZ53uGaUo3DgxhSFQgTAOTvJSjj2c9bFv40Y7alFphGFAHIX0um3Qmkmak0QRYRDR67U5t7XMhTPrPPrgRT7wnselT9VsLCjnEdXsy9n3JOvqcDTm83/2Zzz1nncTu1QVcRzT7XVZWVlme3uLS5cu8cijj/DEk4/z3g88zQc//AEuXb7E6uoSH/zg07z76Se5cPECO5sb7N6+S1kUzhoiuK+sSkGiPgdXPaM8WCFsRlRGuP6wLg26cefzNOOl164zmYj74XSaEgeKSAcoZJW8qswZjSYcHg1RSrG1uUEcSLvmRcloklIWBUEQMM1TJumUwWAJU5UkkebC2R167YiizLlx7TVuXr2Kdob/OJT4lVAHRIEsuFSP5UDWqBZ1rOAF38dK21p6UHNSw08XWOcd1MxBNJ1OF2/7oeAtJQZmwbBRVZVTAXgqJ0ghCMVgWBmItYZaZSOIvx4YC9z39/xp8WwJlPs19OiBeK/Xqp5ABwQusVhNIBqShkcMi2Xw1+vzc0h//v76F2jJf6NlsGuFfAuQ6nsJBXQgCFQ7UVkr0L7s/ntOX+7Lq5yrrqhPmu2lRRUTBKADae8oARVgZIVmcOlFtJL1lAOHLBRi3BLuLqTX6xEnEWEUCsFB1EeBkxastaSTCVVZkk4yMEgah8pSlYV4FFkhAFEYkMQi/bXb4ioXt2KUVkSRkygdx+65pGb7qwXiHGjF6lKLc1tLbK8POL+9wcOXHqDTboOWSREozc72Cg9cOMeFC2eJEiE8s368d4zN96smimJu377Dc889y/s+/H4+/MH38bGPfohPfPxDfPADT/PII4+wtrFGEGiGJ0OuvPwqn/sX/4IXnvkuRwf7fPkLX+C5L3+Ob33z2zz3woscHZ2gnWuYcvMD53Yp9QrEltaINbHuj3XCnnV1kxtFr2+Boqy4eGaLONCYoqTMMhJtsCanKitRRzh1W1GWxHGEqSxFURCEIaasKPJc+iaOMGVBgOgVJWK8YDwcs79/RDYdc3xywng0BLccaxQKQxFFLueTFtVvoBrEvJ6f83N+1h4/+eCNxR68zt+rvlUjoAwnOSjfj2/ASPx68NYSg8VMnEqRl6W4CjY6WQa5pTCWINQSBdqYmK//k4mpHGIMEG4+VPIej/zn7xVuZzaxPTK7FwH4n3blqVVFHvk6g6hW7rg+pwiUIHq/r5RBK4O2smCO8s/MITb3vVPK4M9rbYVj8hKUEq5KwhbEwDqHHH29A0UUaMJQ6t9utzBYtFbi7x9GBFrSg9uFgRhoIQ5R6JE9JFGMKSs0UJYVgQ6IoliMXc5dNQgClleXSNotWp0WFkMUx0SRRoXCEWJFnaEQLxKlFFVZobXbKoWywiEaY0S9oJTjItUMeSAG5qqqODqZYi1c2Fnm0qWzPPXUu4ijEI1iOJqye3BMqCJ6vb5zXUWM3+5dWklm0MBFJXvCO9cXOiAIIl599Qqf/cy/4DOf+zx//D99mn/6T/+Q3/+DP+TTf/w/8aXPfo7vfPObvPryy+zevct0kkr/K+GKwyQhiRMUPueWvBsnBWgrY9O75QbOk8Qjenzsg6JhVJeHtVMXKQyB0uRl6YMhmE5z9o9GJHHiaI4bL0pjXfxJHIeArJ5XVSW2KsAakjhEGQMY2lFEYC0YS1FWHA2H3L51F1MakihAKyOR2srKErZRRBQHxHFAHGqx8dVjVeaZELNT4CecIAQulYRH+jgJAMeAGRdl7CWCIAhqwuGNyj8M3KdVfzxgrVu9auG8jy5VTvTTjuMpKpB076cgwTmurHlNxsiMk7/32dnzavZzEoFHljVid4MxYHY+cCoKrQThNMuiA6+yEkTsf3Lsv9kIOFLOsOtUR6fVT2t3zyk/NXfNSQ6BkyJqAueJgpRDa02oRBIJxOVf9MtaURpBKGVVicKhJuCzXgu1pJ1WTqWThBEtN3jjOAYkD481ljiKSFoJSSsmTsSwGAQaYyzj4YQiL8FY8qygzHNsJesDl6UQzqo06EDTSmKUDohbiagRwhCt3aI4WjsJSbmlPr105IptDVWVc3v3iL3DlHbc4vadPYwVBOkNo8+8dJ2//zt/xG/99j8hzyUYTgisQ65aAsyUFhlWKYtWFo3bKkuoRM3miah3aIhDsYkE7hrMOHqrNBcfvEQYhtjKECnj8JwQI+7DCRtTopQlCCTthPxEAvB3K0cdVKMLFZYggDwrUVYTR5peS9JoWGPqkFClNVhFVRUEBMShMGpJ6JF6zqCd0I0DlKkYdNokcUAYQKQ1ZZ5jSnEhTadTqEqWOglhEJKEoTglBPLeKBJHEMkKOy/Z0ah/sx3ubZGfLPCEvOkKWlVVbTj2sQTtdptOp1NnKzVurY8fFt5SbyKlNJubW6KLbg5YZ1QOQ5EIyjLj+PiI7bUBLV1xd9RIAfAGfsKRzyPWxXuE85rtK6/aELZo7l4p5Pw5VatdGohCOTe7hZ8f0L6up/1oGI+EyCyUYfGdUqB73nHae+utqy+OMHcSRS8OOUwtgZbVkrQz6HtbiFeHeTuHtc50gEI5NU3SalG67KPGVPU3oGJ9bYXtzXXSLKUsfR01ZVUSOiOv1tq5+gqCD8OQMBJ9WBAGaB/RqgTpoUT/oTUYK3mAmu3lWFuH9kR1URQlZZkT6JBrN+/yla89w+3dQxSKoqxIooC8MBwcnJAX0h4+KNIzFKcxFl5CqO0LzrkhcnpvMYLKdZSUxzikK2BI4oB/+Td/ne9+97uEGKaFIa9khM4L0k30JxeMEZdUpRTGCLeoVUB/sERW5nTaHXq9LkWRsbK0wt7+Lnt3d1kd9FlZWmI6HdMOoN+JORqnGKPodBK6rYBev8/2zhbHx0dMhkPObK6TBCWhhkG3Qz45phUYeu2WuA/bkp31NeJAk4SKi+fOMD45xowOWG5H9OOAB7aWefLiOttrA9Z7LTaWWix3YgaJRJynhZEMsK7i1hnErTWNEMwZ/LDc8VsJkYsRKNyqfh48A7Zoo7IuLbVXGf2w8JYSA7RmfX2LOIrrUzJnHYLCEkYhRVFwcnTI2lKbpVhxe1ihtZMcFiajTFJBooF2KqWFa4v3yySW8yjHpTee889Ikeefl28pdNAwZNW/e79z/58zgLrnmnp/f49H9h7ZzJ6lfr6+1xGRRQIxd921k+f027Fm0Ao5nDYxjkR6KhQqsHS7XXZ2duh2Yk7GE8qqxFSGINBEccDHP/o0f/Vf/Qt881vPMZ7IugTGGIkXUPCR9z3JBz/0bp557iWmI0lFXRkJODSIFBIE2nmwBORFQRiGlM4XvyhK4jh2qi1FGAji186OpBcIQZPgObKAUhrjjK9Jq8XJyZST0RQdiJ5fxO+IMIzQWkTxUAcEgUhBYRCIjSnQBBpRkbm1uIPIBU2GYishkO+hxAdfbC8S9BVEmk6nxdraKsPhSFSESmOU2GquXX2NThyQl4q8klxPWiknIThu3eNDl7ZFKQnG1M6YXlWSEXWwtMQ0S+m0E/qDHkWWs7G+wf7BLpQpkQ6J4oB0OqEbWJSG0TgjDELWlztcWu8xznLy6TEbHcvOckIvNpxd6XB2rU1UDtnsaR7aWebSxoDLm10eu7DBZg/OLsds9WPSg9vY4QGtwBBhiAMLRU6eZhSZxJi0AkU/iVjqxJQGjiYFlTHi4eYimY0jCM2AM6m3tMdPKj0IHeNQVdU9AYVVJXab0q1J4F1Nf1h30ibIyHqLQGnNo+96ikG/73g2x7n5yesQY1VkvPbK81w6t85DKwFfuTIh8KkImvc6TsHPD5Da+Xs8LB4jc2nuQf+uJpz2HP67Lovq9wvWcTvtwRbKVGSTI5nkjRLURWt+3vdaswfddX//9+pY6wOTXNKwlZ7mbC/gmd0KhWTe9N4mx6MJaZrx9BMP88mf+xhf/Mo3efHlKxRl6ZCmJdSaC+e32djY4JvfeZ4qryjKnCzLCbSitIYPPPUuLp4/wz/5gz8hCMR11FqLMYgLsYXQEQNhEsReoLVXxbn6KSW1bOamUk6CWui7mqt0xEa+Z0izlE4roTJgTUUYCfLHivpHBoUY5ZUMsNomhBYCLvYVMX4GYUgYRFhrCNAk7Raj8YRWpw2mIkkSBt0OrTimMiXDaUY6SRmNhly/fpNBv0dVFfzmv/TLhHGHf/wP/wHLScC0gsFgwPXdE6pS+qtZL6mWRVtDEECsrUhZWlFWJXlR0ukvM55mrK6s0G5HpGnO9vYOw+N9unbMNBcvPq0sq13FoN8CA92O2CzarRilLK0kodeKwXkjFWWBrSrysqIoRF1RFJasMOSVLO4jK/fh8iJpVBQQRAkEAZ1OlyhpkXQ6JK0OKkywOuCF557hTz/3NXaPR2R5QVmUzj22cmpDQ2kqbCOjqTe2yrekad7O4PMG5S6XUORyDPmI4h+3lPNGcMaPDJRSPPjIk6yuLM0msBOdcZMQBUWecvPaa5zZ6PPEVosvvDqcc6WTJx2HvIAIqBHHbF84iMa5GpfMBtaM42q+c/494ouOSyDkdLFz75h9a7FjPTduraWsDPFgh0gryvG+POtaYUbsZl3VLL+8VlJqKCUTzr2gJgoC1onVvhzzk8iYkqVuwANLim/dFn/0ohIRvSotZVUwnGSc3dng53/uE/zZn32OyXgii8+gnChf8eADZ7lw/iKf+8JXAciKnHYS8q7L22gNUavHo5fO8Vv/6J9hzcyvnlracU1qpYxKCdLxiNhiiRxhMAgxEGLsaqVcxV23KKl6DbN+mPuQnGlITfX4MAYdaVZX19jcXMYYw/rGGUaTIdev3WJpZYWDg0OKPKcyleNgS7RLf13kBUoriqzAVOIlZVy7ygI4glCNMXzqkx/nicceYZLmbG2u8fkvfJHDa6/y8Y9+hJt7Q37301/wJXdFaxAFa9noWC6ttllf6rK61KHbTlBBwKQs2d8fg7KsrQzIcpEWwjCk045pJ6LC8nahvKwE8eaCzEvj1IEW8SmrpE/KylBUIvWJ00UAQUQQt4laCb3lNQYr6wxW19ncOcfy2jrdXp8gahNGIaCJkpggiDBhgCkN48mUa1de42//1/8lX/js50izjLxoEINSiEFVSYoTQfyzeWGt/YkgBnEcO3sadVSxamQgFffeN9d19HtBEzu8BaC49PBjbKyt3UMMlFK1savMMq5eeYlzWyu891yHz754gA6kIbUr/Rxyb+yfdnzPOWf8nF3zO75pRPUgreUvioVOKUlxIPd/78acISOJ+DVWJhwqJHLukWKMnD0z2198u0dei25l4jpY04UGApRzM0IgE0gm9FJH8/BKwFdvVlBVkpPfYedpljGeplw4u8P/4X/7v+Zv/pd/m+HJMYHWDLoxk+mUszvrtDp9ds6e4Y/+2Z8RhRGddotAG4qy5OL5Vd77+KP02gP+9t//fbK8khgFpbBWEYQaMIRKgVIoFWKs6NRrA72GMxe2ed/TT/Kt7zzL9Su3fe9IDX1jNfpCOelwjhDMUKrbLowJTxSMIW63MbYiLwpnf3Kr63mHBPeIxa9f7XTcSjyArJU/SSSOAWVZMU2FAJSmYpJOMaXh8cce5N/8a3+V/aNDNtbW+e2/+/epJvs89vDD3D6Y8qVvv1R70jT7z6UgZRBVbLYDtFZEWpFEIa0kpNNp0WontJOYTisWiQ9LWRjySoLRIMAaS6Uk3QcqBKUIwoggigmihFanS9TqELd6BHFM1Opw4dJD9AbLtDp9eoMluv0l4qRFVRnyvCAvMqaTMdk0ZTKdMBmNyPKMk8mEm3dusXv7Jsd372DGhzz38nVG4wnTLCcvZEGjvCgoS0NR5BSurJULoKuqam6tg58UYuAXm7Eud1DT+LsYXeyXeP1xgGCStwwU5x94iJ3t7VlBGpyZdgitKnKuXnmJ1V6bn3vXJp957g7oeI6jb26bcD8i0dybf8q5YTTvtxrlqU4DBKXc+02Qi7MnBPHLGdHpegRuLVSVBSVGRocHHQ527iXNrzQkFbsg4fhzrw/u2XryOO7fGJY6msfWIr50Q3zEy6oiCBTryz2wligKiFtt/uXf+Av83h/+KVev3sSYigCLtRWf/OjjxL1l1rd2+K/+1n9PEEicQaA1ZZHy7ned5y//S58inVb8zf/mHzKe5M4NVGIrxO6geerxR+n3O3zlG89xeDRy3WHBubleeOg8P/NzH+Of/OM/IB1ltUvcPDJH/OK9ZLbQ57Oj+6v3Ap+a233fKou2QmhnlEauhSF0221CHbB/fELlcgsZI/rfosz4q//Sz7C9vc3u3j6/80dfZDTJqMqSaZ5jDfzapz7GyWjMg5ce4MIDl/lb//X/h3ZUMZmWmLDHOPOePVJXGSfKrakALa3ohuIenIQBS4M+Z7bPoKKA0pbYssQUmXgIWegNBgS9PmHcYnlti5W1bfpLS/SXlml1eygdEcYJcZwQRBFJq0MUyXokeZZycnLA4f4uB4dH7N69y+jokPF4yGQyoUhlPd4sy5lMp6TphMk0FVdJa7GVIUtzokhjMCRUXDsQG1NZlJSV5NjJy5KyqChK0ZeXVYWpKsqycsyU2A78eDZGiMHbFbxEoFyuodO8gBYJwptlIP5eoDwOfmtAsXPuPOfPyZoGuEFu3NYTA1sWXL36Mt045Bef3OELL+9TIW53gitnzza3HuTQXWMOtYoqoZ7YbsfpF/xKSyhFr9OtF1W5V5KY/14TLBarvAeEJwaC2GpOxliSTo9WEpNOJo6TlW+LIVCkJKcMWkBs7jvfiwi4h2b3iTeCpHUWLmvQVTy+HvGFGyXaSIR4UVVkaSa6X1vyl37to/zqr/4KX/zqd/ndP/yMuAgqTZ5nPHhhjV//lZ/l0kOP8O/9h/85WZYTRglaK9pRyKAX8au/+hE2BgP+q9/6A8bTQogBARUVgQuee/dTj/H+9z/Fb//3v082zVxtLb22xEI8/MglfuGXPsnf/Tv/kLt3TmqjfpM4ynZm+P/e0CAKvo2sRWvLUr9FHCUEWnMymgoiQmIejK2oTMUjl3f4t/6Nv4gOI/7uP/hDvv3dlzDO8GeMobIlP/+hh3j8kUvsH6X8wae/yjQtKCtDWVSUVQ5VRRSH/MwnPsbFS5f47b/z37G51GZ/OCW3LVQQyfitHQEsKkBiAJSP+g4JA00cara2Nvn4z/w8jzz+FMtr6/QHK6STCX/vt/5f/LW//u/S63Wx1lKZkjLPxCBZlEzTCZPJhOlkzNHeXQ4P97l79w43r1/j4OCAyWgo6i/f1n40WovMXm/I9SNVU5qCwJT02hEnk4JzSyVBoLl+pJhkFVWZc2NvQmkklXlpJA2GqIZEshT1kBDXqvQqMkXlUqqL183bN5Optwng4ge8R1B6SnrpRYLw45AQZJa9ZaBY39rh8qXLc8TAB5xp98eUBdeuvEIcwq8+fY4vPn8bG3YwlYjjs0HpauM8KeSkc0NFkLxSEsSEMmDFywNnsBX+4l6wwM//3Ef5zjMvcrx/2Dg7K7NS8vzM4uFxinur8yQRKqOxVV4HU4VxyONPvoflpQFf+eKXwVRCDNxi6jqU6OesaHKxM+5UOVQmShbchPRtMCtnc9Eqg+OorBj4qqpk0Al592bEZ68XBEYCWSpjyIucqioBy6//wvv55U/9DF/85ov8k9//M7CgghBjKpZ6Ib/+8x/AhhG//Y//lLKoqKyl1UrotmNsVXJue5l+t8u3X7pNVUnAGCjCSNOKQjbXBjz44DnW1tf5x7/3zyky0aUGGs5vdWh3Qt77/vdx4ZHH+Z1/9Hu8+PJtQi1uruAJv3h4LRKCxeMZyDjyPwHLSj9i0GvxV3/z54jbPVqR5u/9zmd54aVr7l0Slb3ai9jaGPDEY5coK/jat17h1q44AmiluHhmjZWlNv1eTJbnVIXixat32T0YkxcOuRlhMuI45PKli2zvbPPlL32JsysdDoZTSptwUoDGivGamWRQt2HoI+TFBTYMNXEcSzBXK2Z1dZXB0hqH+7ucu3gRi6IqC/IiZTqeMh6NGY0npOmUohAiBoCyYgsBxzyI6tFaz6JIG4r9RgLYAzfn4ihimhe044wnNwqSsOIoDVnraHLV5dWDgFuHEw6PjrmxO6Fy602UXiXk1EGeGBifobPyfaUoG333dlURaa1ptVporckyYSo7nU6N7E/j/j1BqKrqVILxZsNb61qqIG61WFlZdwPaTdgmcpc5x/DkEIzh4TMD7hyOKIwmCiWtQeN1gmvrnQbydG6g7XaHosyE+Dju21pRx+hAFisHwZwK4f4qa7iws87+4bFwwhgXmCSDMWklhEks7o9BAMbS6XZJ4pi8yBucJpy79ABPvOf9XHn1xdrwbCtLZ2mZUAfcvnMLYyToxFowtuTpJx5ibWWZO3tHEuKPq6wIMGgtPvdGW0JHQLzdwf8k0nkWDLWytkErCjBFSRiAwRAFcGYQc/XY1LYYnGuoQtFutzk8OubK1as899IrjEY5lYsIjqKQQEMxnXL9+m2OjocoHdBtx3Q7MUmg2F5L+Eu/+kF+85c/wp994bukqeTVMdayNOiyudqn22vz4KWzvP/pJ/jyN55lMpGAG2Mqjodj+r2Ep979OJcuXOCVl17k+s19SYnhxoxnDlQjSrUm1r7N5NYaBMGJh5E8D0vdgDNrAz7+oSf41nMv8eprV7lzd5dbtw8xpSz+EwUKbQ07qx22t1ZIQkWZFiRhSJbnbCx3ORlPeeDMKt12xM72Go9evsS73/UwV2/eoSxS+p2EfjfmZJRigXNbGxwNj7l+/RaDTpdOaEjCiINpRWlwqkPRQVorDEG9sLyVOAuvmiqrirLIKPOcdDLl4GCX44O7pOMJt25e5db1K9y5fZ3dW7c5PDxkNB6RTlPyQgy0/j1V6dak8AbcUt5dVO64yClK8Vpa6YYsJxBqSzcRh4C0rGgHhgtrHQjbBPEAlawQXv4UZx58ktwqbrz2CofD1JXbUJWiuqyqitKlMTfGiPG94XXpbQbyE0P32w18oJhH6IVb59sYU8cWBEFwj5uoJ3ynqZJ+FDCbMW8FWGqO81RwxlnhgiRKVRY1kWIXLilWk+Pz/tfCqTjuwVhMVdFbGvBX/uJv1APLWhcBbS2bW2v84s9/lCDQYgQ0FVUpwR+mLNm7s0c2SYWLLqWTvArgiSee5PyZbR64eI7LD13m3LltHnzoQd73nsfFU8YhKWMM+XhMNh7P9ODWYGzFyfCY0WRSIy4JOZCyD5b6hJG49qEloE37fERaJA2lIKojjMUHXtJ1S2562QaSA0bB8sYa62tLogpyOmSLQrlV5rx05VOEtzptWq2YzbUlfu1TH+ZnP/QeIb7WEkewsT5gba3Hv/IbP8u/8a//BZQWL6MsE51vqxXS7bY4GubcPkwxDc7dGsPe3hE37hyyv3sIZU5ZQeyCDq0VH30xShru3rzNs9/+Jnfu7tfIX/pe7DHz46Gxf+owc8q3JoWwlihQrC732FxbRVnF5QvnuPzARZ5+8gEunlsm1JY4gOW+eMYEWvPwpYucP3+GIAyYTHMmaUmgNC9f3eUb373Gtat7fO0bL/D3fvdPuHL1NsNRxu7BhLv7Y4JA4heORkPG45SqKtk/OeHq/pgrh1OmhWNArFvYpUHAPNIQDroidznty2LKuk65kJScbxvOJoplXXG2W9GnoG0rOlXJSpixGU9ZVxlZlpJlYtTMMvnlToUkbqON40zuz52nT14VtMKMnRXL05f7/ML7dji/0UZpiNsR6+fOcvHBC/RXBgwLw+ToGq++doUXvvUNMRi7spdlQdkgaMbPNacJwKlYfV+d2q1vE4jjuFb3BEEwh9i9x5BdSELXhGoh3uBHCW8pMVBKuWR1/oxH5I4QNO7TWlNZS+kmqnXnqzp1hcIqH9QjXLtwEqJ7rIqS0eERn/niV0WZ49z6rJFcNZgCM52S5XntESILq5SAoR8F/NqH3ksSBCicCG0txpRsrC2RxAEPXTzP+OiInTObKG04d/4MK70O/XYk91pLZSo211bo9TsEDW79+GCf0iX3CuusoxLGv7mxzJmdVbS2xKFmqRsRhwFxFNBtRbTbIdotPYmCMAzoJKEQjUDRSgLaiWZtEDLoBFgMRVE6Tx6ZUMqKZ1agFEpJnIFSijDUrK4tcWFnmScf3ODM+oDVlTVWVlYkdQWSfnjQTWgnES/fPGCUmTq0XmvNNCu4dfsIBSwtL7G+vkmoNVqLKswCpTEcnozBVugyY+/6K1hTYKnE4G4V42nO9VvH/N7/+Hn+29/6XV566YZjDLwkoIiixGXxOR3mCYJFSK6iNIbKEeayMuSFYZTmJElAEkSsrQxYWupy8/pdDo9HjKYpGthYXeI7L93kc19+gb/923/If/f3/4gvfuN5JpMp+wcnnIxzbt49Zv9kzOe+9hKf/uJzfPPZaxwMCyaZrDdQVBW4HFbD4Zgqz8jTlLIsSKIIiywoY51u3Bv9jbWiVnHeRJ6Lr4qSoiyI0invscd8sDPkrz4S8tceT3hiUNKyBU+sx/zq5Ta/+mCb/8V71vi1cxE/syk+72VZUDjVoPyqer8sRVVTM1NOQjbGuNQZloCSdgRJHBOEmktn1+l3OsRRwupyn04SEpLzxFbOz1zSRCYlywoxEhczT6HKxb/4wEX5zaQgaxVVbXu71337rYYwDOvcQUVR1BJCE3ykPg0J4q2C+8+aHwMIZy6dKeqMBofmKL51CM4bW8oKklAmvh+MZSP9dfPdgnwFqZemojIFrSBga6nPahJjrAxsjGX39gFHt+/wvkvbLMcBW62Qyoq6JkShDawt9Vgd9EQ1A5LgS2uuXLlKr9vj4OiIG9dvcvPGba689CI6CHlgs89GJyIMZDLneUYYQBzIylAKhTWG5eVloiR2roqS0yZ0OXZkoRNJvRCHiqWO5vxmwsYgotOSvEKdVsD2IODcasRTD3T42afP8skPXCTWinOrEY+e7fKvfvJR/tqvP0W/LflMxHtJ9MxayzoDaC0mFS+hBCF5Ydg9nHDz9gHtdgtrpT+CMEQpy3CY8sKL11lqxzx8foudrTVa7bZL8CYTVAcBnVbMeJzy2mtXSHOZAOJJJMTeWjg8nvDZLz/PH/zxF7i7eyTjQmvCSBYvGk0zckIyExLGPcIgQZRlM4JAbWBtcPv3AWstl85v8/Mf/wDbm2sOyYj/+jMvXOO//P/+Ds88/yqf/tMv8ff+waf51vNX2N0bkucVuycTvvPSDbSWTJPDaUGJZpJJ+ohxXromDakqzbS0iD+Qn3YKY6GyliiAR8+v8xsfezf/1m98go89dZlHzm0SS1aGeaij0CW9hbKOEFSynGiR5+RZTpmlFMaSpRnH45xpYTmepIwzQ2kVZWVIopC9Ycm00ORlQOGQf1PamP8ZytJx7aUwWnkuq7WVRQkEtJIWnU6HpbUBFkOlAFtRFRV5YRmdpOzuTTg6nnDtxh3SbEKR5xROEiicGqosZgZjIT7SXwIyn5rwdiIFTcQuEpUY3JuGYQ+FS0ftJQQff/DjhrfUZqCUpDte29gkDCQXjlLCqfnGkkh+y2Q8JMtSLm71sUXOUTbLN4QMDRfB6jgFx/XXhMaCrUrSyYiHzqxxcaXHC7f35bw1lMawFkI3jFmKAiwVe2Ox4A96fS6fP8ONmze4sbvnjGnCGa1vLdMOFYcHu7z62nVMVaJMSVVmbK1v8OKLr3Fj/5CirCToy1oG3S57e3viZuc4vf7KBp1ul/HxPrGWNQq8h8vFi2dRgebq1eu044DNfsSvfvRBPvyei4zGKVdvHVGVJZv9gDDUPHV5k/c8cZluK+Krz1yjsorHzq3S60S8euuIF67u0+qt0E8idvcPUG6NWaXh/FrCqwc5GllP1aLIi5zRaEgUaJ5+5CyPPHSWg5Mp33n+mgT+uInaSmJWBn129w/5+rdfoChFwhB1FpwMU27fusuXvv4sx8MUXQfJzSS9rKi4fThimlbkpSWKZXEc7WwASmmSVocwiAlcTivRavnrOGhiUI8m5s8JXrEcHJ3w6tXrDIfj+tYsr4hCcfe1xrB/MuHOwTFaBfS6XSZZQRBGQqR1QF5aispSNeojjIxkeEXrmR3DlRnlgvWMYWelyyMXtzi73qcdh1zeXqcVR1zf3WdSQFFKwZTyUoKTfP14r39iyAVLh5KH+iEY6C91IQi4fpRzVCjW+7KectKK2XrwEVYeuIQeLPFn376CdWuDW6eak3UP5u0q8m1/n5cSDCvdkH47pt9vszQY8KVnbnE4rvjGM1f56gu3sFnGl757i+dujvjWC3f48jPXUTbnaDRlOBWpzLrYG+NsBVWt0pU2qDVEjZ4VC9/bA4IgmCME3hPIGFmlz+cYqhbyDxkjErWXFH7c8JYTAx1o1tc3icIZMfDcnfYcuILpZEw6nXBua0BkK/Ym8+6dYMXnPQxlhBgZKpLHxKBMhdIBvcEyQZFisVzdO8K6COCNtWUuXrpAnk4YTlL2pylpWYFVvPe97+Jnf+kX+eef/RLTdFqPQIXlYx96jI2VZb713ZcoC1kRqigKHnzwPB94/1O88toVjk/GwgtaWF5d4q/8a3+F/cND7t6+DY4YDVbWWB4scXywD9agTSUoxcLF81ukac61qzcJlUbZiiTSWGt47eYxN3bHtCJNSyvaAUwnGa9d3+P6zV2u3T5GWUOWlSgLV27e5dbBhKTTpRWFHB4c18hDKSEGr+3nRIGsJmetZTKZUFYVeV5xe3/M869c51vPvsZ4UqCVrIWMgnSacu3Gdb777CuMxhkgazAorbCVYTTN2D+eYgjQQUjSahPEMdYt7xcGIUESs7y0BGFE3O0SR4nLVBoSxQlJq9XII+UIAaACIbTzXLSqCersmBqNqFoVKe3sx572C9iogKw0pIUhN4ogjLGEjNNCqBvex90xMIGsBRHGCZ1+j/7KGqsb62yfOc/2uXNsnTnLytoaJ4dHzlYlhuDKVIyzlCxNefHKHdLxIV947gpff/kavXbMODeUlWd8rOOQpDbaZ/H0Nax16oaOzXhqs0USh7R7beI44qXdIcdVxHq3QytUEGhWNjYIWx2Oj8b82bdfBWfUt0YcK6yV9rF1XWeEyJjZNYCjtOTK3TFffuEOX33hNlfuDAl0yP7hiLyoOBoVHI0LqhKyQrzVYmU4HAoxsE6iFyIg7xdC47/hoqFdz8r9MwLxdgDvJeQJgQeP8D1BUC7SuHndM4hvBbzlxCDQmrWNLeIwEuSucFsn6sudpOmYyWTMufU+ia7YHc4bCt1tYCyBS+tq6zVgIS8LHn7kYf7Kv/avc/XqVZ69couysqR5ibGGp598lF/81U/xpW88y7X9QwojnDK2YnNzlfd+8EN84xtfZzqezpAHcPbsBoN+n1dfu+kGqZRra3uds+fOcO3adYbHkgpAKVkP+PEnHufO7dvcuXkT5fTAYRDSarWZDI8JMVzohyiXqG51bYCyhus37hAG0GtFHI9T7u6N2T0YM5oUaAWrvZDSWkaTnJu7hxyNM9ohZEXFNM3ZPz5hOs3lW4GlzKaMpqmjm+Kzfm61xbX9jDiUFNGV8x7JsoIkDpydQTMeT0lzSUOgwoD1zVX2j0bkhcEqxXKnR3+ly+rqgCAMKC088MAZtIqJO12CJEGF4mqpnDVcK03oInpNVYFzeVU+KZ/758eOUkIAJBZDvGzmR4TnJL2RWe4T1C0Dpt7z401LHQO3qhs6xGqNVQEWjQpC4qRFv7/E+tYWDz30II8//R6eev8H+cBHP8b7PvRh3vXU4zzw8GNsbm0Td7oUZcnR4SEHB/u8/0MfppV0uH37liuLIN52JD+l4O7xFIKQSWboxEIMCsdE+jr7ehlvu3LnjLXOKcHQVyXvP7/EUq9DCShtuHKYMjIR690uy+2Q8cmI/eu3uf3iyzz/wmscRwkXz25xa+9QCBUlkRbnDQsYA1ZVzuwu7FrgNIwVFqUCjDXkFVgCyqok0DCeZrI+QRCQlaIKcpUg0oa94ymTvBQVnZc+qlk9mxKkdQ6tngA1NQlvNWit6+ji09JJeILgvYj4MRuJXw/eUmIAog9eW9+gFcUyLf2fOWIAeTplMhqxsz5gKVbcOC7m3AcdFQHc6kuBqIxExJSVnFbXVvj5T32KO3du89qVq1hrKJwb5/kzm7z36XfzjW89w2Q4lvlmxdNlZaXPI48+xne+9W0m45HjPmUgXji/xebaOi+9eoMoEB251op+v8eHnn6S5194mcOjYymileRh3Tjk+tVrjIajmqhgK1CCoG1lCAMYtET9sHtrj707eyy1QpZbIQpDpBRVbhi0NatLCe1Is9wKWF8S75Zuq8XZ1T7vvrTOha0BG0sduq0WS70W59b6XFjrc3mzw6X1NueWY4wpOMkqLqzGXD8sCMMYFUgEbRBIniLJIxOwvr3B8cmQJIlZWu851zhJOb2ztc5oUrJxfoe9vSGTaUGVW0IdMhoXoiNveGMFVjyifJZYjXDLCudJVucsctdV7UYlgoHWgtCVSB9o4SQ9WEe44yTmkcce4tF3PYoxkE6nsvRlktDrdlheHrC+scbOzibbO9ucO3uGy5cf4JFHH+LdT76LD7z3Kd77vqd58t1P8NAjj3Lu4jlWVrqUwJ27uzz/zLN86XOf53Of+Qxf/vwX+NaXv8gLz3yba6++wt6tGwyP9hmfHLO7t8sHPvwRXnrhOUxVyeJBKOJQM0ot49xwnFpOJiUGTb8VMsoqKtNAdg2biA5FbSQ2H+dZY0o5V+VEpiI3sDfKub4/Ym9ccnM8ZTickE6nDIcjvntljxfvHPPi4YSw02WwvMz1W7tYLJ0EPvnBx3j19iFFWToOXfpIO+HMWMOgI+tKWOfqWhnLUq9NludopSgLy3KvhTHCgJ1didBaMykqIQaHY4ZTyd0k6t0GsrcKgxjL3bRc6GM84njLQWtRr74el++JnZcQyjdhYZo3A94yYjCb3Iq1jQ1asVvqTdHgBGeQ5ymjk2O21vustwOuHqS1/dsHaHmQXDWSxtc4nTbW0Oq0+cTPfILp5Jhnn3kRYwxaycLiZ7bWeO97nuDFF15idDImChVbg4RxltHrJDx06RIvPPciZZHRiQKH2DU7a0u04hZXr98kDkNRSwFL/S4PXX6AV169zsGhEAMFxFHAxtoyRwcHTNKMoOZuxebRDiwrnRargzZREJAWJauDhLXlDo+cWeXc5oDt1S47Kx12Nvo8dH6dh8+tcn5jifWVHr1ei9WlPqtLPTrtmKLSEqGqFUkUEScJoQ4xxjLNKtLSOlVIxck059xqm1snBWcvXGQ6ntJuRRQWojCmncQoHTGdZBg0YdCiKC2RFg+eqjRMpwWBDpgMp7JqmlvqUpbyFF0pznCs8GsCuPHgCIIsTuNUhcpdd3yh0mJwD8OAySQlicWnP45CWR0Oi1UyAmbIxHDx0jk+9LGfYaXb4pf/wq/znqee4IMf+BDv+8gHeOrpp3no0XexubNDp9NimhXc2d3j5s1bXL12hVdfeZVnn3uJb33nGb71zW/z7W99g+e++11efvFlbl67xtHeHvl0TADEcUirlZAkCXEUuaVLZcEhC+R5wUc++hFeeuF5cqdCUApKA6VVshoRoqJSWrHUjhjmJVXVkGDczDBG1ob2dgdrxVVaOfVoXsFrJxk3MsWwvcYrh2N2C83YxhxOMm4PM07yghMVcitXpDokcmXf3T8RlYY1rC+1uHL3RNKmSMu67/vgxYpOElNUJXlROTfgiuV+l/E0JdCa1BlRUaIrlwR+mqwyhKpi92BM5qKKpc983yFBZQvnm2B5+3gSKaXmspGeBtolCfT73kD+VsNbRgxwDae1ZnV1g1arXRN3Tyj8PkpRFhknR4dsrvXZ6EVc2x+DEm+W+jmcodhLBMYShAHtSMRVhWH7zDp37+zxystXsNbSikLKqmRlZYUHL5zhhedfZnRyQqACWlFMnhfEUcjOmR1ee+01ijxjc2WZVgChhrXVZVb6HW7cukMvCui2QrTSJElML4nY2z1geHLCUiuiHUWYqkBVBb12wGMbERfWeix3W1za6LG9FPHRx8/x/kfO8MDOMpfOLfPkwxs8eG6N85sDlrotWklIEGoKG5AWluNRwf5JzskkZ5pWpLl1ft+GshJuyqBkubMgpLQBNggJ4oQwaRG1e2SVYpwZhpOUi2sx148qjoc5URRjCbCVLGuplFuC1AX8JUmCNZJNVLsFiZr96vvQo3Lldn3/St82rjpW099XViVaKYq8JAoDsR2oAOXSTCdxiLWy3CbKYpXCKJcUyiEHEcsrytIShCEry0usbW3xu//0n/HpT/8pf/yHf8Sf/fE/44uf/Qzf+frXeemFV7h98zajk2PSyZSyyKmqCmsqNIZIS/xDHMbEcSRLfUYuB1MY0Gp1SDpt2q0WSbdPEMdsrW+xc26HVm/A8PCID3/iY0yGI/b397Fu3Wjt1qOQrRibVaAYJAGjrHSZQwUZK5RTO8raDx6sFTflyilwSmspUdjWABN0GaUVqTE8/NQHODnaJ7dQASepkah4NEmrRbeVcHf/iFCHRAG0Q8Wdk6nrL9euVlQbigptNWGoyIuCqnJ2C6UIwgBjKkKtyHLJ5Bo4CWZjqU27nXA0yQgw3D0YkxaSkhrvLsrM4uPrXquLGrj/bUIHwJUzDN263M71vQlaa9rtNsqlT3mHGMyBYmVtXRYjd1jdIworlwEJTjs+3Gdzpcf2IObq7hirA+ELPOGo32mE40aMc91WSFUUBEHI4w8/yOhoyPVr19FYeu2ErMjRpkJnKTdv7TpXTugkmjyvaMcR/UGfg727hBaoCvrtEFPBdDSiTEdsdzVhABc2OiRBhKlKDvfvsDVo8eD2Ck9e2uDJBza4eGaNM2sdNpfarK/22VzpcX69z1K/w3K/Q1UJdz3NciaTlOFJyslJyskw5XicM5yWTLKKojQYqyTgTAey8EmgKVWADVsQdwi6y3TXtlm/+Cg7D72Hh5/+GE994pd46hO/wlMf/SXe/bFf4ulP/DKjKdy4uyuZRVfbXD/MqWwAShEG4tKplKhjtA6I4og4Eu6ncnEe0kcOQdREoIH4XQoFnCpIzfRjdb/JNHd/LHUAXBgG4u5ar40tOav8BMqKnCgKmIynkt7ae6Q5jjHPC9IsRSvNaJzx9a99k+e+9Q3yLCcIAsmnH7ckj1IokkwYBIQuUC8MZcEaHQb0l5Zod9qcPX+B4+NjHn3X42yd3eZklEn7RCFxEINTmeRpzslwxN07uxwfHrG8vMxHf+YTfPijH2aa5Vy/cmVGEF0qb8FtIhH1kohR6qKPG+1qnVHVe/qIraCRv8qp90SH3UaHIZPxGLCcPbfN9WvXwbgV1LQWzyBraSUxnW6b3bv7KKVotyKW2yG3j1Knz6+cRlNsL8bIMp+9bksCMq23IziHDiyhDthcW2Z10GH/cIgCui1NVlb02m1UVXJrb0hWOluBMxD7XxMkBYb07mnXf5yglKRgj2NRn+L6xTgjsVcDWWezitxi99rZNJVjmopCMti+1eCm3VsHOtBcfugx1tfWZ0hBKYd8hFkESLMxr774LI9fOsN7L/b5zHdvU6qofs9MeBZPCusmR1bkJIEgoDCK+PiH30eWFXz1G9+lqgztOGSSTWknET/73se4dnOf4+EQhWKrF9IKQ24fT7h4dpNzWz32DiYMJxkXt1fZP5lQlRWDXszyUpskCWnFkejzK4OxslB4ZSrSQlwly7KkNJIRE7eustKOm1ZiwESLpxBYMA5JBAEqjNFRglWh+PjHLZJ2l+7SCiura+ycv8jKzgXWN88QhS2ZvFY47DzPKYscU1ZM84LpdMzJcMzNazf49O//Lrevv0CRZXzsco8vvjLkJIOiEOkgCGbt7BGXBcqG77QxhjTLGgR5BtadVLaZGHCWYntGEKQPjSMUthIjvikNURiSlwVJGGMcRxW49CHaBSQKL6nq98jIFjdFpajjKsT42Cxp0wtJgr8k3sOAUTz53geYTCuOjlKyNOfw6ARbFrTbHTGQ+khp933RFM5sFx5BaK34pV/9ZT780Y8w6HX5/Be/xP/4T36XqqpQSmIxlHbZQeOEW7eusZEYdoe5RCA3JC3/bu3UZkkUMMlyMa6WBmtk3BljWFpZJ04SRkdHGFPwwY9/nK995Usol+hRVHcWYxUrK322Ntf4zjMvgVWsDNo8ut3lK68eALKyHIgtzU0xKlNyZn2Jk/GEaQnL3Ta2zDme5rSCgJV+wsPnVtg9nnB7/4SttSV2j4akWcmls9u8dvUqX/juDUaZ6Nir+7D61mUpfTvAafECOIYoTVMCt1j94nV/T57ndcTxZDJ5hxgI0ocLlx5ha2vLuZE6tNAgBtYtcPPy89/lkQubfPChVf7Fd25S2EhKX9sXZAK2YtjpS9723EUtjiY5lYUHzm8RqYDxyQnaGjYGbfLKsH88ZqnfYXutxbn1PkEQglVUxjItZIGSJI5lucNQY60snG6ckdlYFx1pREz3fWsakw0diNG7oUM2ldOJRxFB0mGwtMbyxjbLq2ssrayTdDoEOiJudej0l2h3e7Q7HVrtDuhQcr7nOeMs4/Bgjzs3rnF0fMjR7i6j0ZDCpQ4Yj8cMhydMhidkkzFFLpwyIN5CaUpRlvzsQ8t89dqQSZVIioE8Rzu9vwpEEjPGUJWSJiCKIsIwJM0yjEtU5lGy60i3M3e2NvFYp+6gMRiV4wwb+JkaweNUSYr6ndaKNdOWlfueqLOEIxNkrBwR839n8ogURNz3hdvG+PsrlnsRTz1+jnY34WvfucXxMBeVisvJ1FSNzb7n1Rru7U6HfvGB83zyFz/F0qDP3t4uzz33HK1IbBRVKWsyi2OUIitKXn31ZVbjilvHKWnup6lGKU9onEHVjUEpv3XjUiK3jYHl1XWiKGB4dERpSn71Fz7B57/8NbI8xxjQLgrcoum0I5YGPcbDE8rCsNwJ2FlpM8oNt3fH5JVhcxAwzgytICAKFO1EU+kAXUnOnZV+gikt1lTEQUBRFSSdNslSj+s3jxilisPRFJRhZTDgzp1bfO35O0zyUtxKkTbwNfYteR8a8WOHZvbRymU48HYAPyZ84rmmG6mp8zvJ/e12u85I+nYAP//eMtBac+7ig+xs7ziVsSDORWJQFQUvPf8tHjizwcce2+Jz37lObgI3qX01hFVpR5aPPbJJO0kIFIyyjDv7I44nOe1Wi7PrCY+eHdBptwiDNjoIxP2yqJimGUVZory+0mU61YJ2ACmjUoKUam7USnktYHUoUaYqxAYBQRSgI1FDLK+ukQzWWFrf4fzFy1x+6FFanQ7aIS+QPEqVKcUro7Jk6ZTpZMxoOOT23V1eeOlZbrz2MneuX2M0PMKUpSwIE4h6RAiUQxLOW0VZS6BBKYOyGYOkoBMHpAVcv5sxLSrKCj56acC3rx6TRwMMSghCJoawmsP3BHth5Mwx26dAk0uaPSv5lvy5meQwPziVFpWRUuJtQqBIp1M6rTZ5nhPFsUgSoVNCzZWtyXX58dIEw2QypdVKUErSLWsj+vePvGeLJ594km6vzT/9469x7dYxc4H7TrftcHhNyKyVkWmd3aKqKj704ffxsY9+mOefe57Pf/6L5GnKhQvnubu3z7H3OAs0vd6y2Df6Pcqj61zdGzF1jilKidRYEy6lsFZSuijAWskzZWxFpxMzGucMllfQyjIdTaiqgvbSKqrKyLOUTr9POp2w3A45u9zhmat3WRn06GrNwfCY1U5ENwm5dGaZl26d0IsCtlZalLaipcRwloQRV/eH7PRDdo9HpJUi1CHffvkmpYWz6z3OnT1Lf6nHcy/fYm9UMM1LwkDR7/U43LvDV1+4w7gQrxoZt66P/PR6u1ACoNfroU6JI1BKkjkGgcTeTCaT1y23ZyDeLvCWEgPhvjRnL1zizJkzBMwSpM2piRRUZclLz3+bs5sr/NyTZ/nid68yKQM3r2dBOAqZoBfWYs5vDFhb6tFtRSRxhEZhqxKLBHtkhXAi3lgnsaKC5AXRO68UwLhjwkCkgiAm6fTpdpforqyysrpJp98XET9p0Rss0eot0+316fX7tNpdcbFznEGaTjk6PGRv7y6H+3scD48pJmPS6ZQ8Lzg5OuTg4C7Hh/tk06n43btKGpQk33PphB1WkI70HKl3w3NIKcsywsDSii2/8sguTz44QOmYMC751ksl/+BzJdNC8Z7zfV68dsKxbRPHCSgtKQLcOq2LCF8pZ7BlhmNrRN+4tAjSstTDTwjF/N3GRWRKwIfrXzWbRM7WCJ5IeIxoxN/9dJgVzqvirBUkimuvykgqhCiAj73nDO9/6iHObO/wd/7gK7z82q54OjWKal355dNCDTz37mqHsZZBv8O5szvcuXOXw4ND0ff77xqwVrG+vsJjjzxCVlZYW3B87XlevjNkkoskYq1IU0kYkJeyPKl1BFIr4QKqqsJiCRSURtFZWiJWhnQ8Jc0LllZXwZTkWcraoIfNpvRaEZv9iHFW0G0nvHh9j4fP9AjQdBNFFEJlFKNpQRIYDk+mHE8NQaQ4t73Kzb0JZVHw7LUD1laWOLMS890rB4SB4uJGl/PnzzHod/jWs1cZOmeFMIpYWR5w+9ZNvvnyHUaZlLseSL5930YI069SVlUVk8lk8TLapar2BCFNJRPrTwLcOwN/TKCUckGciq0zFzl37hwhzofcIwevDlAShPTyC99mY2XAp546x9efu8ZxKYFZSiuUkuUTQ7diVqcd83Mf/QixLqFMCchQZUZ6PCIvStABVT2nrbgzunw7WicQhBBGJJ0+K5tnuPjQu1jdOsv2xQdZXloi1o4AOU5NOeOqtYYsS5mmU0bDIbduXueF557l7t077N65zu1bt1BUKCNh61inpikLNpaWuHXnrstNIjpo4TS9CsIjemk3YwzWVjVyNB5TO3WB8ekKsChTgDW8/9yUD54/5IHLD1BZQ6QNRrX4f/6ju7x2EPLEmQ6v3JpwkEcopYjbHbQSX+g8z+4hBk1QzI+mpiSw+JxyMQTuakOdM3+jP1Yud5IbFo7+aaxLnhbECcqCVkZSQNxnVN+LWAwGK8bnOBau20iOn3asec+7tnniobOs9Nv8yVeu8fK1PbQSg3ZNezAEOiKJY86c2eHxRy7xR5/+DFUpXKN1/SE/IUKyXjJYZPwY41RsRlJ4BGEE1vDgVotXd6dMci/dyDrQyqlEtZLFXQaJeNqMJhmDTszaoMXN/SN00CLXAQ+vdxjElpduHXPh/DlG4wkaePrsgJPxlDjSVFaS0+VVwIs39oh0yXBcsNRp89jZFn/2nbukVcj7L69x+3DI3eOU5V7M+5+4wCvX99FVxXev7rHU67O1EvPstSOSKGR7rc3DDz9CO4avfecKo9xyPEpJkoiVQZvbu7t866W7jAuJ+fHg+/7ePnvroN1ui1o0dau2nQLfr4TwdoG3hBgopdBu/WCAte3zXDx/0aUAmBEDq2S1MxGFDS+/8B2W+x1++X0X+O5LN9hPRRcnhEUTKF17grRaCY8/9W6efPI9XLp0gQceuMT+3esc7d3lc//sD9i+8ADb5y4SJ21anS5Ju0N3sMzy6gZLyyu0ez10mAiyKQomWcrw6JDjw32GJycMT47JsimmrBieHHN4sMudWzc5OTnm8OgQZSxBIAuNW6f6EgQuSRqMy22ETzJmKnY2Vrl++w5aR4TaRUtYW6s5rOOGjUs5bYwBpSiK0qlRbB3ZWRlLqBVpmhGFAXmeUVUFv/m+mJ+9bDiYVqwsKZIIlpdWuXG34P/+O0c8sNHn+p2UO7kkywqCgDgWVUxVlfcgdQ8zA/68qocFojAP3igqbcPCvcZKNLmA1E9pj4X9fQ2VDbI0JdaiZis/yJX7TEZRsYhhXyavuHpWVQGm5N2PbvOJDz5Br9vm9z79ba7cPmJpsMTDjz5C0krY39tjbW2JpNUiLyuODk64dfsmx4cHVIUgdv9tId4SyJcXBR/56AdZXl7in//Z5xiPJmgs3W6HC+fO0uv2uHXrJl2GvLo3JS0csUQRxQF5JelKNJqQgg9cGHA0qUjTnK2VrjRPmaFbA/7kxVt85MISSRjw6t0T4laXqYVyOub8SodXb+zSTQLOLMV8/oW7xHHE5toKJTCcZJwZRDy20+JLzx8wTUve8+AGe6MpaTbl8nrA9rlVrly7TStKWOpDt9PlZFRxOEzROuTuMSxtXeDwZMjJsKBwOY90EBBHIfsH+3z3pdscTfM6kvr7BfVjUrm8EWJAQ0KoquptYxP4XvCWEANENeomvmJ1c4dLly4TWI116QiUYwFlKxzTq688RycO+bUPPMALr93i7kQQgfZcvVtPVxCY+H8nUUzSiljq93n0iSf5zd/8S+wf3OKxd3+A/tIq1lryTOwEWZbyypVXuXr1Na6+8jK7N15jOjwSbs2lzjg4GhEGAXmRizHZZds0RlIzWGvJi0IkFIevxHtFtnkpIr7okX1aXln28MLOFtdv7wlnqyvedeEMz71yQ5B8UTnPGUteGtpJTJpmaOfpY6xkUDVGVolCSZZTYyqMNaTTKVpb/uL7e/ylD8eUlSZpt4i12BjQAV/89jH/4oWca/sVd6Yh1qNpJVznIlinmhMRaTaYhOv3CL4mEQ5/i1pGCW8r78agdCBGX+PUYQ1oMgj11ivnmS1IFLgIcIEZkWgiCduQPuS8SAZCmCU+RbkFSJS1nN9KeOzSWXaPRrx2a0LhIoE31ldZXV2mMjDo9dnc3GB9bZXeUh+dxFgqDu8e8c/+xz/m4GDP1amiqoTI5UXOL/3KJzk8OuK57zzPZDwBKna2Nnny8cfY3trkO99+huH+Fa7upUwLqYNFxFkViIFWAxGWxzdbrC93UUpRGcNoPOWl2/tsb+3wtRt32E46jNKMtLL0ux0GSz0mx4dsLbV49tU7bC+1eXCrzVdeOSQIQpb7bYwOGU8zdpZCHtps8e2XjzHG8siZHrdOMpZ6Gf/mp5ZpdxKnblW0o4Cq1ORVQdxqczyG//fv3eSo6pBlhiiIGaUZWouK11pLqGGSW77wjeepvLuQwqmMZKBZqTy4VBQw4wdOowFKCdPQvOTH5w8DURTRbrUxxjAajxYvz8GPi0C9WfBmtM/3Bb6BlHLulcDS2hYPPfiw2AwaRMAq4QcFYVRcvfISAYZf/8CDvHrjNjdPcCoiJxm45f6CICCKQuIowpqKXrdLGEV1Pval5T7rG1uoAA4PDpkOh0zTCUmkJW9Pu8VoPHVh5bI0o6m9R8SVUcR08a7RDhlXxmAwtKIAjSYvZeEeYyylMbRjxfZyl9d205oQeBuCsQUPXjzHa9dvE4UxaZXx7kvn+M7zVx2xMUShRBJX1rDabzOeluSlIDO/DKBHcEVlxfhuRJWQFTmmyvmNpzv8zz7WYanfJatCKBXT4ZTJeEo2LPmd5wte2rPcnEgCOVtPNjfzajztsb+7y08+x81bI4FMcRQwSXOiUJHnGUkUkpVIxLDSbC4lvPehLcDSDhVff3WfK3sTtNOziycWKCVuupFLnicl8MuWNpC7kjw9LkWeL6wroyCW+l53vjKGPE+JwojMBRlaY1C2AltgbYkOE1Qg6buVVnzkox/mQx94mrKqOBmNOTo8YXdvn9vXb7K7e5fJdMLKyjKf+rmf4/f/8I8ocuEijTGUpiKOQj71K7/Etauv8cy3n6UsDMaWjitfpZ0kHBwcsNwquX5QkJYeOQZgZcUOhXgpVabkfWc6DCcpz90csrnU4ez6Es9evc2TjzzIV65e49JgiVFaMMorOnFMd7lLenzIzkqHl67tsdpJeGiry9df3SNqt0gCUFGHaVaw3YfLawnPXRtSWkunHZFmBUudnE88DlWZsrMqXjP7B8eSfroMMcSgAp65u00eLJMXFVoFVFYxzgoKpyqMogClAr76nRe5cnNX1mdwY87i96XrPGN1Onj9oaMUbmjMxos7pWZo7/7vElAeF/l3KOUS0cm63z8pXP8bgbcs6Ew8h2RixkmbtbU1h/i9Lt4RBaRjlYXR6ISqKrm8vcRkmnKSitjsvXu0kkhYkRTETzxJnAtYKRxyoBVlXnB8eMTx0RGmcO58SCSrj6hNXU4VrdyqYX4FMcH8TCZDPvbuh3j25Wuity0rsiJnMplwZmMFYw17h7J6WZ7mFGVOnhs6IeyeDKnKkrxIKfOcspB1FdZXltg/OCTLc/Ki4uJmn1u7R7V3jNZQVfDuB9Z51yMXOLezyrOv3CTPC/KixBojqbKtcLllWWCNJkkiglAilx/aTHhwM6YdWw7uTvjS/3TIcy+UfP2rB0zTiitTRWEUh1nDxGslute6ZGVZmhHFIZPJlCRJyMuSKIlFlWMBCrqRYtCNiaOIdhLRabUZ9Lp0Oh2iKKLTDolDzTTPGE2mYEtevX3E9cMpZTWPxusxEQgRxjEKOGTYnKxaifpNxtbMSAyWJ596mqPDg/oZ93YUiiASt8DIuQcqrUCLWioMQqwOsFYkD1MZJtOU27fv8IUvfIWvfvlrvPDs81y/epXj42NZOEhBmqYs9bscHY/Jc0lwaK2kP+l1Ouxsr3Pj+k2ODo5lXFlxpJ+MR0zGY5QydGPLcGopXCSW0pYg0G5tYLe+tzHsLIWkecXR1LDUSVhd6nH3cMj25jp3hiM2u12mRUWrJUxR0mlRTFPWlrrEnS5JHFIUOUE7xupQ+jFuMRqnrHQjeq2Il64fYgMh0HGoeWAz5L2PdOlGCXFU0Ek0V27nbK20ycuINCuZjDJGdoUo6QIyN8MwoLIlx+OM49GkdnuuipLhZErp4i6UUyWLh6FD8H7THCDMTihvi5yJrTVCnz3v7/eegk7yaLwtDEParRZRHBPHce1CXbrFfZouo81gS31v4Wo4/ezbB94yYuDnolKKME7YWNtweWicysERgtkxjMdDijzl8vYyRV5wOHE6Z3e/doOt7hRrCLV0VhhoTFlhnYdKFAWECpStiEONMoZOuwVuXYTJJGVjuUscBuzu7VMUBSfDE165cotWLNcf2lnnu1duYI2hLMXf31QlrUgzmcoi45981yobXc3Vu0NaWrHchqPjMee7iijUnF3rs3c8xhrL6uoyh4eHaAV/8YObrPdivv7qHtoqMrfGbFVWjLOMQRxy+3DI7b1jrIGyMoSBZIxUQGWMGLHCAKvERVRZOL8S8oHHVwmimL2bu7z4/IRrVcTBRJN0DNdzcQvcSxVpnoNWjMYToiimLHLCKCSOZZ2DOJY4jyAIsH55QmM4txrziz/zPp569EFUlNBfHjDod+l02hhruHLjNsPhlNFUXFoPJxk3difsj0sqO/M0Eu5XzbkZKuev7VVyQRA6QiBsoEVmnRs9jrO0tDttfuFTv0iW5+zfuTsbgA6EIfBSiHsJYu8pKuO8k2R8KmA8GrG/u0eW5yTtFqtrK6xtbLC6ts7K2irj4TFKKTbWVzkcjsjTdI4L7fe6lHnO/u4epioJA00chU6t5zzBsLQDw7BQ1Ek+jcUYXz+RxBSGc4OIykhakW4csNprcTCaMOh2OS4t6+0EQ8X2+jL7R2M63RbT8ZTNpR6vXb9NOs0ZToUx6nY75GXF1uoqm+vLJNqyutThscsbPHhui7ObS2yv9Rn026x1p3TasuaEMXByVNLvKkaTirKAIOpyZ9zjaFKwe3jC1bsHXL21x6vX73B795A7B/vYdMizV/e4ezSidJG5M5B+UErGgVf8CG5wfe0cTRr4fo4YNGH+3e6c+yvvkUjhVltczj1op3GI47iOGPZRxsoRhJm0eTosllPhEjO6786uzcoyO+9Kec+1e+vzg8JbSAxmldRhzMb6Rh0E5RsHJahAtpBOZU2DS1vLWFOwPxFjn3Kpnn3jaOXPWaLQZbdUshxgmqa0WxG9TsDxyYjJZEqephK4lQr3tjro8drNO86t0XJ0PGSt0yWpMvaPRgw6CYWLjt09OuH8cpunz7axVcXhKCMMXIK8PONiF1RR8r6Lyzy+02YQVjy+nvDgRhcdBVSV5WCcYaxlbXWZg8NDIm156tIKw2nOq7dGVAbyoqKsBD1O84pbe0dcu3so+YeMI3qmIisqoiAgjiOCICTLS6oipypKycHUsfzMu5eBgP07Q55/aUoVwoXNBJ3E3M4gUHBn4voImRxKIWkvEB92BUzTlNBFBiulqBzXVGQ5xeSIZ16+yteev8qVa7e5fuM212/d5fBoJIZ+rYVwKUFqOgidR5iujbkKrwacjRevplFWphI4qcDNCWsNeZoThbGLVhUNc6ud8L73fYCTk2OuXbuGathA5L1+sjFDD25fB6FTSanGNVkY5jf+0l9meW0HjCD0peUBly5f5Hh/n/5gQL/f4ehkTD6dopRYKJRSdNttxuOJcz005IUsLp/luRD2UNKHr/ciDiaSZ6oJgncs1lZESnFukDDoJrN0FEoxmkxoxQEqaNOPNXmRU1hDOs1p97qQ5zx8fpWzG0uc317jge1VLp/dYLXfoaUMD/z/qfuvIN2y7M4P++19/GfTZ9683lfdqmpfjWqDhh1wAAxnyKEfBoOiDCUNHxSMYCikJ1IvEh8UCj1IDCpCD6JMSOIYDoccD2AwaKDRaLSpLl/Xu8yb/vPf8XvrYe2TmffWrUabGQBat07l953vmH3O3nuttZf5r/UFFmKPuq5pxxGxH6CVlGL1PY+sqPnw0YT37x4xnBs8QnxtKErFOFUMZ4rBzHB3e87Tozk7RxO2DqbM0pyitFRYagPdyOPQIdr+KJLuOGGeNHP9FIMFWUEJbMmPSSfdKn5Gl1BWFFILujHlqsYc7QrQiDLiEjKbFcKp9r24vSgslDoRbs33ZjzL5+NfTv3+L47+7IQBp4SBF7C2uobWnmg8zwkDUduUgjRLSWdTLq730VQcTJ0wOPXC5eJynpiicMW2pTOLsiQKFGEQcDiYEFOx6BtMZamoCX2fjZVF9g4GrMY+C6HPwWDIr91Y49KCz+fPdPEVbI9SXtlc4vHOkC+db7Mew9l+xOPDGZu9EFtXdGLFq6stsjRl63DMYhyIqaXKCbXPP3x3j4N5TWVEu1tqRRwOhszzkp2DKavLHd5/PMRaCHxPnNJabKGN2UaBaOrGotBSnSuSWgTGWuqyFK3FVaaiLvjqxYS68tg/nJFmJb2uot32GVeK3Vzja8v+TMwhSlnSLCcIAo6GA5I4ZjieEIUROIetOH7FHKOVoqhqnh6kHM1KNB61tVK4xhehUta1i6aScS4mPQH3Aovvu5Kgx4P/5K/skv51px/3eSMT/CAQGaA41p6NMbz2+ms8evSIvZ3d5iynfzfkWGlzj+bixwco12DF+Qvn+Xf/R/8h/+yf/BNuv/s2xtac2VjlC599g6PBAbN5xWw6Jk4i8qKmLHIX3KDxA0FvLcuKLM8pi5qqrrBYjIP3EDZhWUgCBllN7bymwlDEn6IaoaAs3djj2SBnnJaUdc00T1lohRiliLShl0SYsqQkoNPr4wcBC52Q1VZENw5pBZYk9Ekin3ak6SU+rTgkiSOS0COJpe2e1kyznNpCVSv2xoZvv7/P778/5pvvz/iDj3J+/4M537mT88PHJe8+rXk2LhlOc6lXoCRE2GoFaExtaMWaw1lx6j1/OuMT9UTWcI276PSRyikwPw01mcVKKUqX2W9PhQXXLuNeu0CNspSMa98B01WnCtW8jE7zqeb5Xvze7PtZSK4nvK/hsSd/P/0+f2bCAKShAEr7rK6tO21Qele5J5F5KR1c5BnTyZjzqz1Cz7I3OREGctipl+2cur4S04HEqVsHQe2z2G4xHk14cyPh65cWSXy4tzdkoxXwpfU2g6MBv3h1kc+c7dDxKsbzjPEs5d7uAOVpbqwlvLLewqsyzi51uPtkh/F4Rux7fOVal15iWYsDMDUP9kZ8/GzGUuSTm5pv3R1wlNUcZBYvCCkrQ+gr3nz1Ag+39qmN5dxqm8VOzN1nU4fnr1EI7k2DR6MdsFllxIZgrBWG6/kURSkQE3VJWTo7uidazXfvTUnnHn/4YM79osez6Cx/+GDAe4dSyLwVhOxOKypjxA/j+iWOY1BKoKwdE9fORGOMOLI911bP9/GbCC93vqmlspUFVzlNltti/qoIA8ltqGpZGZRl5RjjiYlAoU+iS5qQ3VNjWiHRXTK43ERGIm9W1jb44Q/fpSyLU+JE/CvPcaLmdNWIHZzfQgTx1etXuXL9Jn//7/wtJuMhX/7qW3Q7bba2n/H46RPGwxGPnzxlOp2wtLjIYDRhNp1S15alxS55ZSirAuVpwjhhY30Rz/fpLy3gBQG+ksxzY2sWE49RKvUBbCOutDhdq6rCYCjLip3xlMvrfT5/4xxvXFrjxtlVLq0tY4DlWNOPfaIggKSHF4QUroLYSqwJAonCC51ZRClX+7qqGUynDKcF2wcz7jw95PbjfW4/2efde8/44Z1t7jzZZ5iWVLWlqGpyo8mMJqsgN5L0Zq3GIMCH1mm+xjmJrYV2pDmaftIR+zJGiXSL+13mhHLmFo34FuVHGSvCH5xvsRHmToicpjAIjyEm8jz/VPhp4wrTKCcwjMsubwTDj0Of1Px/NnrZO2qo2W+difU5W+UL9GcqDFwwEaBZXd/A92Ti0zxcIwwQyVaUGZPxiLNLPZJAsTeujo89/UJEGEixcGNk2V1b0Yqvtw1fPRvx5oUOxXxGRxdoq0iLjM1+xKXlNp3Ipy5m9DttAg1ZXvJsnLPYafHe0wGlDjCmYnMh4v7eAOqS4WTG21spg9QwLyuORjO+dW9IJ1RY6/FsXHCmF+DHMW/vlezORUuySB3c2NdcOrPMg619yqrm/HqPXhJyZ2dGqH3RlIXtYoylMBJiarFkRe2iqaSztamFwVojtZQd4zZYZoVlb2LoRi1255ahv4INOhwOh1RVRTtUdCKf3enJsthaIzUKsowgDJhMZ0RRxCxNiXyfLM+IwhBOmZQqKxmwKHHilmVFnhcYY5nM5+RFyTzPGY1nJKGPMYp2O8bTnjiKjUUHHoomgUw0chkfbi4rUFZyLUQmnJ4QwuCtkpmgtOXMuQs8fvwYKilU35iQjskpIe2WK0ruKogpLbZ8FJw5s85b3/hFfvsf/n2yLOMLb36JwWDEu9//AePhiKWlRYIo5OjwkKoqWVpcZJ5mFJkwu7wo6HS7FGVJOi+ZTucc7O+T5yXz6ZQyy11NAkEkXWp7DOdGais3BWVQBNpSVKWrCyzQCEVe4ivLcrdD6PvgABptXRL7IYGniXxNqX1qq4jDiJUE5mnJdJ6zN5rzaHfMh4/2+O5HT/jjD5/wvY+2eOfOFh89esb97UMe7Y/ZHaYMpwWTrCCvpPCOQWOUkhWM0i4BU16rtZbauiS7BrRLeRLthqEb+xxNC+nHn4gaIf7CeY7nywtzjVA4AfHJBEhcWHKTWPknafhNwfomz6BZOfy49GmM+2elH+e6P+qYk2DsP2U63ShrDaY+CSFrSI44WQdqLQUhSudkOok4FjruFGuB2oXgOZseCuqKNJciG7a29FTBYFqQlpYnoyn74zlbRyNMWfL4aMLuwYjDccE7WxM+3p/z0bMxM+OxP6u4t5eyNcw4GOV89/GUcSaRRuOsZLkbcWVthbRW7M0MaeUxN6CDgCBsoT2Pymoqq8gqQ1bUlLUBJQzUWvA9KI2YatAI0mhRURvRigMNcSACIPYVgSdom2GU4McJYSTLWa2glcSsLiZo7bO5ssBCN6bwNJ1WhKcVdZVjjJFCKUZMFcDxiiPPSqyBTtKC2tJpJyir6LZbWCTbUmkxY9VVJctpT1GjJMywtviBx8baEqsrC+RVRV6ULC8uEUUB5y9d5pd++RucO3sGqxD/hpXKKQ3gmqiRsvppKmFxnNHrGP9zk9LlRlhZIbaSNqYsJcPYStiosgK/rJHvHgZlDYvtmJVegtIKT2miQMwCHnDt+g3+6T/8B9RVSSdJ8IOIex9/KMPU01I32sFK6ybJULmqbRbqynK0f0gxz6WWta9IkhZB4OP7Ui0uCAIRikq9JBRWnnuel2gHmFfXNVpp9iZzPni8z/29AVlV4ymfThLj6ZDcWEbzjMOjI3a2H/PhR7d57/0P+Nu/9z7/zTff5W99813+9jff5R9+5wO+9f5DPn56yM7RnHFWk9WK0noY5clqULtn0h5W+VilMYAxYqqraktlwLowUsnPF3+QUvLdGidoqWXan1bkPk3B+1QNuIkYc9AcADQWgheup0Erge5oNk9DEHi0kohWEksI9wvHSGSTJfB9gQCx9bEwevHYF8/706SXvbvT9KOE1p+dMHhubEuY3MtIHkgYoNY+FkVZGad1vlwiC5+Q2P6iyBmNx9RVybwwbE0KBrOU+WzKxztj5qUhNzWH05phVjKYlwSdLmjNrKjYm2bMK828MjweTrh84Qw1YGvD+ZbPK2t9sfnHMRfOrhG3IjCWbls05Q8PSt7by4nbff7bO2N+5+N9lCdlKT2twRgXViiJeJ7yMBa++YOnzKczklZCUdVEQUAU+bQSwVgCT6piKUtRWcqiEkhnKmxds9hpsdRvoRRcW2/R8hQeNaPxlLKomGeW5X4fXwMOox6rqazUgiirSgSTskRJhFWWyohZwpoKqwx1VWKB+TylrjJSh9QYBhFFUdHv9lnodlhdWiBpt6msx+FoAq4ObFnVXDx/kbfe/CxrKyss9HoS7aUF2tsag26W1I75Yy1WGTfpZcw4dnnMEDge9MIk6ho2Ns9QZDNMbY7hro0r7tKYLrCGJNA8enbE7Qdb2LominyXQKjQnkdZ1YwGBxhruHztKodHBxRFDhouXbnIrddeZWlpgSSR2giBL+aRppW+Vs/5fzw8lJXxZCrBgCqKQuAqMFglTuLmmZqnwiHqxkFTv0FjrMez4Zw/eP8h33z/If/g+x/zt771AX/rjz7k//U73+dvfut9/u4ffcx3333E1vYej7f22dofsDeeM05Litpi0GJ+Uwrxmbt3ZcTvVBuwlTML1g4ZVYCVjttnrUSzGWvRvocxIhRrIyiq0lsi0LV1wIM/gl5kai9ndNL/z68Ofzyy1h47hLXWtFot5786TRpP+cRRDCjKvEIjypZc44XDG/q0/X9K9Mn39On04hP/qZFBQuSM0/aKqjgl1U8dd6zpS5KaUpDVEv/dVFTiePILyaAUJuL5Pq0kxlQ1RllmtWJeAp5Phs9eBqausNrnydjwbCr5Afup4rceDHkymEuhDhS9dsKHj3epyprYl1DDqpTCI9vTircfHTDLa6ZZSV5WWK1oxSHdbkxVGxaiGKN9FpPgWDuyRnCRirJkZ/eIvJKEpLiV8OwoYzaf04lDerEUJS+KmsrWnF8J+dLZmH4S44cag2WaV7x5Y5mFsORgnDEtRCNXpmazH7He8rm0FPPK5gK9RGHKgsATLH4QfmVqaY/vOUhex6g0ltl8jqeUaH1O8zPWSop+EBFGIUppjKnAKo6OjjgajtndP+Bg/4i9vX32D484PBoxmUw5ODhgMBqwt3/EZDzlweMn1LWEVhoHtWGc70fMPcJSG+bdbMbBlDdKgIwFeSZrLEoZ1leXmaZzAfwzshJdiGr+0hfW+Xd+8SpnlgLKypAVBZ1WRK/ToipK0lnKdDyh3U64cvUK2JowDul1eyysrOApaPe6tFoxpjSUWcHt2/cYDcdURYXna6o8O9YUjall5VOW1GVJVedgKrR2Gqqn8TUEWkDoPIvDWpLnEe1bXoQC0tI9u1vxaK0Yzgu+d2ebt+9s8eDZIcNpQWq0q6OhMcpVp/M8rJYEyeN54+CvMZKkWNc5xhQimNyKyiBavWRuN/C44tUxVvCyrDGySqwqqUnhBJq022na1qJdItknJv4LjCyJY27evMbrb7zB8uraKe33nw8LM8aQpinGWR3a7fZx2KhyuUZJS6ox1rVEzYnckTZ+Gs9VSlbsypkg/0VsfxK9ePyL5zT7/sx8Bp4nGKHNIOgvLtFptU9swvL2AHGYgdgbh4N9uu026z2fZ8NMnETNce6hJLRU1O15mhHHIdrzCDyfsrYsBpbldsy9YcZEhdw7mDPHw4tCstxQGNhPaxY6LZ4ezhhVFb7WjLOaOAwwSlHkFZttn+Ek42luafV6eNqjrCsWI58sNzwalbJE1oo8Kwk8DV7AJMvJixplFDoQCZhXhoc7R3z22hpH44wwSiiNR1aWXFxfJi1q0ixjoZswzCq6ocdmz+PhYcHBJCMKFIEpWYp9lpKYtW7EK+sdXjvbZ60T0AktZ5d7rC91We5G9EMYpzUz1aKua6bTCQpL6BlWejHbRymVE7ZShlERxSFYV4RFiVlMK01Z1xSFxF1Xde1WeZY8LzHqlP/GWsJA/B+e5xE7u/zB/j5bW1tkWSlhpY3T2oHYntifT5LNwDhnMm4p/kmmYHGmJQwXzp+jKCt2d/ePVyahrjF1SV0ZDoYpw2lOXVd89rXrnDlzhsfbz7AuoSjPC8ajMVtPnzCfzcjzgscPHzA4PGI2nZJnBUWekmYzDvYPpdi9qanqmvlkJszDmbKUUoSeIvEVvdBnYyHijfOrfP3mGX7+1lm+/upZPnf1DBrNdD5nmNeUlRvf8hawzvyFU6bkfrJfhIWS6SOvAGXF/d6cp6hFI7dOkBiEoTvtHiuOeLGyNz4ZNy+fS+pz+1HSB88xSHeeBt8XU61MawMIkwyUxQ8jRvP8OUbV3AcgDn3+4q//PG9+7nXy2RijPIGaL4pjYSCnHbfWtUBIamO7z66tp5Nbm826iKEmOsgPguMoxHarhdbyQtN0Lvf6sZh8c0zTun/+9Ml7nrzHF6nZr5QbS80gcWhefybC4LQmr5Wi01+g2+4+JwysazDO7mfqmuHwgFYScX4x4tlRJqUvVTMY3cO5QQhWTCfWSrEJpSjqGqsUh7nl8VgKdFvfozLC2FCKYV6jtUdeK4G10B4VikCLdqWU2P8jX/HewZxKefhhlwvn1yCbsTuzPJ3UeMpyZq3HUr9LEiqG00xs8qbm+lrE5y922BtXEh3ieyz1Ei6tLrE/mjNOa47mOaouWe60aYceiSppRz6rsWWzG7PUb7HZDfjS5R6vbXZ5/cIii62QVuSTeJBWFdNcQjhr6/Fkb8Tjgxm3n+5zNJqQtDrMSSiriulkjDE1ga7Z6CdsDTJAsbC4SJHOUVqTZhmhyyvQWjOfp4RRKMtrl8xn3VLbWEMrCsHNaYVC+5KhrD2fwHc2ct93sCTSg5If0fSpzHLTjJWma11iXbNDfn4+QsNaMXE1q0RrasIwYn//EFPVgGGhrVlZ6NLvtXl8MGGalhhr2N45YHt7B2U1tamP7cqzVMDJxE5fUVUlZZEjcOKWvCgYjcZEYeAc6RL5FAeKxU5EL/GJPMublxf46vVlvnB1mS+9sskbV85waX2RxV5CO/TxtCbyLL12yKzIeHyQUjtMJGuNZCAbYebNvBCmL6uE5jhrZQWOc4TTrJgtz3tRT16vzEsnQGTPCcOXXY1AdjPumNu57nBnNY7u5ietZJ43TFSgZyyhBh3AaCY1RFQzh93f0Pf5+luf5+yZZTr9VS5evsZoPGR3/4DCmXZOmubOO7Vpt/8Tm9t/crbQcwLBJaDhlFfzMyOQNsL8J99epJftl32n3sdz+1/yXannjv8zEwbPkVK02h16/b7rLNexpyScBBYahoND4ijg0nLC1tEci3/yYMfHykMqBbjyiFEkjr04jEhrmNWyMsnKklcvLJIXlmlWEvkeFo+0qsmLkm6SMJ5ljNOcfhIwyUqiKKGqSqa1ZpSXdNodTJETUaOUYTDNSeIWVVWQ5QXtbocsK0jTHO37ZGVJJ9Ss92OmOYxnJXVZMZrMuHqmS+hprq71uLnR5vVzHS4shmz0Qi4utbmwGHN+IWGhG2GBeZbz8dMB7z/a54cP9jizmHD36YBv393l3rMBD/bGdEJNFHi8/3TA470xw2lBt+0Rt3tkKqaqK6bjCXVd4emaM72IrWFOZTVpmqKVJgiFuWntHWeJRkFIXUvYahwG5GWJpz3quiIMIzJXTU0Yswhb6yJ8JIcBAl+S47TWBIGPscppe4LbpHSTWHSi+ctgdn2tTnpcBEVzlJgtsJZAK45GYxYXljg4GkpNC2vQpibSljjw2BnNmaWSTGdqV8lCSQ1trORGVLX4GYwFqxxsuQeB7xN4HoHnkQSaXqS4sBByY6PLlZU2l1ZiXr24zBevrvOFW2e5fG6N5U5CEEZUtWGaF6RlycPdA965s8233r/L773/iO/e30GpmsNZTV2rY4HX+NeUi3ev6xqspawrYfjOdFabJnxTBIN9TvM/MbM1r+zFvzQM5NRcPJlhzomMOGSbOauPj5WcE4U9xo/1lETtaAxai54ce5LMOJ0LQKFGFDnrBMbKcodXrp3HVyEXrl5n93DI/v4hWmkGg6GsuJ4TCCebPMknV4wNNc/2oqDAVTBrVgie55G5xNSfXhA837afduNP+K7cc6uf5n4v9P2fESlWNja5cvmKi1PnJK771EOZuub+/Y/otWN+9dUV/vjuPpWK3YM7c8axViLnTKdTWq1YaiEHgWj/VuH7mqwo8ZTl5tlFKqt5tDOg3YooK4nhX0wCAm2YmZCsLGl5htG84DNX1pjNZmyPa6JAkxY1w+GEz15epd0K+eMPt+l2Ion+KQu+9qXPsLf9jHma4mmPqjZ0Q7ix2WeaWXptecDY16RFBVaTVTVFUZGWJa1WjEbx/v1ddo5mDOcpl9YXOL++wMdbQx4fjAVTB8Wvf2aTJwdT7h2k1EYKtXz23AIbK33efnTE3jClrkourLZZ3zzL2LZIi4Kdp1tUVUmoK968uMB3H09IS0uvnRCGIbWFeT4DfJTT8qraEgYhxhjiKKIoS4rKEGiN9jVUFcrzKIuaoq6IA595LpMqLXImU8n4biUt2nFEu90iCiLpa8dsRC2VSSqJdpL7YKUSACDjpRnGja9IOZ8URiJttKe5ePUqt+/cwxQFWEOeF/ja0op9ssqgtU83iTBWnNumia5ySKq1haIqOLuQoGpDvxWw0IlZ7oasLnZY7LZoxSGR5xMGIToIqLRiMM0YzTLGkxm74zFP9ibcfrjHZJ6hlSIOfKIokGgkT+P5HlVlMAqurUU82K8pqqYutjAA4yrhKYfa2jhAa1eGsflsjNj6rZUw3MY+f7yaahzSbg41zE5m3vEUBGeOUy7cGCXCxbpymycHnpyLY8WBVkReTSuCVqQJA003VrQSj1bL52huebSfMZoa5qmikEBALHBxs883vnqTt77yebZGPv/gH/wRw+EQrOH+w8cS3nlKoL1IIvBkfkk75bqOj74YXPwcaVeaskkym81mP5Mw+FHUtOknpZed99O28c+NMFhYXuPGjRvHwgDcoGtIg61qHj68TRT4/Ppn1vjBvT1yG0tCWSMQJAji+LvLNaO2Bm0h8AQLCTR5Macd+nRin3a7zb2n+3TbgkuvlOaz5/tMpilPxjmH0xLfDwhtzasX+rS05aOdGZ7nU5iabDrnjQuLrC+1GYwmtCKf0BdHXRJ5eNbhaCoZghrIDOwNxjzdnTJMS7Kq5uuvbXJ/d8r97QFFZZgXFZ+9uslyv80f394hK0uqquTaWo/zm0vc2xrw5FCgdH0Fv/LaGbYPZzw4zChqifh4Zb3NufVF3nsmhe6tNax2NQtLK+xNcoKow9aTp5RlgVYVb13u850HQ5Z7PV69epF2p4WvfP7+73+HsNWlLDM8z8eg8ZSgaGJBe5qyLLBW4XsetRHM+tpIWUZPKdJUEuEkHFK08IPRiE67x/nNdXk/zQh3WbaNIMDZymUV0NiuT4av1prrKyG3rmxyNB7xO+/t4jXhqBZu3rzJ7fsPMGWJqatjmOog9JwiIcxYa4UXBIRRwmhwJA5qJNu6rirKqibwLEmoeePCIv/ur3we48ccDMbc2d7lw0f7PDscM88qKqsZzDLysqI2liQKBBk38Gh1Wlw5v85omkmIq7HsjaZM04IQCTW+thZz/6CicKHv1lqCQJMXsgqQlYGLzipLykqSn4xTBMQZ7ATAMfdrVk3umjJZjpm6EhGL/CdJggqJdls/d4HLV25g6pLZbMK927eZTsbHfdCQVnBpUbPerunGHrFvCUKIQ0scW5YXQjaWWywu9AlDTYElzTWHk5Lt/RE7Bxm3DxR/7a+8wle+eIFZvsDf//aYv/nf/YDpZIanNQdHQ/JTyV6fzgTFaf7TkNaaOEnA2peaiF78/i+Cftw7/JSPeHyDPxdmIqUUfhCxurKC11RycpqGds5L+W4ZDY8wFm6c6XI0mpLbEGxzjCgo4iqTQZ3mKZ6nMXXNzbOLJKHHvqtJMJrOUdbQb0cs9DqkuUzaVitiNE3Z7MX0Ox54AZFWnF9vE5iaxdjjzFLCSktzYSni5lrMZ873WOpEhJ6i344ENM4YKmOIooTBLOX24wF/fHeb33/vGfd3xyz1W/zg/hGPB3NmpWVe1lxaXuBwkrM3LSmNgKStLnZoRTGHs5QkjEmzgoV2yFK/zWCaM81LotDDR3Fupcs0q5hWhqWFGBUGdJOIhU6b7WFGqTyKqmQwmrO+2icrDGEQMhgOXahgzUa/xfbhjPPdhKiYw+iIKJ+yNcnxooiKGq3EPIeV+gme0uRVSTtpicPf98CKaUVjSeIW8zzFWstsNnXonYYkiYniFr/yq7/AhXPnODo6oCwrcCaOY/OQla1ZLYisECbfjGaFpeXVzKYj6rTk2aQUtmfl5KWVFY4GQ6fNCgOVVYd2KwxRHqqqpt1usbi8ymAgcCDW1TqoTcXZc8vSL8tLPNid8F/947f5W//sB/yTH9zne/f2eLQ/ZpAa8loxzgo2lrqEQchCt0OSCK7VLCsYjWc8fLzD0XDKcDJlnufEkcbHUFYSQbXS8RjMayrTmGg0tREzlkRQidnNuqgrYeLCyDUNkq925jaNcmYP7XmSJe77hGFE6CpzxUmbMI7wffH/eM7R6ymPKGlx/spNfuM3fo2vvvUmYSvg8GDI4PDA9Ym7t4sCXGlZbp0zfPGax6tX2lzcTDi70aHfC/B9j/EkZTiasHMwJp1O6bYrunHO+kLN179+kb/+P/gity62mRzs8o//0bv8zd+6w3hSUDtU0/kp8L+GRzR84/T3RkGUfOQfn7nixlhdS1LnpyWjNff8F0XqFKM//fdln38qchf4cyEMQOH7gUBSOPPQaQGgFLLPWiYTyZS9cabPcDIhrUOnHTZdLCYC+ajwfalxoLCsdnx8LHvjHD/wiRwGjLKw3I3I5jMW2yFnlzustHyW2iHtKGQl0VxajliK4NJSSK/lE2mIAximGTtHM+4+G1IUFYHv8XvvPuWjpwd8+PiI9x4ccG5thaf7c35wf49pYai0otOKWF/usjuYUiOT0hjLhaWEeWnYG2UYC5UxrCy0aScBj/en1JXB96DfSVhZ6HA4yRnOMi6udZjlJRdXe4zmGfuzmrKGMPTIjGZSlOwMpxSlRM/4Hiz1uqSl4AYNR2OqWqLul9se24M5ERUdbelGHtQl7+1MKOqaMq+IwhBjJI68lSTM05xWnIhpqqpkdFnlihUpikqgusVElDEcTqhqyUreOHuWs5tnMMYwHo0oc2Hi0ptNV8pYcDqg2yt7LLjoGHEsL/UiunHE/YOZY1JyxPrqCvtHg2NhUNU1caA4t7ZAWpQif6yYhVrdHnHSYjySgi4GS+0iccazXKKmjKE0hlY75uzGCn4YoXAJato/bttwnDKZZ8xmGfN5TlVWEjaqNFHo04piSTrzFGVp8TypqwCK5W7AcCbRPtYxJ3krbl4gAlmhJYlLSQ6PUlYwn1z2uac8fO0gpLWH9jS+VrQ6fbobl/DjNkm7y/qZc3Q7fYLQo99pcfPGNRb6fQaTMUtLi1y/eYObn/sCk/mc4aFU9Nva2qaqCpmzyL09FJt9xdmlAM8Xs9X2/oyqLIkC8VXMM81opjgY1BwcVhzsZWRFwc3PXeLGa+fRpuLw2S4ff/CMtz9K+fBJhfZjyd7OMgfXLvOcF8bKaaFwQjIWNS4JkOf96J9GjUDg1LVfvP7zwudHbz8tHT/fp+z/WenPiTCQcMW19Q1JxDp2SJ3qTDfIJ5MhZVlx/UyX2WzKtBScHE53vBLfASCOQiy2qrm40qITx/RbPmd6AecWfc4vhJxdDOj4hutnljm/2KMXBXQTjzDQBL6iqkqG04JH+2PeeXBIUVnCKOGbH+zxw7uHbA0z9icFvSSg3Ur44eMBtfLJXR7BxY1lZlnBwWSGtYq8NiShx/m1HrsDqZ5lEcfgueWEvIS9aSpw0YHHYrdHGPpUVmF9D88PMLZiuZswLQVbf5JLyUsv8MgKQxBoOpFPVqScWemSRNAOPDbaHkuJD1YRJW0KK5rieDKTmHBlWOtoHu7PmVtFa3UDb2GFD3cHlF5Ip93B90N8z5e6uXVJkQu0taCX4rD2KxSKuqxQiueQH21tqasa575hPhmx1F+gLAq2t56iPSW4M1oSGprVQSMKlFIYxNmLtXjKEGth1O1A8d6TEQ+HmZgZXTLf+kKb80s9jgZjyqrCWEu/5XF1vc/mYoe0qpikJUqJr6Hd7+N7HtPJmDgJCcKAa1cvs7K6yCtXLorvpzQcDcZMpxlHh1OyNKMoSwnzrCtMbSWrnMbk0jANMUXFgUfg+0BNFPosxIp2qBhOUjwt9bwXuyHDWYlxKwO3JnLDXNHu9ukvLGEVhFFIEEYum1mKO8VxTBRHLkKrMbsZp+1DZSsIQ1659Qa/+Au/wu7WU6aDZ1T5nEsXz/HGG6/RakUEtcEPNOvLC+w+vMPjOx8zPBqQjgbs7e9Rl7lc27FcrSxn+3B5PWB1MZb8SOXR68UkSUxRVjw9yAk9y+qi5cxyyNnzy7z1yze5fmMDqprDZ4fc+2iXjz+e8NGTmo+3C8aTOVlWULkw2mbONyZl+S5rABk3zoekXAe4JaZSLrpNISvKOKYVCuaQMSd+qtMM/EVG/uL3H5dOX/fFe/yk9NOd9XL68yMMtMfa2gZ+E1bY+A6UOv6rgel0QpmnXDnTJ89TxoUHtllCC4n5wGCNlBe8tppwdb3HQidisROw2o3pxh6hp8jykkmWk0QBHzw84sH+mDs7Qz54csRsNicKA373vafc2R5xOCsZzDKW+m267Rbjeca0lAQ4ay2rvYSlhRY7hxOiTpeiqDC1QAFnec7+ZIZViuvXrmBNycZSm+G8opUEdFsBnVbCYjtCeR6FjsRBqh1apKe4+3SfoqjQ2jCapAxmJb7WZGnOheWQn3/jLJc2erx6oc9bN1f5yq013rx5htVeRC+GJJBV11Kvy6WNHqWFwcyw0o1Z7rV4djhAA+cXA4apQXk+G2fWWVlb5snekLquQHtSfKcqiAJLryWFT5Z7HXw/kHKGWlPXFt+VH5UVh7wj7cL5KlNT15Z2q0W322E4GrC/v+ecvR6mFoYl4ZmO/TV80JmJNJKF2yQ+lWXNJC+PGa9ntZiiAriwENMPNKOsYDQrsKZmrRvQjSM8a7m/NyL0fcGoqWt6/QWJIknnLPX79DoxO7v77O7scefOA46OBowmE0xdobBSUEWBxrDYSdBK4SnLWieg7SvmpTN7uSCHfuJxfXOBK2dXKU3JSsvjjWtnuHBmgcNRRlrUWCzL3ZDhtMLYBqnUhYgaQ5xEXL/xCl9680vcuHaJN269zi//wte5desWr9y6xRuvv8GtN97g85/9IssrK8zKinQ8OJ5bSkmYr9IBVZlxuLfPdHJImWX4gcdbX/s5funXfok8rUiH+xRVRa+3yGQ8lmJKlaGuMmaHuyzEms2FmDP9Fuu9mMVWwCyHx/uG7QMR6KtLPkudgCTUJHFAvx3TbkdoFJVX8/Vf+wKbZ5eo8pz9rSPuf7zLx/fmfPTI8HgAj4efhK54+d/m88kKEjd8mmM8T3Pt4nl67TbUNec21lDWoDyPef5ykDpeIgBe/P7/z/TnQhhIJ2lW1tYJ/eCUAHBJLC4sUQHz+YR0nnJpo0ddFQxTd4ATB6qJcmiQNOuStl/jmxpfwWiU8ntv3+f7957x4eMBj/ZnzPKCM/0WH26POEpr0tIwzys6scdSr8XeOBNIaKUoipKlfotet8NgOGOaCwxEbWClG7O62Ob21pA0L6gwaGU5v9ylqi07RxNQHteuXyIrYbnjc/PqOdZXl8grK9XUlMYPI54cjQkDn4V+i1deucnmuQ0W+jFvnF/i1vlFXrm0xpWNRS6dXeHSmWU2V1e4uu4zmBi+f3uH331viz/8YIc/vnPAB49H7E/h0UHK1EA/8ljuxtQWtoc5/XbIuZUuj5/tYazhymLAzqiiNFLCcnW5z3QyZX9wRORb/uf/5s/xP/u3fom//Be+yK/+0hcYTgueHMwZzDKKPKcoJMIDJUlTvqiFWBeyp7UmjiKSVkzoSxW2VhyRhBHtdkxdZiglRWtksqmTVYEz+og5R/YZZ89HWcmURfiAVYKUak3NQuLja8X2RKCUjTH41hBrQ6BhZ5KTlobSObb7S8soqzg8OGAymzKZzqnKEluXTiAJs7HHI68ZhYZ5XrpazprxvGBeShSPUk0inUIpy2I7xtcVo0lOWpTUVUkSedx+Oqa2YuZZ7EYMJgW1aXwnThi4xLFOFJFNx2ysrICpKMucdDrEFnOUKbDpgMCWjI522Xu2zXyeomyTFavw/ICgs0CZF5iqQlcp1DXGVGysLPLs/n22HzzGzyfMK0un3aLOS4FgsQavnvL6ZsjFtSU2l/tsLLRYWWqxstBicaFHFMeMcsV7T0q+/UHJd2+n3H1W8uBZwZ0nKe/dmXFnB/69f/8vcOHsAuV8wsGzAx7e2ePDO0fceVIzSn1qv4UOetRGwn2PM9Jf0KpVI+WcGa35veknBXQ6bb74pS/RDmMpIbu+Rq08SjymWU7lxq9qVnPHVz+5x+n7nv7+k26nVzQv7j/tL/1R28vOf3F7kV78Xf1ZZiA3pEA6TylW19YFZlepUx156i8wm81I53MurPcJVM7+9PneEpuq++scjIO04ulAIod6nZgnoxK8AD8I5aUrzbmVDrvDAhzgWlUZ4tBnvd9ifzTHGEOkLcpT9JKExX6L8byg047pdFss9ztQV5xZbvP4IEN5Ib7Leq6rmkmaM8tyiSJK52wsL9LuL1LphMprUVqPIOzy5td+juuf/yKvvfYq8wpW184StnrsTzJmqaVM55xZbNGJIjCKqpLKatM843w8ou2V3N4pmdoYG8TUSK2BIi+ZZSXTWUYv0NRFSi/2SQtLGGgWEs1CO2ZvMOZcP2J7mJOWEEUhK/0Wh5OMWZqTl4rhbMztJ0f8o9/7Pn/77/0B7370iOFA8J/qshLt34hRVjvhrCzO/CcTMwgDwigmDEUbByjLgjQvUEpgAARoUMaHA+d0nSxCARdd1Ow0VjCrrq11We0nHE4zaqPIa0tawu5UVnLGilA6mmbszwqeTQoqKxmy/djDoFhYXKI2ltFgxOpCj8+/eoX11SWCMOTwaAhYKlcfWznHs68sgSeJUlIlS6F9j0vXrrFx5izTyQSMxdOKduyzudwh9APGs4Ia6LcDlFU83ptilfiLlvtuZXDsQAasJJd5GtpJgqktvXYLawrybEY6nbLQaTEZDijTFC/wSKdjtvb2yNNUBIEV3KdOu8OFy6/gBTFJu81nVgpeX/dY6yTgBcyGE0w6YykoML5PkLTQFiLfo5OEtLyas52QbjtmqdtieaHN+mKPc6uLXFxb5MrGEq9dXOP1y6tcPtNnodPC9yLSSpFXmqXVNn/9P/wGN66skI2G7G0/48HdPT68O+DeU8M49QmiPoPUwwsjFnsdgQqpDXkhRZUaZnf8132WjGH31hRsbp4hjgL+2l/713jl+jU2zqzS6/fZ3TtgMplhraHdTkjaHbJU5nyTvdyM2xfpRYb6Z0E/7n1PH/eyc/7MhQGNvU8pVlbXBAr5tBCg6U/5nKZTZtMZ59a6xF7F7vgk8qhZFjYCQeoDagJlCTxNNwlZTEL2Jhm1scfMJPA051dabI8y0tyQVRVFLfhDy52YpwdTitqwutCVmspas7aQMJ3OGI1TZvOMwXjCNKu4v3tIUVTUtRVkTGOZF5a0tCz2uiwv9THGY/3cZb7y9W9w7tIlLl++Qn9hkZ3DMWXQ5vvvfMjv/O63uX//Ie9/+BH3Hz7mcDhhb2cXPwyYjsdcWu9hLcyzgnlekOU5m0kJJdzenpKqFspYTDHHFlJwZ3MhobQeX7iwypW1RRbbXYpKtOEkThjPcnaPRmz2QnYmJaX1QXv0eh129o6YzUuS2GcyMzzdHvJg+4DxtMIPQrCeVEJTku/h61NmPodyaZwTLkoiktCnKkuMqfDxSWIfazVlbSnznCTQvHXZ53/ypmacp1xbW2BvKqitJ33cSAgLDiK5FSpi37Lc9TmcFmSVmJSKypLXSPlK55gXuGxfxpZSKGtoxz5lbVhcWSHPM8bDMbau6SYRURAwGI2YZznWwvryMlevXGJxuU82GfPZy5tc2lzh+uYGZVUxnOdcvHqFv/Sbf4kHDx7Q63aYTiZopegmPr0kRGvF3e0h03mOqQxJ6PP0KEN5kvm70pOVAVZLCC+AFc1dKYjCkMAPWT+zSuAH1HVNnmVYYxiPDqE2dFoJ08mQw519TFmw1PG5fqbPF66f5bVr51hYWaYdR5xdX+JCMmdBlYxKRTHLKfMC8hkrixF5JTW4W0FIJ4kwdUViazbXEpa6LZb6bZZ6HRa6Mb1WRLsV0u5EdLst1vs9Lm+sc/P8BufPbrK2tsrqmQ7/8X/081w4t0IxHrH3dJsH97f58O6Y209r9qca47XZnhru7E6ZFTXjeUFpNVYLcGAYRoRhSBhFBGGI50llNk4xautgUP7Nf/03+eLnX+fWrVt8/o1bPHi8xbOtxzzc2md5cYHr165wZvMcWTYHrZlPZ8cRUsKC/mTG/6JweNnWHPfPk168x0+1HXPQPwNSx5JcGnPj1hssdLuCOaNBKY3ki4i/AODoYJednWe8dessa3HK9x43xc1PBIL4DKzg11iBIrCm4tpan6trPd5+fMQ0F3z6IPBRtubL1xf54MmMaW5Y6cccTHOoa375lVXefnTIvDTEYUBWWHxVs9TzCT2pe1oUNYMMlpMW7XZIXlnaUcCN82ugPTxf0qMsmsNJzg/u7dNbWmVWKIaTQ1f8XDGZTPF9zcryMnlRMZ/NwFT0FhaYz+d4CqIo5vqi5ss3NsiKip2jMc+OhhwO56SzKXOjGM9qWloR+MI0X7uwRBiEZCU8HaesJB7L7TaFqTmc19w5mrF59jwPHz3GszU/d6nFu1szJoXUFrh0foMnzw7BWqqywg801gjeTFlXaC2wvgB5WZFEIfM8JQpCASyzEHgeRVEKkmcYEKiKXhxgVUhhLVUpET5hEKC1wScnMgVn+iEPByW5iclqMTcdpxZYZxaygltljGGppbmymjArKu7sFRS1PV5haC0VxuBEMFkkE9pTkpAiKJ2KW7duMhpPefp4C0VNHHj0WyGjWUaFQEdnRcUsTanKil4rYn2xK3WwjWUwz4jjLn/hL/0mcRzz3/ztv8nG2gY729vUdYU1pWQrdyL2hoXARSgJGfU9H+XqT7x6vsO9ZzNMJePbGBlzVV2iNaytrbC4uMbayhKbK4sUWUaezvADj9l4iKd9wtCnTAcsBCX9TkwrTDAGqrpiVsMwuUiWFYRRyJn0Lr0A8COOpgWVkVrXy72EwawkN4ZuHAFiJmrFPgvdkMDz8F2p0rwypGVNUVrysmI8L9gbTNk6nDKYF8yygjjM+E//k69xdcknn6XsPdvm9u0HfHhvxL2tkqdDxTCNqJXPs+GMTruNH3WolYRs53lB4eoJvIzKshQwQFe74sz6Iv/2v/FXUcWUs+cv4EcJv/M7v01ae7z/4X2Wl5ZY3zxDr9shLUvee/sdHj9+Qu2KTz+Xp3BaB3HO6GMF9Kekn/X8fx7050IYNE7FazdfY2VhUZql5TerBOjN+ecYHO2zs73NF26e4WKv5Nv3MxRS5wBkQjXCQDlNSllDVRZcW1/ktfOLvPv4iGEhmThaKUxVcv1sh52jnFFuKSuAElxVMd8zhL5mtQX//l9Y58LFBVqdAD8MqUopxDIdD/jwnkdeJtRKC7qk8qitoTaWNK9pJW2GacF3b2+zdZRKhrItiQKfXrftNOYApXzyqsRUFUZpsumc0WhIlc0ItOUX3jhHv91i52jM070Re8M5aWmp8ald/HyezQUi2fcIfU+crS5uX0DDBIkVpQmCgBvXr/Lhx7exdc2XL7T5cC9lUkikURBoqkriyI2p8X19UobRGCpTk7QiyrySDA+lxBziS3ilMQbtCeqqgKQpfE/RigOKImdr7wDsCcCg72miKBb4aB2CVqLRO+3l9Iht+tocA8EZfI3UOVDK1TYWm70ILA1auaxchVaG8+2CYeYxqTy0UoShz40bV9jfP+TZ9h7WWJY7HovtmNpUvLs1xFdKgPgstOIIlMJUhdj0Ad/3OXfhEr/5V/4yd+/e49u///usra2z/XSbqi6w1lCW+bFwkokoTvcmL6AyNa9f7HNve0ptNMoaalNLnL21rC2EnF1bZntSor2AG+c2UEoxHe7T67bRtiKdzUmiiChUXFqMacWSze55mq2jGcMyQC+dI61qNB4Xigcs9xKSJCIIxHattI9W3qnkPDGBWaWprSUvSvYGY54NphxNc0azObuDGbtHU8ZpSW0Uyo2Z2ho8U/Of/Y/fwB5t8bUvX2b/YMidu/f44O6Ih3s1R6mP0X3u7c/RWrHS6ZLEMY+HE8a5A+dzwr/R1nH8xB77mWRs5HlOVYrgvLjW5auff4ULFy6ggogffHiHcaa5fecBcRyzurrK8vIiUZzwzjvv8fTpFkX+yQpsDVk+GZr6kzL10+39aehnPb8h2+TuvPjDj0unJeLpDniRflRjlZJkGGstl6/fZHVpRaaGlqYpJZ/lH4yHR2w9fcJnrq1xfUnxrbvTY2djIwgAmZROGESeYnMhoihrVjoxR/OcSSHp/Lh0+dDXtJKQeWmJPY/lbpcwgF7i0+8mBL7Y2T9/paK7EqG9gCSOmGeWaWYoC0s20czyCEFfkRDSojIksUBXl3lFYeCPPnzI/rxGeT55kTOfzTF1gbJSVUvhsknLiroSh6uxkGZSEEUh0SRSvUxR1aIdawVKnwBrKS0mG6kPIIJNYD4k76Ixx3na49aNK7x/+x6mLvnSuYQ7BwWTSsw+8k4tvu9RlJLVHIehZBxXFXEQSuKT8w+I5iQFwo/DSQ0oHH6OkuIhTd2E2ki0SeB7gEUj9xW/s0XrUKKUUMeMU7rY9beVygYn0AiiumkXWmitZIJvdOTYnbkSB6hSRNrS8mtiT7E1EzbnBR7Xr192KKXPBJiuKgg8Z6qsFYHnUdXiHymNJQkD/ECT5TlLC32GwymvvnaLX/7VX+Ef//bv8ODOXa5du8qD+4+cGad24bcW3wnK4+gppwDVpuaV8z3ubU8wVnNzo8vnry6z2o7xpBQGg3nFBzsjlLFsrC5wcHBIEmrOrC7RjTTaWiJP0+20iMPA5SSANZZpXrA1UQxMh7wWQXre7nH+3Aq9Vosg8NA6xCpFUVZkZc28KJmkGbuHE7aOxgymOeM0YzgrGE5TGR8Ayj8WjJIBLmPIYtF1yRc2MpYCTV0VvHq9ze7ejO1Bzf7MZzDzeOX8MmlVUxAxnBl2xynjvCIrS5flLuOs4TZBGB7XJ36RyjynKEvW+jG//tZNLl04S2Y83rnzhGejkkePt/FdGG6/1yWKW2xtPWF39+C4mhmfwtsaalYOP+qYH4vsJ9v/HKkfBaDxs9BPYSb6NMb+0wgD5TQ9haArnr90nc21dVkNuFMaYYAYj5hOhjx59IDXLq/x6nrIt24PMAQy8Jz94LgNrlJX4FkWY5/KQC8OWezHLC+06bVCfN/HV56wb09R1JY48ImDQJiNkZdvTE1WFCzFOW8/GXE401xajRjManqdNg/2Jlxaa/H6+XWBaHCaeFVbwnaCQpFmNbtHQ3549zEfPHyGQmLyy7qkqiylK2ofBiFJu+Xei0siQlFbQ55lGNPUfnYv0lqs0lLfwUUhcMz8T5iisYbQD0jznHarTVVVaOcwf/XmFT64cx9qw2fPBDwaVoxLcaoGoS+mFhe9YW0NVgvUgRK8IBDBo63F83yUpyQpyNU8FtRMHL6OFngQFyWkHD6+pxRVZRyKqSaKAnkedaI9N2SUPZ4XjVAwRsqAekqRBMIsMytIqTLQFJ4C31PMcwldRbsrW3cdDL6neeP1mzx5usPB7j7WRSu5EX7CsEXqgUNqVQ5h1fM0SlluvHqL7WfbDIZjIt/nF77xDf7w23/EbDLF2po4gLKsqSpD6FsurHQweDzYn4DSGFvxyrk+d7YmVFYRuWzyjW7MK+cWuXZ2iXYcY6lkVeF7+EZMo1GgjwtAKZfNjQbPU4RhhNIKz/PIa01pPCo88XPVJVltGc5ShtMZw/Gc4bRgfzDl6WDMKC0wtYT0lq5gTcOUhdWfKATWaZu1qcizHExNO4DY91npWFYiS14WnFuS/hhnPt97WnFxMeTG+RUM0r73nkxIi5KD+dz5+gDjSpo2o8JKHY44SfC058aVY27WkOY5r2/2WWoFXDq7yNnNM3z/3jaPDkq2dg+Jooj+Yo9et8/+4RGT0ZCDg8GJwvEn0E8Kd9Fc81jZsg5S+7lR/mnkvNqIUD+xm76MnJb2KWRdYE5zyR91pefoZUxdNTZcN+Osy+h9+TO9uKSRz1qJffTM+auc2zgjE025prmJp2UuM5+NefzoHtfOr/K5sy3+4KM9jA2O7908zvHLRjSubgy/9vmrLLQTTAVBKAzbyMHHFZ1qC2Hgu2xWYU7WSvnJeZ6y2prx0daE79ybc3Y1YZzVdCIfL/Q5u9Dj6hmJQimrinkusBCD8YzpLGM0nbM/HDOeFaSFaOZghdk1kAJGTGOe1iRJC61FYChk0NR1TZFl8p6bd4SYe4wRgL0Gbtf3fcqyIgoDYdSOgWntnUwkK0WDXrl5hY/uPYSq5LV1n6cjwygTc4W1Bt/3MLZmIdH02gmBH/FodwDaI4xCPF2x2OsymaTMMrFrG2MchLKYl4wV7V0Em2jEeV4Qx5G015Oa0J5Srnatyzmx0o5TT+vaftLXJxDN0ueBViwkioNU2II8bjPxHKNSzUwQE5Jx1wpDj4uXznN0MOBgdx84YQjqWFERASt0aky7mbXQ63PlxjW+/4Mf4Hs+V69c4tz5i/zBN/+AssgFH6ojZSmf7I+wQC/yWFns8PH2EKU0dV1x81yPj54OqfFA+bJu0iLwIg82F2NeO7/KuZUuK70Wi/0WgS9V1JIoIgw1geehPSvQfrYCKsriAFPM2B9GPBtqDqcVh6MJB5OMwSRlNE05muXMClECcOPPOv+Lde+q2aSKmYRSK2uoq5q6LNHKEgU+gVZYW1EUlmlhKGvLxaWI9Y6iHRYcZpoPntUYpVlNNJ+9fpbaGrYHc/aHFcN5SlYLzHVDx0zaSuh5EEYYawld8hjHAkFhMBTzKZ7TLa+e6RNHEbn1eHI4x1hFGPgEQci8yJlNZ+Tp8xDZp+nF/W4kHr+b03zueKy98PmESZ9+qp+UXt6+E3r5tY/Pcj8rwQ5T/5kM8D95e5G0kkxDJQ73T2x8Yt+L1zy9H1rtPr1u9/j6x8fJPAagripGwyN6nZhzCwlPDybUbqAev+NTHaXcy6/KmoVWzPpin9rhz2uHvy+Hi9AxzsSS5yXWOEheJBzQKtg5nLE/LvC9AE8rDic5r270WA4UC62If/rDh3z/zhbvPdzl46eHPN2fsTtI2Run7B1OyWqwWuNrYdDGWjxfkxU1QeBRVhbfFUL2fIl88ZSLnnAVl6qqBKxkuDr19vR7FS1V9nn+yefmhR8PSKfpg2Jltc9wMAZbs5zAtICsEnVBOViPqsr5/OVFPnt1jfV2xL1nI4rakBcFt872+JWvfI55YXm6c0jmEnc87YqaWBF+mibhSQSeH8ozwskY00pRFgIhnOely9I9NQgQzbAh6zRQjse2wijFrGqUJicMnPYj48mNK3fS8dUseL7H0kKf+WxOmmbCbLTG95tVqjNjiV1H3i9yjKxqNTdeucF0Pmc0HNLttHnttTcYjcbsPHsm18NS1IbpPKOuxXeVFRXDWS4szJnclroBR+OMsqocRHggNTiAGsUot9zdnfDew0M+eDrig8d73H16yCQryKoZ/X6XGsU8l4L3337/MX/n997mc5emaDPnv//mI/7b7+7xg3s7fPB0wKP9CXujjHFmyKtmbjQCV0pZ1qakLDLms4w6T9G2IrIlsS3RdUGsaqZZhTFQGkiLmnFeMS2R8e8wkkZZxbj2uH0AexMltUm0wmqfjbUVamPZHecMphmFMzdKW071odv6/T63Xn8DL4iYTUfid3Gr4v7SEqYSf1ZRSkTa7jhnZzAHW3N2qcs0L8grMcumaUqWZqdY5qlx1+z5BC9z9VfcarzZmmNPnydC4PR2Qi9e8xObBuUUwRc3d4VPvXZDx+1ym3Z8wVNK/dShpdKIF/c+Ty/+fNLoF78rknaPXq+paeAeUD0vDIypGQ6O6LRizi+12DqYUjUJOS+lRi+0YA2rS13CQMpO+i4WHJf16jdRMQ4QrTKWeZ4zS3N2RjMebA15/8kBu4OcaSphi9Os5tZaTDeJmZUl7z0ZMCsMZQVhnKCUJ85MhywpmrbE0PuBMMpW0sL3fDCSaKRdgXGtGpOPknPdO9GexlQ12nNp985EgWNItTEuskP2NYJSazn+ub9uibm8sshoNMbUNUuJZlYoskoEhzGGNMtI5zmUOQc7+zzaHfBsnOMFEVjY3p9gdMx33vkYzxens/akqpmlqa4lGbhGAt1RTVatVpRlKcWDqlryMwIfZaXoj30hw/w0nda0PvmX43fwaecfk3JcBvACzdLSItPJhCIv5V0qSdRaXOiQ5jlaNSj97soKiX5zysRXv/4W9+49wBhFHEdcuXyFJ48fMxoOnfASLbtyfoMoDGgnEaGrCwGyIlvqhhyOM6raMp1nDAcjqrJ2ZiR5PqsEBzevKiaZYTgv2Tqa8fHWjG+/94RvvfeY77z3lD96b4t3HuzzZG/Cr3ymgzUlv/fumHsHNaUrHYqxEoRQG+paEHLrukSZnDKbk6UTqAoSDa2gwrOGWVExmJUczg1ZCW1fMSyl3rG49R2vwJklnG1CAX4YkldSdxslo6Udx5xZ6VPVJYfTjPE0kxKbzRsXtoDviyZvreXiufMMjg6YjY7Iy4LAD5yyqljotzi3WLPa89CUkmnsRuYkLZilGZ04YDYvmKUpRXE6A/m0QLCfGEnP/fqSQXbMx05/R50oaKeOOX3cjySFW5m+sPslAuJl24vHyg7wtNbPrQxESsjLFsWn+U2wUI6PQz0HH+zucHwj3LVe1pDnTzk5J0raLBwLA9lncRFFbvAYaxkeHdBOQs4vt9k+mlDVrsEvkKwQXOSIkZiSXhyw0Gnh+R5KW2pX4GYym7JzNOLx3hEfPd7lo8c7fPhol/cf7XL7yR73d47YPhoxL2pqY8lrQ5rXKG25v5/y4faQD54OXCU0hR8EBL6E4IGithVVXeMrje95VKYWjR9FHCcCSYylqlyorHN6Sl1hhee5d+g6p3L4OrURKASxHQqDt9aI3d7Z1jwtRWlMXUsNXCR7VymkapmnWF1aYjyZYaqaxUQEwbxJtnWCIwhDDD6T0mNqQqwnbZOsYo/19TX2jobSUQqqQp6lLCs8rVx9ZSXMoBmQ4vXGlxqaBJ4v4tuKiVCdGiO8MPleRrYZKKeO+bRjG3LNFcaKxfcD+gtdppMZRVGetEEpsrxCWRn7lRUmHMYRq6trAhtdl5w9e4ZLF89iqpKvfvlLPNvdZ/PMKg8ePiGdzQBDN/Z489ULXDq3wnQypR0HXD27yuXzqzx4ui81sq1lsR1yNMkxtaWqa4w1FGXBdDYjnafM05Q0zalN7QrKSDBGVdUUReYyqn0IQhHcvkcSeFzbXOTDu9t89+6MaSEr5NqUzNM5aZoS6JqOb/FsxXyekmclVimqGrLcMkwrBjPDvJT31gnhbM9nueNTYJm9LOpTiUAQ3iH8JQhDKodfhbV4yqPfbbPcS6hrw8EoY54V0oduJatQKM8jiRM8pYmjkMWFPkeHh9S1FEUKQxmbWlm+8aUz/Kf/wwv8y19b5Ve/0OGrtxKubQSsdyAOAp4elYzTkqpypUBPjRjVrABpLCDS9mNe7OaYUjL/5PdP35r30Nyj8TW9bHM3/MR+dcoS4AbncVube9imrc7f2vzeXPO5zQXoPLcykBsppIjFJ89pLqt47n2dOvekw19yyCeoaXjzN4zbLCwsuCWeHCM49s39hbGPhwfEYcC55Q57wwlFLRPgxes2FAYBthI8eWNqhrM5D58d8sGDbd6+/YC3bz/kvfs73N06YGt/zOFoznBWMEkL8rKmqJ1vwWnp1kWqaFHw5bpKoZSLY7cQRpGr4OWhtTDvsixlBlgppKK1ot3tAAJKZupaQNpc6J/WUnazqgSUrSgrcP3QoGYGp5KmmoHlO41c+krehVbiS1BOOAS+OMgjP8BTsLi0wGQ2x1QlC7EirxXzUiaG2OulTUZJCdDaQFnmBEFEVUms/uraCs929gk8Dw+5HyCCSTllonkA12asVN+qbe2ii2oxm81ztC/CsulNq4SRnPICvJTEOn7yezM21Auhhy+SeI0k92R5eZHRQEARj5Ua96+uDb2lJb785S/wxuuvcv36K5RVzWg4RFnLzVevc3AwJAo8rl+/we3bH1Fbxf6elGpslChb1uRZTpqVZEXBdJ6SZSX748wV8rGsdEL2J5koM8fhsuKwtkYYn7UVRZ4zGk8ZDkfM5zOWo5L/zb8VkY4m/ODRgNFoxHgyoN8L+V/8r/5jlq98neTcV/DbHe7d/Zh0NiUOPNa6Hq3II69qZjlY5dHttrl86QK/8bUv8q//+i9y4col5nuP2Ox4XOz7nF8SPK39WcnRvCYJPebliSmj6XKlFNqt8pT7XxT6lJVkcq8s9fh3/sovUtcVcRRga8veaE6WF06lcv8UtKLEjStFXVdEgaaqK7KywFoIw5DA15xbifgP/uIGFxYrWqFipeezuezz6tmIFpbv355Q1k7xOaXbNm0/zaPkszNJOrPQJ+ll+05IruOe5aXnn9Dxe/o0ag5w1zverYRhN3uad3/y5fnt+DKe9qxqJAk43cs5N3/ExPlR9OOc01h51fG9oLe4zKXLV/GU7wSSxDLj7FpKKUxd8vjeh3S7CV+/eYYPHjxlkMoxL5vo1jrHoqkFyvdk4er+NA8ujEAiV+Q86+zcx0ZKFHVVObhpI4lKSMyzclJYmJ2YfhqkSAtUWU5lpPJU5UZdFMUUVYXvh5RVSZHlFEWB50lJTt/3iJLE1boVE0RzvyLLKCtJxxeSv1prtJZAKt9r7PPiD4FmtSdCgaavbM3lK+fZPRiQz6dc7GmmhWJn5piWa6+1FUpJhmcYhNTWEHgBtanA1Nx67QZ37j5EXrn0RVlVztQFpqqltKXA9qCOnd7eMYM8xfplZeD66Nhh3nTFT0AWN+hPTfaXkXURV0kScfHiObaebJOl6bEa2IDMmbpiZXWVg6MBZVEIRLoWARlHAV/56lu89877RHHEZz/7OvcfPOThw8dSCnQ2k1wNVbGUhChVM5zO8TyflaUFPKX4eOtImH5dc3OjxYdbY+rKUNaGvKwo61pyNlz0lEahrSX0YLnlcWGzy8/dWuHf/fUzvPvBDvfyS8RhFz+K8KJF5lXN4dEeR7uHHI5HrHbhydYB83lJHEZ02106sU9tPYrakpY1uYONnqYps1nGbJIyTwvSymBpzJkGrWGp47M3kYg34bAnfapcPyg0KEu7HTNJc3ytWF3scv7CJoHvc3ZjHe37PNo+YmfvgDxLORqMyLKcdjvhzNqqVJXzRQhUVc3RcMTBaE7geyRJzOXNPv/GL2xwcTHj/FJFEPkUxYxstsdoYvkv/usDDqcyF/54u6YyolS+dJi8ZL/lZaYhdep5T+i0str4DNQLysmLCq3c8UepPe6cZn5IrMbx8c2ZzT0cuMtz1MwvrEV5ntfMFRTK1Xb9yelFJvwyUkhc/HP7Tp3X6fW5cuW6OB2VeyGO4apGMpuKJw8+Jgp9fv7WJncfbXMwa17cy0krKbSep5m04IWmai1assAXNxnNck9jDMpAjTB8z/Mk81GBL3GJEspmLVVVSQFtpUgaP4AyKK2p8py0kOgEpTRZUdPv9bDOHFCbmixNMQ5PH0S70b7vuJkhyyriKJKIoqKgrkqJSLOyimi0gUagNQL19PMcf3Yaljg/DRcunWP/aEI+G3Ouq5hXmmcTYeSqGfguhFDMTriELrDKYsqSV165ykcfP0QpiaZKotgtaV0ewEu7yA14GYDUlSHwPOZpRhLHpOmcpN2Gps3HZ5wM8hfp9MrheHDzYwgDa7G2Jox8rly9xNPHTyjSVAouaVkR4sKBj2sfAEEQ8MarN1m/cJ7heEbsK37v934fzwtYXOxz+dIlvvf97xOFkcsdKWiFNWcXutR1yZO9CfvDGZ4n+DC61cJXmtpU3FyN+HhnhjGCylrZmrI2ZLllIfZ49eIS/+YvXeHVa5sk7RYra2uCcEqGzidMsxybXMGLemiT8g+/s807j/b5tTevkCjFJM958OA2v/5mTn9hje+8u83f++2PePv2kLTwSEsxR1qrsWgq5/uyTSGdhnMoGQfaWlY6mt2J+OhQ4iOQPmmUOllk19aj32vR6fb5zCtX6fc6VDUURUnSThjnFUfDCbtb26wtJrx+8yKehf3hjDLP6fXaeNrj2c4uT58dMJnNyeqa0A+Iohb9Nvz1f/U6K+2Cjc5YoOiHO9TlgPtPLH/jt2u8UNaaf/AYstMWhpcw6Iaacdf8dViqjj5py38ZiX754x17msTn8uLeF0iJgBYjuzvpFFl18lyn54/ytQiD4x36T7rTT0bNzU4mrmzW/Xb6wZJuh8tXbxI6c4ZS4hwT23HTaMPWw9topfiF18/xeGubZ+OXyTxHttkkeYtjM59qWIUMbO0GgmoqnjfRIe4yVmLpxabohKmLdbZNnDmOuSpFK2mLhq+QwDZjyNI5tYteCsPI1SWQi+V5Tl2WDtpZYu3jxDHBU31pgTCKxTRViyMxz+aUeepWJRatnKathIFqJcPOGkttKyJfyn9WhKClbOW5C5scDjPS6YTNtqU0iu2ps4PitGYEA1+YpkzqspTi8oGvuXnjKvcfPjl+52KvdANPiVYvBeY9tCdtqkwtJTSdP+O0YMBK+2XpeszTwfXf8aTk1ApOfoXTC7qTvcf0oiBpJocxhk434eL5TdKjbX7u5gYL/QV2jkZ8851HjGZSUMW6cFZrxcegPJ+6Kuj3e7xy6xW+80ffRXtS2/hLX/g8P/jBDzGmpqoNVZEzn0+gromdKSwvKvKqIvQ9ojgU52td87lLC+g4YXNtkW67zepyl5uXNrhwZpEkifG8CD+S1Vo6nZKnc4qyYm93j3TwiM2FKcZ64jMi4Pv7mxyMa/A8yjTF2pqqnvPlxXssL2mCKCRuxYRxhNI9dodw9/ER97ZzotYi/+9/+B77o+zkRboxhhunCstq22N7UoqmiiKJQxYWF+j1+rTigG6nzfLSMr1+j147ZqEVCECgKYjiCGM1W3tjtg8nVFWFXxVsLAbcPL9MUSsO5wZbGxLPkOUZ89mM2TxnPE2l+pn2qIymrEp+7ctnWAiGnFvKqeuU0XAf6inf+6Din70DYQSDObyza5GSQyfjqBlN1o0ddWos+75PkkRorSlqy3QyPdbkfzJSJ8y6Ue2f+7lhYD8DuZXIJ8gZR46/Br7j/i7z7UQYNCf/eA15mYb2STr14M/tlskbJS2uXLtB5EucsAiDE40XBcpatp/cw9QVX3/9HHu7ezw5kuiLTyNPacLQJ8uk4Il+gRlYajyeX7aZZtnlnq1ZeVgrWqexkn9wfI51ws1tiRMGSknMvLKasspders4mMNA4qKNleIvWZaK1qUgTlqufeInAXl2q6HVXabT6mBtJRj+8wnTo32xDTnpKhXHFIFKubCiefWMx2ubsL4YoQkpbcQf3h3xzXsepVVsnt1kMKlIJ1NWY2H921OLxTKdzul1uxgH36EQv4OxTeKPpS5zrl65zOOnz6jqWgqnlDV+EIlpLZAymc3QPu6tRric0qmU0lRlQeCHzOdzknZLxoB796fppA9PCYQXhqxyfobn9n1CEEjYJNbS77bZPLPOcOcRr58VhqW1xz99b5th9rzgsCg8DSgPqxWb66vcfO0W//R3fpfAC/ACn6+8+SUePHnI/u4eURgznU5J51PSLEVbS6+ToGpDVdRcPLvIL751la+9+ToX1lbxAh+NKAcWS22b6DGDtR6Ymv/Tf/X3+N4PbqO0ZHH7LjrrYmfKF69NMdbQX9bYqMcfPn2TvPSYpDMG05Sj4YjPrAT8K2+tUtiabD5HMcHzJlgzpXZ9ab0eh+Me/+U/3uH+boHSEpShmkATZJ7WNZxb7GBbXW7evMri0gpJFNGJA6yLwFpbCHhlPWKtE2GR2tgfP9lib5SzuHKeSnkcDcdMRhMBUVTgm5TlXkQrCYkDH5RlZTHCGkVZ5IwnKY92hhwM5yg/wFOWOPS5uBbT1iN8NaauRlT5EJ8R/+S7lu/eVVRYnoxhUkngQtO3z9GxMiPAlxcvnOHcxjpRGDAaj7n3dI+Dw8GxLnISWPPpPOlPhZ4TMvyJqxYV+J6bR+7A59YgP/qhZHK/fKn+qXRKSj03IZVovFdvvELkSxKZyIFTAsEJg73th2RZytduXWA4OOTBfuam/Kc01WlwyjEU7RKYTu5vZK1igYbxO+ZuEfOP5yADlGM4xvW8aiKwrNijGk281Wrjef5xu6UZlqLIqYoC7fkEYXTMpNI0O66xGkYR2vklULZZbQPQWljmytWbnF1bZqHfJZ0MePLkKdXhu9T5hH5i2Fi0rHQ1vURJgp32aEcKYyvquqKqLVmhGUwqdkc1v/8wYHHzEsO5YjYashRbNLA9w00Ql/QmMhuQCIuySSzyxJl+4dwmT3f28LUnJjPfc+dLNrSxEhHjeQKrrZwA1q46mvY0ZSl+heY+zYM3z/+iMDimU3bTn4bsqQSqXjdhbXWZpw/v0/UlwqWsJSbeqEDGvTs28D2uXLvG5uY6Z86sEyQh2Szl9771XQ739kmSgG+89XNMJlM++vgO7UizvBCz3JNSl8u9Fq9dP8P1i+v0O4kzp1j3pFbmoELyM9w8aRiWNRLJ9X/5f/wDnm4f4Pm+ANFFHknosb4c85mbyyTtGKU0aVbx7Y/nPN0bkxeV1KroBFzfSLh+/Ry+r0n8AGtqDgZDHj7c4dGTPYbTlKVwxqVzS/znf+cRd/YL4iii2+3QaiWEYUy/2+bMxgpLC4skSchyL2Y58QiVIfRhvRdI2VlPUVQ1WKitYnc05+5uSqkTwrDLOE3ZORrx/kcP2Nk/wnP1mq+tt1lMfDYWAy5tLAm0tOexshih6ybMWoIbpmnBYJwxnc1Jy5I8nxMzZSme46sRgTniW+9X/P7HmlFec1B44px3fN/KgHhxiACwtrLAuY11Oq022IqD4YDHu0PGk6nwB3BckU9hRn/apJ7n48eP9cm2qSAIGuVOmN+n2GF/WpLB/SI9v0cpmfR+4HP15mtEvtQZoBE0zlyknVlpf/8pk9GQr9+6yHRyxL0dByb1KZxAudhvyeS1wpxd1a1jzdLWSFS0lrwAKrnccbjmybWPP8uchUZjVSf2+jhuEYShYPBo7UC9apSV6Ic0y4nDCICyKsnyDD8I8X3BFmq05UbwKCBIYl55/XN8/jNvcP3aNbLREZ623L97B2/r73FpsQCd4+sCECb729+rmE5LwqAmiaEVagLEVJWWPsYqxoXHtrfJMIuYDo/oBxbfh6cOHnw4ndGJI3wvEP6sFEVZEgbyHZc/0el2SWdjauOhKMF6EguvFPN0TqfVAeUA8k7UKDfmThQYrWTVoRVkeU4cRadMEY7pOy3u9Fh9cRKfPvY5cu+2Ge8nuy3G1vTaCYtLC2w9fATWcm2jzdpCi2/dGWC1YO5YAG24euUab3zxi3z/D34XYyytKCKKfA5GKePDfc5vJPzV3/hFPnP9DJ3Yx5SW0PeJYlzUVy158G5l3rRHKadyO6EjP4pgtsZQG3McBp5mFbUBT0s9BQVS0lE3sOLaGfmgLi3zvEQZC8rD8yyRHzIaz/nODz7i+z/8mP3hjCwvmKY5WV6RVTW/+YbhzTd6vDv9AofzNsZT4AdEgUcSKM4s+Nzc7LHSCbE1WGoCbaQvDRgrARzWPQPW8vb9I/bmFW++tkm/2+Eff+8xHz/eZzDLiZI+jx7uMJlOaPvw7/2FGyx2Eh5sH3A4LLl1scfROCMvc16/tMJCfwnrcLqk+h0yIkzJPMsYTmcE1TZ+dUBRzPnW+xPe31vk2eGYZ4OU8jiB8/Qa8vmRY7FsrvQ5t7FGKw6pqor94ZDD0YzJvGA2dyGw7lhRnpzy2PTpy8itPJrx/OK4lkN+vH0/iqwzuz7Pf+0x31RhEFo+wZ5/Mvq0B/hJSLli3Zdv3KIVxahmJeAEAc48oYGjo22O9g/42muXKNIBt7ebiA+3nMNxBveQx22zAocgxVQkpV9+N5/ImbBWXopy57+Uju/hXvGxb8PiByGtpCXp+HHC57/6VdY3zvH03occHh1y/+596lJQL/Msww8FjM26+zUbLrcCa+n0urx661U++8Yb1FXNcDSmTOfYckb17A+5tjChKEvG0xwU5IXLP0AyiEPPJ9TgBxalLFllMEaR5/Beeob9vMNkcEQvrAl9zeORRIRoJY5/gxWUiGM/QvMSoChLWnFCVuT4WuCqk0QS0qxb0UmH4pLNHGqoY3jGGjytKYqKMBbTkqcFbK/pDIUbqE7AnHSC/GCRjjs9Ho+Z63FnusOdUiCC3wLunZuaVhLR73fZ3dpioddmMs9dclwouRsWmey14er1S5w/u4kuj0jCiM3lHtcvrvDK1VXJprfG1dVwuRPWQWdbabF7ncdL+mbcW1c/2yKM01rB78LlnyhPQP2UqDdNo44nu5WHlnZaMEYiu45GU/YPR4wmKbvPBrx35zH3nx5QVuI3M9TY2lDXgo5aWYOpav7ia4a3Xg8wy7/MzCxxf2ufjYvnSaoJP//GeaxRGDTWVOLArGXcKrdaawS9tfKhNjVeN6FK+uiixNQV3/vgLv/oDz7ka3/xX+b1W6/z8e07vPP9HzA8OOTnX1liY6FDWdfsD6d0WyG+Urz34BAbBjw5nGONYjzPSHzFV2+d4/xqH98zUJVkRUbL3qcdjpilBd96N2dx800Gs4KDacqTvRFb+wMOR3NmWUmel5TVKfgLBZtLXS6vL6B9H8/CYDplWlh2RlPm84KikJW9jC5Z0TV98qJ1/HgY/gz0iTH+J/JftzJ47jgZ+wAqcsLgR1Fzkx//ps/T6Qa/SMfXkgUAF6+9SrfVPt6vHQwETovXFsajfXaebfPWrQuoYspHW1Osdc6f0/dz+RKn2y22fdxEam59EmF0up2fYCSnrq20L6GC6cSFboKALbhnUtBKWoSBx6/++q9z5uw5vvzWW5R5zt/9b/82tz+6y+OHDykLwbL3PBf06jDFmvs3m8LS6XZ45cZ1et2Eg4MjijzDVAWdJGSpesrl/oC0rImCjOubfbIq4nCUMZoWAl9ta0JVEfqaygZ4aALtcXs74zFn2C17TIdHdAOJFX80tM5fYbFWGHNRlmK/NhKh1bS2qmqCMHQmJWH+zdvDGmZ5RjtOsE64CPNSxwBfzS55z8I469o4v8vJby/qau7sU/ueJzcinpt+6ni/i3JyvwmjskSRT6/bYrC/T5LEpFkppU3FusHZtQV+9Su3+OKr5+l0W7TiiH43JAw8x/CPdYTj+1oLWGEWzVjTWsKFlQMZNIgAMMK9MbXYB61S+EoiuJTD0zK2mdhiQpIABiuM2GnfeVny7HDID9+7z0d3nrE/mjHPLZN5StrAjbsmymuvsUahlOXS2UXWVhfxPcvmYsTZRQ9jJgQa/uAj+M7tfTYuXGb30X3+1//Tf4kbm6uSjOfAC7Wy/KM/vk3iab7+2cvY2oDyUN0+dWn4vR9+zBe/+HNEvS77t99h+8EjCpMTJx2CzeusXLjF7t4+b3/nO2w/3aFIx7x2fpFzqz2S0CMMXAU/qyiN5jv3j6grCUzoRprlbkQnlveaZzlllXOxc5tWXJLPDN+/W3Lu4ptYJQjDhYG0tIyzmv1Rzu5gxs5gxP7RiKOjIXlZkoQhfuBzbrnHeDwjr2oWFhfZGw3ZPxyfHmKOTszTNGPgZCC7vm941aeP4T8tek4YnDQMafBzD/Kzaf4vo+eup0Apy4Urr9DrdFxUjvutCZt0wmA6HbD15BFvvnKR0M744MkYbANxfIpegHuVtYU9nqBKyTcPiRA53ZzTQkE7ye55IUEYsbC4SKfTod9vk5aWD999mzAIqYoM66AsADwvYHVtkVtvfI63vvxFPvPmV/m//1//Sx7cu4cXBDzb3mEyHkv4pQvVNE2pRzhhxC6Cqdttc+XSRbrthOlsTjZLsUaW4yveAVf6B0znBXsDjefVXF9XtCOoKijrinkhJpg4NMzyCF8pIl/xcLfkcbXGrl1kdDSgG9a0Ip/7hwJBHYQ+ZVnjB6EwOX3iU6FxpDqBVtc1vqfJypzAC6nriiCQbFD3VBKS6uSr5BlIYRmtlKCDepoyLwijyGUrPz/LTl/r1N5Tn0++Kbc1vd58xwETQjNLGxNMRRhoVvttWpFHHIYs9Nq8fvMcP//FK2yuLIiz2Fo0Ylq0iGPU6R8n7TrWIdwq1/kDjvtXSvNgrazQhCnLUcr5UnDCVeAnmnEreSOeUlgLkzRlOJ4xGmfsD0Z8fHeLdz54xM7RFKXB80NMYzJzKmozMypTCbyFsawt+vzLv/JFWp2QQCk8VTMYDBkcDrmy1mE6n/LhluH7D4a0WiG9Xp9zKx3+o7/2F1CVwDxgDcbWKOXxf/u736HfS/grX38VUITXvkp4+S1+8M3f4Y9+97fYOLPIubNnUY+/Q6eVSDSZVnz89IB3nmbMcxgOJ9RVxm/+3BVagebZwZheK5JoNGUpatgbl4xzi1ERaV5QlyXj6YSsKFjtJaz1E2Kv5PPnnhJ6NZNRzjv3LWcvfE5WQ1YEbI2lsh55IdF0Ze0zr6ygt04nPDuacjhOUaZmluZYLO1YCh5tHw6ew8tqelLGu9vjssNfpBcRT48VzlMM6cXvp/eJsshzDOxlx/9JpOIw+mTr/gXRpzWu2a+wnLl0lcX+wjFDVUoEQQNJoZUim095/PAub1w7x4Jf8N7jgURW2BMfgJz8vDCAE7fCyXHGafNNxzUv+NS7VZC0O7Q7C4RBQBzFXLyyyeHhmO2nT+m2EgaDAdPpxGlAMhSUUrTbLS5eOMvq6irGKg6Pjqgd6JaKIu59fPs4qawZOBbRUMFgjZJIFyxxEHDj6mUW+l3Gszn5LCPwNEmoSapnXOo8Yzw3DMc1lpobGwm+ttRGALis00YDrZhkFkxNFATsjT2Chat8f3vOk8MpvVDTSTzuHtQop706TgVGmEpRFERxTFkURGFIZewxZAZWzH4NRIYUwDEEnibLTlBKRQi41Z/w41OrACmQo5RzXJ/w1+cGfcPWJNTVnez8DQ01Ewa3GlTKDQS3+ujEAdfPLfGZG+e4eGaJfq/DSr/DwkKLbjvG0wIffqztW2f2AkDMPtIw7YD4ZKUIspQ4vfJQVvD+m+e1VoSSALxwnEwmY0iu5bniPsoP0Ar29o94+4N7fHx/m6NBxjgtOBrPGM9EGVHac5nKjVIjKwaNIi8rhpOU6Synqi3a1oTa0A7gM1cX+caXrtLrhiytLNDqnUEXNXs7T5nNci5ev0QYJOwejfE8jxtXzpMEUowHZ86SMStC7v/8N/6A8+t9fvOrt1Ceh7rwZW4/mfKdP/xDRod7nD23Qn9tgy9ET8Eqykrqf9x+OuSbH+4xySrStKQXKf7yWxcZjua8+3CfeW5oJaF4+HyfwaxmXhiMCxH3PUUr8DF1hedJrehYT/lXvpjiKcvRIOWHdyy9hSuEQUASSaldYw07wzm7wzkKT0KGtWJjIcECpdFMs5q3H+4yK2RuTOY5WiuGkymTtCDNK6palDjlVrjHpBoB4cx47jejTo/R04efHuc/HYP/SejHFganG/tig158iJdRc/6L5za/NbR+/gIrSyvPCQOFZKkowCpLmc95dO82r1zaZK1lePfhEHOqKMTx9T5FGDz/LBI5o15yLAiWfqffp93toYDAD7h05RzjScHhwQ4bqx0+fP8e6Xz+3PtRMtdRCi5cOEOn22Wp38Eqn3mek81zfD9g72jE/u42/rG/QP7X+DE854DGGJSpefXmNXoLS5RlSZpJAZzEMyRml4vdLTyt2TmsoK6IfZdjoEEj+P1aVHvHCBVlZTF+l4uXPkN/aZmjfMZvf+cenjL88cMpyg9Ii4y6snQ7bYqqJnQwAKZxxDr+TaN5KjBGigfVtZSyDHz/WNA1jJDmjxKtXB2bgZTwFsdTT5uGlMvodpkTnORlOxlyfE3ThN7ge5o41ASRT6g1K52AqxeW+fyrF3jj5iYL7S7Kj9BWY5TgNjWT+USHdisJ4bAyXlz+hmpWrVq7+X3i72ma15xrjPStxY1Bx6yN8vA8TyCWXaRWOi9Ii4rxZMo77z/gW9/7gCe7E4wXoP1IhIlj+jhBgqsNUZeCY4S1jGYpo+GMLCtJQk3oa7qJZrXv0/IjlO9j65zVds218xFLbZ+LF3qESzeYD3PayxtcvHhZ6ptpycSWcFIXfu1wrprHFX3A8r//f/4uN88t8xe/+hmULTmYWP67b99je/eQsih44zM3sL0LbA6/QydJqG3FvCh5up/xwbMU/AgF9Fs+r24k1JVhntUcTTP2hlMORzOU7zuQPkteVeRFgVaWm+c3aEU+vlbUZUYvyvil1wuUytnbm/PuA83m+iu0koDQ86iRUNkf3H3GR48HxFFAGCj6sc+tS6v4vi8QNCh+66NdbBCh0ByNR/zC65dI84KDWcH+aM6zwzH7wzmjeUZZ1VRG6qK8jPf9eSKVRLE9zcz/tBt8+n4KWNzYZGN9/RjqQQmHkOnvPldFzv27H3Hl/CoXej7vPDjAvGAmkvNOGLw67TtwS7goadPqtBkc7DTpJs+RUook6dBbXEY7+OiV9RW09tnf2+Xs2U3e/8H3ZMloG8b0POPylCKKQtbXV+h326wsLRNG4ix+vL2P8nw+eP99qqKk3QpZ7gYstWMiFxUS+D6xtnjK4PsKE/aIu0vkRUmWFgISpyqq2Q43lg6IQwSCdyb3ByVhc67ITFkaslJRVIraaHIDi/0eX/rCm/T6PbwoQGufnYMhd7dHfPfeHh8/HbiIKEXlwObSeUorSSQO3ZOayFprWSoLhxSGqtQxKF4TrZXlEppYlgVBEAhjt1K5zb25hn0+LwyaP/Lz8a4T84uY1HxPcWmzz6tXN1hdarPY6bK60md1fZGl5T51YfnDb3/MYDxnuR/zjTdvHkfhoNzqwTZwwe7+biwpNy6UOnm/0hgxnVmcBmdEIDSmHWvdKslJQs/VlFBa4euQ6WzKvcfP+PDOU/aOZoznOdv7Aw6GqZSNdJXe5E4nK0jlQAfTNGcyTSmrEm0taVaAMSx3ffodXyKYAsEzGmUVR7OaeWlJi5p5bigMfOlCyK+81mWzl3N+tcvQLFN0L/L1N79AoATGXcy3IsQsRoSXM6Mqq6htzWSWUpeW/+P/959yaWOZX/jCDRa6IdYq3r6/w97BmMk0ZWm5R6XbtOZ7JO1AQpE17I4KtoaGdm+F2SylLHIWI7iw3EY5vwZIwZp5WjCcV9x5dsDecELk+6z223STEF8rIg0+Fb3Q8LlrKb5Xsns05od3A27d+BytOHareCnJOc0KxrOcvKwpbS2risDHuMzrqjK8vzVie5CiPIU2ls9eWhSkXa2Oa4UUtWKWVRzOcp6NBcL+aJwyy/Jjs6+M5WbMv0gn8+fTlPCXkxshVpSl0+c0yvinKuVJFB+37Ce76c9OzwkCN8P7y6uc2TyH57QtEJ+BcsJAKajLkvv3PmRzfYlryyHvPNijNsEJg2jOPRYG8oKUcyADJK0WV67e4JUbl3i6tccf/9HvO43vpE1aKZZX1o8RELv9Pp2FRZ5tP+I/+V/+x/Q6Xf53/9v/nK995cv83b/z3zMZTeRFN0tEd6kg1CwvLBJEAYsLS/ieot/uMpqltCKfnj8jMjW2FLjkIPQJgoAoDMAUeLUsf7MiY5BZcuMLVnxVUhQFVZ6Sj3e5eT6l2wpR1jAa1uQlzGYVael4tOfh+SFKe0Rhwrlzm1y9dIVev4vyBeCuBioDAQrlhUxKQ1FW/Bd/+5/xaHfMNCukjq4WXCEDYKRimkVR5ilR3CItUkIvpCxLojBCa3ucY9Kcq7RbLjum1ryzpvqaanxFSCaIcQitAnHt0W21WV7osrDQZ7EXc3Yp4ObFFc5uLBIELonIMfLCKNLMoKxHq9Xmn37vPstLKxwd7fMrr60Th6CUFlu5btJz6hONt2HqNIE/Yh5SRmGdzwkrjt/GdixQKhrtiYlNWUVhDFYpytzw/p2H/O633uW9O1ukpcILEmjKO1gcQ3DMH/GvNGO8rCoGRxMOjyZoLavHyLcstwPOLMd02j6VtaS5YX+UsXWYsz+tqfBQvsvHaPw+Lqryixd8vn5jgZ2J4ekgpQ6WuHGuzX/wr/wy7SSRhDbPhU87J7H2REnK0oLBaEIrCGi3Yp7tDfg//H/+GdZo/vq/9hVeu3leHN/KiI2+smA1vgaFoShkpTvPC7YOx4zSmo+fzBinNU93DxlNBnzjtfO8cnbJVcIT8a+VkQptSgo6zedziiKnTAvydIY10ofW1hyNRxyOR5QYdo4sr165ws2Lm/S7Cb7vuShDJc57Z7rRSgIgrIG6rjG25miW8WR3wN5gwmgyl7BUpIpcHPq045A4CAlDnygM8LyQwsKkgL1pzqPDCU/3R0ymM0ztSrX+2CQKlVBz3ov8+vQxPz49Jwz+JGoY5adJFhmy0sSTaArchxNNz+lap76fCIPOwhLnzl+Skn2nGPsxgwesqbl/90NWlzq8utHhh/d2qKzg35+c0zSC58JGm48L/QXanTZlnmNNxWQyoSwKVCM5tSKOYhaXltFa6h0k3S4HO1v8xl/+yyz3OniepdXu8Df+67/J4/sPxCxSVWAN7dhnuZ/QTyLiMOQgtZggJPBDkqTN8nKfJI4p8oI6z2knPiuJ5tKCAI5JDHoT8iptktDACdt7h4zHAq+sPZ92HNBr+XTaMZaMfDrgcKwJw5jFfptWq0MYxbQ7PXq9Dq2kRRQl6MAjryyHR1PG0wlGK+a55dH2IY+eHTJJS6xWTPOKw0lGURrQJ2UujRVIDAHuk2Q+ewqag4Z5WlkZGCNOYhoIbVfI19NNsIDYd3/x57/C5YuXiVsxnufjexpPg7Ul1jTmjwpTltSlIHeauqSupD6zMQLmVpSGPC9J84KqqFzyoMfZzVXqyrK8vs7RYA9tFYGyFEVFt+3z1qtnuLSx4J5AkuPkgZqKa87kU1fOVC6c1dKMUYOnAyoDzw4OuffwGc8ORwynOY+3D3i2PybLDWjJpG1CRptRKsxfkWcl8zSjKCQXIS8K8iwn1pZ+J6STBESeTxQrUJbhrGSYWmaFYZqWzDIjJgol7RcXjqx8TmaiaPZawS/e6vH564vc3p5yZ9+j12vx6tmYv/YXv0onSTAWDo+GFHXlBIjUm2hHEcuLPUJfIs4Gk5zf+c4H/O4PHlBZy9dubfDv/MZXaScBfiDJlBIbIbUTrJHxUJaGeZZL7YysZJSW7I8KnhwMmExnXDuzzOZiF6UUXuDh+x7WOLjuWUaWZxR5TpmnmEpgSKUutmj1R9MJe4MhR7OaJ4cFfhCy3OuwuthloRPTacW0koBWFNIKQ6LYR/s+qpZVXmUk5LbBZ6pqQ1pUFGVFUVQUlTyL8B4XAKA9cgODFMYlTCvLKCuZ52JGzbOc4WTKdDajLE9CUz+dnmOs/1zp2Ez0Mub+Ip1MipeQzPHjeFr39RPU7Fenjj1hHRB3u1y6dBXP3atpl3bwzABYw/17H9HrRnz23CI/vPOU0gYusLM5R6F0M5FFR+R48Fs6nS6B5/wQ1jKZTqV4u4trV0qxtLRCnERUZUmn1+Pho0e0WzHXb9zg1vkeg2nN3/37v0XsaVbbPq+e7fLKhWWW+l3wQsCjdAPo+w8GPJvWLC/3+bf/1X+J/+a3vsOdu0+J2n0uXNzk2qUVTGZ4s39I5LtQQWdGOG23Pl1lSzeAcQ6auzFJeJ5PXXtYrVGeLyauQBMGEduHU967/YT9wRTr+4zKgodPDrn/7JAsqwjCyBWlQWzbTSdZS42lLiW6aDgY0+t2SbOMOIlRx+9dSLkIobqqqGsJO/VcOU7lHLyNM00p8Rd4gB8GnD2zRiuJUK7usvakApavfLTvEXgaP/DwPPFFaOUJyJvvi91dS5Khp7SrRyyROGWesbW1zWwywxop/zlPU1pJQDuWbHFrK/7KL73GZ69fEoA6XFCBdlW+Kou1Tf6FjKcaj9BBgd/f3uO3fv9tvv3Du4xnFWEYY7WHUTKu5HWe4vyOLGLzHo5mHBwOKUuDQmpz9yPNmeWEzeWYONFkRclgUrB7mLE1MIxLA1oT4EJ13X0UshoB8bWJ4UAYFcrhTBl1/Nsv3Fri9WsLPNib8/GzmiQO+cLVFf7qr3yeuqpJfI+FdoLvIc+jHEouHspBTRS15Z9872N2BwXffe8+BsOvfvEKf/VXv4itSrSCVhLjKclDEGVBzIzWrX5sbaisobYVxnrM84zBaI4xhn6nQysOUNSUBkxRcv/RM3wrfiFTV5i6psgzsiyjLEtqhwm1tT/g2cGI/UnJNAflCcZQKwwIA58wCAk0oGW+eVrx2RvnWV9ecisEmQPGSCZ9VTX4VCA+Y4PVFmMUz8Y59/Zz9ueQu/BwgY+z5EXOYDwjTYtjWJuqKikKKQLxk60UhBol9mehT6wMfpTc+YTAaL42J51i8C+jZrVwfA93vVOKO2Er4cqVmyIM3Ern9MpAKVm2Pbh/mzDWvHV5nbdvP6SwoZgZnHYm8sAIfvrxDURqKyytdovQC9CAscYt2WRJqZRosFEs9mxfKylyojQLSxLp1E4Szm8scH2jQy8Jaasc3w0grGgNlZG6A6a2vPNkwpNJRbfX5sz6Mncf7dAKI1qtmKIu2Tmccm2jx7/x5iaeFvuyUs68oBSeOkFyFbutPGPzZE29gnlpOBplzNOMwPc5zCw/vPuMx1v7KE9ReyFP90YMxhPAO4bMMMf6aMMxhKlgZdKaWqInaiPY803nW6fhNw4ya6xUYjOSI/AyUm6loJVhsRNzbbPP6kKXKI7YXF0m6q9T1B7K8zBYjKkEgtyNF2slcsTU1slJARcUDVBgwuvaCPRGVVNWFUVRkhcZk8mMsiipypLA85ilOUGg6SYheVVSVwX/1m98idcvn29UC7HLW4uvLVZpxtOMJ1u77I2mTOc5T3cH3H60w2CSgwrkfbgJ4aL/UVaiRsqqIk1z8lI0wywvmM9TlDH0koAk9PE1dFo+rUhT1jXT3DLPDcNZwTityCso3UTTzoym3TvFTSuZXzLTZPxYPJRE1zTKhAtP9bX8bUWK1aWENC9IQs3l9R6vXTnDjavnRHkKfAI/dCYVAb9T2kM1taqx5EbxvbtPefuDHX54+xHWGn7j527wl77xBmCwWjKSrZVVYOD7BF6A1prKWvKioqwMnu+i0KqKKPSJowCUCGNTi+KjsOwcDPjeD+4ymcyIPE23HRNFAb6C5P9H3Z88W7aliZ3Qb62129Pd/rrf672/LvqITGWmIjPVIiHUUFCGMaDKMAwwYAAD/gEG/AFgNYABMMEYiZJhVBUmVIXKJFFKKRUpRWRmZGREvNaf9+63v6ff7VoMvrX32ff49RcvmsxKPvPr55zd77W+9fVNqDGBpq4qsrwgK0oqHzRR1lA5KCvLorRMZ0suZgsu5zkXswXLokA5y2997S7v3r5BPwlF2NBG8j2UpqxhljvGecWihElueT0tmObS77ssS7Iso6osRSXfi9JHn/kkQtc4/CvRXH9Zgv426Ar8bxP+W2awTsQbotA9yfkdXeJ93UVdx1m7Dtcd371eEEe88+5XCZQYbuV4IXxKCbEHy+PPP0EZx1/74DZ/9NGnZHXsF4ZnBlrC+Jos4260UBgGxElCoET2q23NfD6jrmrKsqQXwL3dEd+6t8vOdp8gjFguCz56NWVuegRaEwZSZ+XZo0/5xtfe448/PeZ//He/RkJFlclCr2rpbjZZLPnkdcak1OzsbHJ0fMrBzW12drYY9BKiJOLpqwlf2S55/2Ak1w4CKRVtpEuZJMatGIHWhiROGOcBP37ygqOjc4LQkNWO7z895ZNPjyiWGWFsqF1AbmtPG7rjL9I7TZE2DwqoqwWuljDFuq5QJsJog29FQFl456+PZmkv64lTF+SYBgGlmQ3Aw3u3eP/hXf4737rB5jCkVhKffjFf8s++97jBQurGEWstIM3Xa2epK7+cfFCOtatMdq01RhsCZdFOFllVw3iZk1c1wySiKCuW8zkay95Wn6quyedj/rt/5y/zzXduo0xEEIbMsyXf//Fn/N73fsrr8wm1C6mdI7d1axpq2ukomsxbJb0fbM3FZMLFxdSHFIOtLRrL9iDkcKfHsCeSdVXD5SznxfmS41lN4ZPcrBVG4mUE8Nq0mHy87XxtbWkgMI7ARyeFWhiHmNvFCSzXEEYgf44ogDBU7PQ079ze5te/8S53bx8QJxFRGIhGpiO00aCEOArTVuggZpJnPD1Z8K/+7U/59OkR2hj+2nfe49tfuc/L8zGvjs/YGCb8ze9+g7rKuTi/5HI8o7aKna0huyPRPJwz6EaWcJVkOHfrWTXhyHVJVpRMFguevzzj+fMTFrOlaJXewT3sRWz0U5xDIo5Kx3RZ8uJ0zqcvTzgdz1nkFWVVM0hDDndH3NoaMuz36fdCRr2U/iDFhAEFlmcXNY/PCsa5E9y0UHkczZZLzs8vWGY5zpfAt85n7ntC3NDG2lkRFn2ezp83rDMF1UvSa5nBOnTNOoL08qO7bV0zaF6wueH6zRtomYECbQLeef9rhF6qbJnAmmbw5MlnFLbib3/tNn/84SOWNkT50C/lQyg1suiU8vKdtyEO+hE6SNCBIVGWd7YjtgYRw0RxuLNBHBiUllaM2quzRQ3zWvPRcc6yhH4v4emLY5bzGbcevsvHH37INx7uMwwsf+2bD3F13XL+qraUdc2yshxdLNFBRBxHWB2QRBGDJGIxm/DB7Q2GvYQwCDAGgiCktJrJfEFWlGgdsawsH7685KePXlBmBYQJr2c5z16dUWWFtPM0ypt3RLVdpbGJxckhzjtHTW0rKUNtHcqJRKNMwHcPC35wEhKoyJfUNivm3CB2S/jF1OAVmRXFUl6g8PiyMgsKHhwe7PPw4UPSOKIfGB7sKgaRo5jPefLiTBiAVxCVthglTj6tpH+DNgGhEaYcGg1aKsDiJHlJK2kQEFgrXdNcRV1WzKZLlnlNXuYUZU0YGnY2+tzYSljakMJqjs8v+fjxK168nlDVDjpd16TDlUd27wspSlHza+soyorZbEGRFUSBop+EBIGmH2l6sZKGLFYxLzTzomA8K7hcVkx9d7DAj6uYFWT8xMQjpF81496OjTiAtYJAiXYqIcmSvWC6a8hPiFGKMFDEQUASGnpxwLAX0+8njAYJG/2YzVFCmsQkccD+/jbDfo8gDBj2er6Hh9w0r2ten2f843/1Y0oVEyWCw9ZBvsyZTaZU2Yw4tESR4v6tfb7ztXfoJyHDXkwYxWRFxTKryGvRLAexPFccQhwasRTgfP61oxYZRvDVa4QSsgvj6YKT40suxxPm8wXzec48K6mKirPJgk+fn5JXFToIGAx6jPoxB3sjDnY2GPZSkiimdlo0hhImmeV4lnE6lQiswmsseZ5TlCV5njOfz8m9madFfL/+GgbgPANos8wbE+QVE48/71cMX4bZqDRJnSD4+q7roWvfvwIdk8XPC11moLT2zMC3SuwyAW8OwVmePvuceZbxd751lz/9+DGzukl+AaMsBoOrpUrnjaHhG/f2ONjbpN9LKKziX/7oKfOixmD5e792wP4o5eTikv2NIf04pnTSlL6qa4qyZlpUzPOaRe7IrHR/yrKcIAhYVJrToxN+64ND3ru1yft3dgkDaYSjtZH+Ahrw5Q8kmchLlL6DWRSFxFHEYlnw+etTjs9nZLUlLy2fv7jg0xfHTOY5QSiRCYuipK5k4YB0WXM+nFFEJpkP58SE4uN+qIqKxXJJnhdEWjFIFGmgSIx0RjsuApxJ+cs3F3z/JMKoUJqT+FIIXWiJkkMo0Rq0BM3PrzaSQOU5EpubIx6++xXSxEeqaDHPBVjeGTkOegVRYAnDmCgM0SaQJDgFOEetpVtcGscYn7yGDwd1KJTTKON4+vnn7N+6TWQchkAiT5zl+atj/u2PP+WjpxfMljVL61jkObVPAtQNUqtGmpN3VEqRlyWX4xnz2VzMVUBdVUTGsTk07IxSekkMaGxVcz4rOBovmWaO3CHmDicxSQ5xvjdry8dAQVM3SSkM4mfRSGMYIf7SGzv0tvtAg3Y+Gsr7AeR5PUPR0sdikIZsDVNGg4RBmjAcpmwMegwHCUkS00sikigiiSPCKCAKIkwQiFChtUi9tWXYT4nilNIpnp7P+Sf/4vss8prZMsdWFf1Yce9wh/t3tjncGXKwIz0NosgQBoFI+Z74SQMcqF1NWSumec3FrCSrxD8ziDXbw4hBqFBOCvWJc9hL277rG7brjxFfQV1V5IXlfDznx58+YZrV3NzZYjTsk8TScyIIQhZ5yZPjBc8ucmYFLEtLVjcd5mpm8wWXFxcslsu2dpO1K4sD+Agy7wCx1mE7VpL1z85ZHrfE1AliAbjKIJrvotXJrjfX3NvgbYI47T5QaSqawRdBw7nWL9YQcS8g/cLMAP9aDbF58P5XiMP4WsL8F9sAAMQ9SURBVGbQZOq+eP6E8WTM3/61+3z62VMuCyGKDscwMfzuOzt89719ev2e1ID3CwalKS385Nkxr47HhBqSUPPunR0GsWGjn6BqSZbKq5rZsuRiUXK5LJgsC2q/QKuqxugA5WCZZ9zbH/KbX73P3jAhjiPCUGF0IKULfL6BVoYKmOcVRV5iTEBmHY9eXvD06UsKWzG1ihdHE16cTliWliAIQGmRJpRkwbZOXT/2+Ak1aCpbUVYVthJEVa7EViIRB9pJ1dJAS16GrbEa8hIuFzUPdxOmNqTSEb+2n/OjU4NSElbbhEav5qH5bHC5eSYnzmM/n1K1UmriN6YoI0V2cM6xMdzg4PCQ/nDAoO/LkGiN1o7DvuIre4aNRLHRD30IoZgI/u//79/nBz/5hP/lf/h3+frX38FYb/JSQlyNAodmtsw4Gy+YLnNm8yWfP33FTz5+ysvzJZhQmvu0Mr/Hdf86tZX6PnVlsdaxWGTMZjOqoiSONElkCANNPzaM0hhjDPO8ZFE45lnJeFEwySy5j/RrcFww2BN2z1AVeLNP67lBIRK+1qIthOJHl9wEfDKhUpIM5h3CCmGKUWiIAk0ShSLt9xM2+sKg4sgQRwGjQUK/n5BGASOPt0kUEkXeL6ANJjDyjI0zXosAA4rlsuTFyQUn55csy5I47fHOvUN6kTDb0BiSwBCFkYRtykt6BtAQNA/e/NygU0MUyxoWRcX5omReWMrakQaOzV5IYjRRAIEG4yVtIUJSLqT2QgeVVDKtaktROhaVY5KVLLKKSV7x8nzJy4uMaeELN1Yl8+WCLM+ZL5aMJxOWi0zWk8fzdYIua9IKc292eW2gAe1dXFKltsEAQDWi2grWr/8mrNbb9dCYb7vP6wSr3uJsVr1e782tPwMU1zzDz6EZdE1O7bZWynTce/cDkigVu2YnikgpBUqjcbx89Yyz83P+G9++x9OnLzlZiJRgrSWKQu7f2OUbd7b5Kx9sYbSjqGqK2lHWEjevFMSBwdYWpWrSOOHh3T0mkwztrPgP6or5smSWVcwzCVdEaZIoII0iemlEHGmMcYx6A9I4IjCygMJQQjuXheXl6SWvTs4p8oJSG16NSz56csT5eIEOFJm1LJc1tbd5OyTKA2hLD4sIJItE7OSyqOq6IlvmEolQ1ySRoRdLqKQzigCJbljkFeOspqxFIrVW8gnk6kI8v32rx7iOKFXEN3YrPrzU4CTbuLWNO4dWvpZSEx7qBMm0b05ughCjpIQDrnGlynnOE+wWWZS8V5ykJGnM3dt32dreEdMHGmUtw1QzijS/frfH7b0eRZ7zj/6L7/HjRy/5H/793+GbX38gNZcCyEvFT5+84I/+9DNen4yZFZbLWcbCM3I8sZchFalbIw1jrHXMFksmk6mP7NCURQmuYqsXsD2K2eiFhKEkgC3ymtNJxuWiZlZYlr5PsfXKmcZTZw9CtH2ui9+1IuJe8tcQGDBIcTpjpDmTbrOdve2/NRdJ45swDNjoJwz6Cf1ezMagz3AQM0gj+r2ENI5Ik1Caw0QRURSKoKEVQWSonNjfb+xsEYRiJtXK/3lCrpTMyTIvmM6WMua9mCD0cVdWzEaSMCqTLKG4DS63Ay/frZhRG8KkWJlVlPIOVudQ3hxknSUrnXQWy2tmWUlpRZgbJoa9fkAUKGwtcbRCY2qqSnG2qHlyOufVecY4s8zygkUuNEHeZ8HldMp4PGGZ5RKFVNdvEM0GZxqK75p3cWA7zs/mMBp0X/ejXrnsVabxZaEdtzcYVHeBNb9X3yXbX7Xb2+t0mcF1RLoLzS26Dt8G1s/7mddqJcmroJzjzsP36CW9NzQDYQayKF6/fsnx6RF/81t3OTo64/ll5qs1iio72NhkYzhga9jnrz4Y8e6eoR9pFkXJxXTO0cmEorakoeFgZ5O7B1ucTXMOdkb00hh0JFqIcBiwlbe3OpSvQeMCgzIBRVWzLAriICRXig8fH/PZ50fMlgtMGDIuLc9OZpyMl37Bh1SNjb07mI3Ki18wTu5nKyc+CGtRVNiqIs9LbFUTh4o0NgTaYJR0Satqw3RZcrEoyGshxlpDqBQYCcCNDfQjQy/R9KOAYRrjXM3x0lAQcbNfktWKaR2grCQZyQL1yX++R0RVVqBom/9oranrCovy+QEGW1ftO107794RKghmGQx6PHjwFXq9HmFgJJrJWayriGzF7z7Y5MNPPuPj5y/4b37362xvjPjBh0/44YdPWWQV2vddENu+QBdlax8W6Hy11cl0xnQyRwFRKJmkg1SzuxGzkYSgNIWtmWcVx+OMo4uSReWoGrx3QsjW30x5PNdKVAOFmG8UYtYLmnnRPrLGl3kQ4i9nGC0LV3uNKDKijQRGs9FP2Br1GPQTer2UQRrT7yX0kpAkDkmSkDQOSZKIOBaJPzIBOgykpHkQEIYBujG9GcU8r5gvF+xujsBJS1J0QJblLBY5SZIwGiYYJaYZ8el7fxyN/crji7flK1vL2Hj8FtbnaYmfmZaO+U/nfV0KEaerqqSsJcBgtsiYFxW9JAWlOZ/mnM4KlqWlKi37GxHDJGBc1Dw5WfBqXJDlUFlLUUvJimWWczmZcnZ2wXg8lbXlBc+q9iYn16zRdkrbZ1tnEqzhGF4TllNF32ONLjZLv+vTawSu66C7vTnu+uM9UvpxbZ6/qd/VaF00cyAT8SYzaKBLyK8j/uuwTvi/iBm0C/8aUA5u3XvAoD98KzNQwMnxK14dveKvfuMO47MLPj9b+Kbdwgz6oy0G/QFJJBLRzVHC125G/Nb9IXGgJYs1aKReh9KOP/zoOd98777EzTt8nR2RGgOjibXC1hVni4xXpzPOp1Os0xzNC376+TEX4xlBaMhrxeU8FxODE+mq5f7NuDh8hwCZMOekYF5pS6rSkmclrq4INUTGEXotO/C5BWVtmXmHm0PC5bKqwlpxDqaREfVZWfqRJg40UWBIIvlL44iidkwXlSTAKM3NkeYk0xQukjIausCpkFIbtBWtzDVmdI+c2ktJ2puG5Gk6ZqUGLV2jCMsW5b+1W/08aOVIopgoTkjShF7aY2NrBxNFwlTqktgu2XALXp+c4JTmcpJhHVQt+RA80FoetshrJtMFWZGDk3acZVmQGMdmP2TUj4ijgCgUgjtblJxOS6YFZEXForDklaVuS25LmKb2Ur5DiIZtpH2fg9DY96UsCQRaobVE8QRKoY2X/oV2tkxAIuAEH6JAwiWHg5R+GjLopQz7KWmSMEgjhv2ENJZs9SQJ/HuEhJFkwIahwQSBaKxGyacOpdSGkfwMBZjAUFnHeJrhNMRphC0rgiAk8gENyieHCc4KsRQBTHx9SsvFGiNhQ1BxDleXHhPkHAGLcz7Xp7mmkhax1nf/my1zdKCJw5DKWhkjo9HWopQmKy0Xs4pnlzmvJiWnkwVFrahqEVwqVzGfLjm7EIfyYrlgsczIy3KFkh6Uk+xwUMwXc8o8Z3MQY6Ie1iP0OvF9kxCv4MvtWTGKtx8v8LZ7vZ0pvA1kzgRkTkC9nRnQMft8GWbQPd7/XJ3feVDVLKAGH9ZAo7hx6w6j4QZar3wFDbFpkpnOz4558eolv/2VA7LpjE+OJ4AkNRVlSZSm7O4d0OtJqnloAsIgYLMX8/e+tcuDvYhUAygqazmfLKnLmoMbe+gA8FmG88zy4jLn1ckF4/mSy6xkvFhydLnk5HzWxtO7hrApzwgBlB90H1Os8Ek1zklnNe/4qoucMi+wVUVoFP3IEAdShlrCSmGSO07mtRBuH2Wim/BbINaKUSSRF3GgiULDIE0IAyvES4sD8HSWcTauKCqHCZQ4dJXGKs072wEXhSGvA5+a7x2RJpB30ICTrNOyrAiMorJ+fn2ZBViV/FhJIeKQda72iKHQSoiCNpogUCgV4Jxja3ubJIq5vLgQG7o/L4xCNnf2pVaTy9kNCo5PT0BrzmdLFoVlIzbMCkdW1IynMy4vZuAskREmFmrY6kccbEUkqUTDVLXicpHx6izjeFozr5wPvfQIiZawXsQ0Y3yWNfhkrZY7ypwYLYzAANrI8UYhEUJaY5Qj8BKoUhLyqVpHsDD6tBeyN+yxudFj2E8ZeOLfSyQ7NkkiktSXOwgi4sgQRpKAF4SC69qA0iL1B4GPjfftXmtlUU4ThCFFVXN2McGh2Noa0I8TrJOQWVpaLq2NcGDr2rNCcZjXVYEJAnSYSna4rQkD7SV+430y4GwlGduuSw8ExyT8UqL+LqYz5vMlSZwwHPQJtJgoa+vE7u8Ui8Ly+XHG0/OcSW4prKUsfdZ5UZEVNZfjKa9eveL8/JyyLNvIt4YuCR+Q56htTV1WLJYLsizHWinvoWzFwc6QoL8hGhBrfo5r4MsT5BU056yXsm7A+VDlhmm8Db7o3m8yDBl7Ycje5PirYgaNtMvaC6mGKFzd/FZQSrF/4xabm1sieWm5YLN4mlU6Pj/j2Ytn/KX3b6DynJ++PBfNwPfZdc4RBCHDzU329m8Q6EAIj9YkcczDvR7fud3ncKtHXZdUtaPAMJnlfP7qlGfH55xPM0wYY51mmkkhMOegqitfEgEhVgjBozshrUosZomilEQn5XzROeUItZIQUiXIXpQ1uXVYNHVtWRQ1dQ3v7EU8Oi/QSORPHCiiQBEZTRKGxIEiDjVxoMhKyywX23XtK+4v8pq8qISheoLQMNfWgakUD3ZDxoViXgW+KJkwiiYb3CrpByyJZ0K82/du0dV/8+ppu00pqROjQ7Y2h+ztbtPv9YjjiI1+j+FwiDYBWjsmlxf8/vd/1Mbuy0DLtZSyfO3ODfpBxcuj12z2UzY3tikdzBYzfv/7n5EtMzYHMUlsCANHP9Uo65guKy4XFctSMSss06ykrARJpfzJimAgP3FIQpeI0vIMwtyEOQReElbaiZSvxIHbMAHjI8ekfpBBK7HxR6HUsOklEWkc0EtiRv2UQS+mN0gYJBG9WCJ74jiUv0jMOlEcEYaaMJQoH2MUgTY+t0KK4KEVymgJctDiC1nmOUmaEobSn0IpLZE0xtvqQai/wmtyDRHw0ryz/v01tYXj0wushaTXJ6sq6iLDqJobO1vi69OhYIOTkhCu1dkcs1nGPM+J41g63OUFQSARdY0prawsJ7OS41nFtFRcLmvGi4qygso68qJgOp1xfH7BxeWY+XwhfY+XmfTFaObRg3MSFFBUJXleUFYVVVlSVbX4v4DIQC82RGGIq6GfGMxg0/dI7hK4Nylas/QbUngdNDThKmG+HmSkrmzofrQbrx7TrMefDXLo6shfGTNoRmBd4leIrfnLXAI/SDt7N9nZ3vUMYMUIusxgcnnO8+dP+ebDfXpU/PHjEx8y6FrHTxP2FUYx7773Adr4cgVKKnAa5TgcWBaLOScXc7JaSgcXZYFTWtTtMEQ5KIpSYtyNIV8uqeqmfaHD+aJlDXG0zpIvpUy1szWDSLHZN8SBIvD1aJaV5XhScrmsRbrGS6SeiDoJbWcUa3YGAa8nFe/sRVJ+QUOgNCrQZHktzT3mBZVVBKEQcFiFgwZBIJFD1tuu/U2Ez/pMVK15sGO4LDXTImhj09FaKngqiV6prTg6r/QP8AlxLbL6JKba1tTA/vYuH7zzgMODPcJIJPJIWwIj/Qx6ScDD/SHv7Aoz+KOPnvO//0ffa0OF/VXBS5F/6Z19EmN5+vo1URBCXWFtRRDUuKpgmTuqCi6mOU9PFpzNCmpPlF2jufkueHiWY65ZaAoZSu3NPhK7L2NqtJiAxNEreKo9biolTtSKmsAoYqOJA8MgiRgNUjaHMaNBz9v3Y3pxTBKH9NOQJElIklBalIZGkryikCjSJGGMiTRaB1J0EG9fUvIcVksJFhMG1LXj4mxMUVl6/T6jYUqoxalqVYBqZEOvpTq/TsU06nHam4AaoqXRvjS4aE7O+UHSEbVyUGaSv+IcSofgNUZw1FpzeTFhfHFBb5CyvT0gwFBbwZsmpySrHY+PMz49KZgVopNVaFnT1pLlGcenJzz6/AmvX5+QF9IbZB3a5/NF/RZ5xmKRURU+y7fR5BQkoWJrGLMx6BGGAXVlubiYM1kW7O8MIRn6sh0r/LiekDfI1TWFrcAh4/1FjODLMAt5fsFDvM/hCt565/n62e5n3Fv10p5r38E//5ci/m+B9TG4bqK+CJRSbO3ssbt7Q/pHeQn1CkMAZpMxj5884qv3d9lNDP/uk1fgi0jX9ao4FX4QnHNsbG2zubPHxnDLl5q1TM9PKbK5hNOFoU8eyomCkDiKcU4auVRVSRxLtc48X7JcLlZxxlaS27RzaCpiXz+nArJCwtqsq8lLy6JwlJ74R4GSnsTecRgEhtiIQzcNQRkt7dLrgifnFVt9jdGavKhZFpbKl1nG915WrBK75JfMh0ZyHlDSSlH5CBoaIuYLyz3YDZlUinEmTmbtI0pcs7jkDnJ1jyRWsn4YDkZsb+/QSyUnYGtzwO72NnEk+SKDSLM3CtlINbGBNArY6BtGsZgQqrKmrmqKquaT56f87/4fP5QmLc4KRW6YpHXc2e9zcxTx8ugYow1PXx2zzCuyvCYrCmZLiTpxiGmkxS3BBpQ3+XiuJuF+XkPSvje2kcCY1Z9WogV4HDR+XJWSQntGy0KLwoBeEtFLYtIoJEykfLTRhv4gZXM0YLOXsLeREoeKKA6Io4g4igiCgMBn+QZGEwRi2pRMdIVRUuJ5NWeKoqqZZ0uiKCZJAvJCxrHfF8LWvLdo7o3A4QcTLz0LlQIas55qNnYoit/mRPcTIUgurEwg17YVtVIs85KiqgiMNJipypok7ZMEBpwEYtQOLrKKs5ljWcI4c5xMSzLfO7m2jkW25Pj0nLPzS8aTKZcXl0xnM0mSVN7c3CFszlsFilISKaWqb+lNsjJnsZEkwCQJJZlNKYrasiwsy6xgnlVSWdZBohX3DzYJh9tUPtu9GZK3EdTV5sZWjIxrO4L+Gm+cfnXDF+1f0wWajZ2v/oen6c0uaVDoo6y6j+cPVv30LaGlHXzobms2iXDpzT9+va0P0C/CCAA2trbZ3z98gxl0j1kuZjx69Ij3bm9ydzPh9378zBMP0QiaTxAC0nBqpRzpcMDd++8RBhHT8SnZYkYUhsRxTFUJEiVRDECeZ+TLjLJYgjYSK1zmxLomDg1p4Ah8qOEsdxxNCubFCnFqP1aBglRr+omlFxiUEpNVGAWksTh1jTEUpeVsmnExy8grjTWOh1shz8ciZTtf+VOWpEiFDiR6XeG/yfa2ZaQfvzAKRFJr46XFxiEOTMPtjYCFg8lSKI7kZUi3Jq1kLurKUtuazc1NHj68z63DQ9I4RFOhdUAoxmlGaciD/ZiH+wmbsZMEwLbiqA9trWu0dVR1SV07qrJinuc8P5ryf/zHP0KZQAxwTuzGDUqmseYrhyOOjk8Bxb/4/mcSNurrvDSEqpHoG4m9wV6tRDPQzopWpMSsozwjaDSlQInJO/R+AxmrpsS1lDwxypD2EnY2h4z6Mb00otdL2RgM2egnRKEmjkJ0KKU8LmclxoREScLWMOHedkIYim9ISo9ojArFnxMEErmmRdtsOsldTuZMZgXDQZ+drWGLZ9rnTAjxcZ4ENYyuGUE/Ek6ct66J2lEK7T1bCinj3IB1vvKpcxLjqeU856SEtSPk5HzM5WTG7s42W5t9dG2pq9I/jZTNLkvLs4uCR8c555kCFaxaTlpLUVVcjsd89ugxj58+YzabS3JZQ3U6kqbr/JfnOdP5nKKsfCJaUwhRGEA/NeyOUoaDlADNdLHk7GLJxbIktys/gGts8/42qYH7B9tEg22MCSiKAlqfkT/+Gkm7W9plnYbKri84/i2wfo/rYJ0xfhG07+BpCfAlmYFHBOULminPlbuwrhE0A/VlYP240cYm+zdvYbwj7zpmkGULHn32CfdvbvDObo9/+aMnKBO0qd4NsrZ/rXfGS4xKcfPwNnEUMp+NieOY4XDAbDolX2YAFEVBli0YhoqtQUSapuSlZbqYU9e2LXK1KBy2luiV0MifMdALDL3IEAWS0xBoMd/ktc+e9N3CFnktiWiVxfl3Ft+2LJQHWwHPpjW1k5LPflDaxS1k3dt6m62eqDX7tZ9GE2gio0gDTRob73uQENskNjw6q5jkIomnacLW1ha9NCaMQrY2ttjf3aaXRGil6UWKUT9glGrSUDNMA/ZHIRuRSNi1q7G+pswqY1Tmwta+HHBZUVQlRVGzXBZMFxnj+ZJXFzMeH885m5dcLGqyWpzJFuhFmg8OR5wcH4MK+Jd/+Bm1bzcqI6wIAqlBtcyr1vQm46Aw2pdq8KYy4x24xo+T9rHySjtAYuXjIKAXh2KzD0MGA8naHfVT0igkTSL6vZA0CUljyUOJE8nijaLA2/Y1xigqpxgvayqnWRSKNFZs9yOSSLGRSoy/U7BcFEDNsJeyKAqWhWPUT4njiKbIiNKBZ+7e9NUIPR7H5Ze8hyRKN/b/FcGkIQ5XSpeIYNWA88cssoyytMRx5Iv/lYxGI+I4ASslmGunmMxzJllNYTXTwnC2kOi3qrZS16msOL+45PT8ksl0yvHpGaenZ2R5vroh+DeRHIO6tlRV6aPBSrQt2d1MeX2xlB7dRhIB4zAgDY2YJFEUlSXLC2aLQvxwXir+WQRzGGru3domSLckI10byrrqPhxcc52W0Laf7Z7OMe3XtW2ePnWOXr/+OlyZp/a7aP3r567/pnMf1U97znkz0RXwT6M6dlZaKfSN8Wj3fVlYZwANKAeDjQ1u3Lzd1rnvMoLme55lfPbph9y5scG7BwN+/48fY7U4Ndf/aL8reVAlMfK9Xp+dvT3GF2cMBn1GoxGvX78GH5FU5jkOuL2VQBBxMinIsoxlnuMaaT/Q9CLNKAkIA2m8Ynxph0Br8rJmvKyYLqUaY61koJxDKJRfqPJa8m5XJFkN97YiXo4rSswV6U5AJDjjhJKJ6cKXgFCgnCM0sD2IONyOGaZSonqSFZxdzFnkDosit4ogSbl56w73791hcziQ2j9hSGA0ziqCwHJ/J+bBfsxWz4BzBKoxnzSSZgW1wtq6Y66T8be+QYhoX1JNtCylsUmRFyzLUqp4ZvI3z2uWRc0sl4bnzy4yJrlidxTywc0hz18doYOQf/OHn1Hbui0/jpPSF6V29HWAqmuCQExsRmuR/htfgJ8G1SR/KRlTo7Qkb41S0jj20S0pW8OYXi8mDgJSzxziKKKfirM38hE9QWAIAk0QSbXLwMi8GAnzwXkTm1KOaaF4dDInDUMMkMQB97ekGGEN6CDy6avaF1z0QhkSFYSSQAvlYyWVN6cJS/bjj2r7IIuRzDfkQYmppyuhKgWqQmGoasvp+YTpYsn2xohhv+/7I4hJSWEJTcjSBpxclrycVIwzqdhbOiUZ+EhE2MXlBY8eP+aTR085v7ygLGuqqvbj0DAlWefWOZytpbDcMqfIc4qqFjOHlecdRYrDvR5VrUiTEK00la2ZzXMu5wXLsqa0TrSPhhZ8SVDAMDI8uL2LTjZb2mOM8dFJq2OvJ8Zf9N3P0RuEumEFK1DeJLcO3W32Gg3lunMacB1BvXtc60BWrBF4T5wUIvVfYQZvuc+6dvA2eBsjwF+7Pxxy4/AOgV6Vbcaf13wvi4JPPv4pB3sDvnJ3i3/zh4+olfHxwNczBKU0JoyIYzEBhWHAjYNDFtMJWkMURZycnLYRNjhwWPb6CqUMJxdzqEt6gSKJFFFgCAIJrywqh3MSiz7JSuZLWRB4m7PEKjSTsJoM5c0wzfdmn0YLAUBxb0vzYlxRusYG7I2ByiL1IiVhqRcpEh9VFAeGNFakYYQzhqIoOJ9VZLWmPxjRH40wQcTm1gaHh4cMR0NJfMLRjxWD1BAZYXQ3twJ2eyGhclTN+Aqa+ng4MWO0tWJqKcblfMP52kt11lpsJZnWZSVRHFVVU5bSICQvKvKyJM8rsqJkWVZkZS1O/Qry2vsCgoik3+OjTz9joz/g08cvhScqhdOOQMviPxpnfOXGJnVViNNTK3BNCWF5/iCA0IjDPAoDhoOUjV5KrxfST6TEeC8RiT8ODVEUEESaNEqkxk4Y+V4REaEv32B8Hov2oZ0SWeOJsRI7f16WUmRPh0zmOeOiJA4MWW0orKYuHHt9R78fEQWWKJSeDIrGf7LCGaeEAYrEL8XQWtGz0RRkmkT0aP0djZYsBDbLpfa/MQGzxZK6qun1+6RxKKWqdYBTinkBeWXJK83xpOT1ZY5VBmVCKQtd1kxnMybjKZP5jBevX/P48WPG07kQwg6pEWKHrJ26pqxrsfXnJcuswDon5mIPYjYUbW4jVty5OWDuy3vPlyV5vfJjNcJVQ/xkSN4kXuuEFH/mRmK4f+sGJh21TEp582lVVSvbu/IP5eGLiPIX7Wu4xGr7aqTa6WxW3hdcR16zs7+7b/2eHVD9fr97VY81Xwy/DDP4IkaAv3Y6GHBzjRl0iSc+xvmTj3/K3laPbzzY5Q/++FNyazxidaN7JAIFpKhZEEayra6pbc3tO/eobUU2n5HlOflyiVJKFncgqvJGVDGKlBTA04rpsuJ8XpIV1rdjhMKKpKUaRtLVovAb5N9qyxqTa/YphODLdsf9bcPLSUVVNfY9R6w1W/2Q/VHMoC9x3/NlwcSXtaidJqtqMDH7Nw64c3hTehxHEUka04sjMAGB0uwMDQ+2Q7YGAbGxBMq2Tm2ckzHFJ1ah0U5KTTiQtH9rwdVY7/wT5utLTzdmO1uLI91aqEVDqGuvHdQ1VVGJ876qKMqashDCkJcVWWnJa0mqW5aKaVFyfDnn7HLG4f4Wqrb0k8hrkjI+k0XG93/yjO9+cACVRJcV1vqkNjGPhUYTRwmDXsQoTen1pBZ+EgVSpyfuJnEZwjDgfDLjp4+eUi+X3Du8QX9jyLv3D0mSxGseIVoL0a69j0GhmMwzLscTKRMxGlJZkYhDI9FlzimskvLeVWkpnOVkYpkvMvqxNCja6QdsDqWrnGp0wiYSx2tejZlH0TStb7Cq0T4Bj281MB5PmCwyNgcDoijyeTMShm2cNICpneFkrng9rZmXirxSFJXDNsmUFi4nU56/eMmT5y8YzyYslznLZcYyyyTyzuORPIn0qhZnb06eFRRVTVX5PhW2ETWad2n+9yvKmwO3EsPt/QGfvp4xy79Ml7AvDwrYTg137xxg4oG/vUS3KSURekVRAFfzA1piu06gf8bv9W3yzXPv7jYnY/Czzr/udwPuLfuuMoMvCfq6h/mSZqIvwwySfo+Dw3sE5u3MwFrLJx//hK1hzLce7vGDH33OomqkjDeZQWAMSa+PteJwqkopN3vr9l3SXszk8oLZbNbatfHEzwHbPccoMnx+6itaalkEIp039v2rb68aDn9lQTa43H2fJkzPu+6UKPd423YUaO5uhUwWFWGk2ezFYg8NFfPCcTrOmOaWOO6RpAlhFLOxuc3h4QG7O1uEgUSipJGhHylCrejHhsOtmMOR1HJxrqa2UgDGyUNJ/SGvz3g3uCCi80XzcOC7NDWCqGvwwm+vhUZJ2QLPJKQtpaWupK6SdIyyVHVFXUm+R22tmJHKWiI9spLjecFPnx+xOdok6Q34459+xjIvubW3QRKH7I022Bz1SXzc/Plsxj/+5z/gb3/nPrFWxFFIFBhCowiSiDQKSSKp1RPFAVEg0Tux710bBgFhZIgCCe2Uhi4BYaCJjKEiEElfK2oLZ5eXbG0MsVVNEMozXE6WZHnGzsYGw35MiRW7vZfgHWLGaxBDeWFBxlLIusNyNK6ZLwoshrKy7I8C+okhVBYTaFSNkE4fYaTw2oJCyqY4S16UOCUmwdk8pywrhmlKkkZynALrNFkJZa3IK8fRtOb1pKY0CUobytpSFiXZMmOZLZllOa9eH/H55485OT2lLH1SYfs+DZ3wPSiqmqquWeZSS6ssJcxTzDsrh/XPAqXEvLeTBhzuDfjk1YR54TW+7tr7BUHJgmS3H3LnzgEm7suOxszsjzHGSMvVjnGnva8XoFroPM/1zyZrvt3nl9v158kzrF+n+3t9XwPr2+UWcu8vzQxa4vUFR7s1O1gzKT+LAXRBOYjThINb94lM4CltJwPZX8s5xycf/4RRL+SbD/f40U+eMBFG3QmPa7J9HWmaoo0hW2Ztr9EwDLl56w5JEnJxckxZSYZknosDWSHSzGbq2Ew1j07KdiIakIgNr3KvvaswgY5jV8mC9ztRTYgj0vYv0I5RYtgdhQyTgDBQVLVjlhXetg95BYULGAxH3L51wPauZOz20oR+L0ErgzaK7UHAra2AzViqV8ahYhD5ypfO59Q6scEqnyWqlBAnYcAyxq6xN/v6QEKpGqbrM6oRRtAOjVWtrVoYqoQKWreqseSc2LWbyK/aWmoryXzLouDiYsYyr0iiBG0CKuv47Dxjlte8Pj7lo8cv6fd6DHsRe1sjTk7O2eppdnc2+OCDdyks/F//0X/J//Tv/jqD0JCmMUkYEoVixxffjkZ7234YGMJAiH4QaIwJUFphAskt0T6pSzvaCIzASOe3k4sZRjtG/ZiyFlt/HEnJB2+IQVGDk0x1XGs0bgUOGk3QYw1NlIdvmuKslFTOK8v5omCeQZpKxNNOatjqaSR5WnxVWVFxMV2Ipp1I0ce6doS+S5nzmkJdK84WlpO5Y14ZstKRlZraybw7pamt5fXpKZ988gnHJycsFjl1LdE/ZVlgrSMIApbLZUtY6lrMf4u8aT0pzYislUJ+DTQo8wVk5VowCnZ7IQe7Az5+OWZRdpnJL3pVAa0lUGO/H3Lr3i1M1PNz2FBov+qVwhgtfo9mFmWC21uvHPJvEuIWrtm+fuwXEfrVb6E365dbP767rdnjnFsxg59FsBtCp4QWrJjCWzSC5mY/67rroByEccKtO/eEGXhxSUpXS6QH/vqfffYRaaj41js3+OjjZ5wvJZ20fdHGPgz0+sLd5zPppRqGIVEcs7m9SxgaJuenEsVhLcvFojV5KesYxo69YcCnx4L4LWPsqt4d6L6zhHlKBJBCksVCI5JbZCybSchWGjBMNVEkdtizSc3ptMKqgCgRYhiPhty5fZf7t27Q6yVoifcgjsSBO0pC7uxE3Bga0tAzIZrE2RUjbZ5cOa+BaC/9KyOGh07jDRqnYjueQsTxoaHOCTJU1lIWFeNsyf/zX/2EOEr4e7/5VTZ6RpoUNTjir+WQCKOyrkApQq25nC64mM0lR2HQJ/RSV1FV5KVlWZT8689e8+PPXnN2Oma2KDBGc/Ngj61BzO98ZZM7hyOm4zEXLz9hXCT8x7/3mp2NEf+L/953ee/GtsyBlhLaxkgsvzCEAKOaEg5CzI3xlTt9Mx3rpHOdCcV8cjqeYmvL9nBAFGmq1h0tDED5MfbKI/iuaOLYFRMaPsxVMm4lLNQ5vMPVymKQ1YlVWko2+POdg+NJzriQY4q6Yhhq6uWCXmzY2hmRhoHc0x9fWif+rVrxelJxNIbMBlgfJGItFL7fxWQ248Wrlzx/8YrxeMJitvDzpUl7KUop6tqyzJakSUKNYzKZkuc5WZZT5JX3cTR2/uuoxC8ORin2+iEHO30+fDlmeYUZ/PJglGJ/GPLBw1uEUUReigAlJezxwo/4IbVukuLapdKwBh/e4betjcH6b79RPr2wIJtWxzV0eP1c1zHDrW+/Dq5lBoPB4Pqj/2uEIIy4fee+ZJe2ZqIOQfMVAZ8+eYRxOd9+75BHj55zNC2FNzrnmYJtX3fFDGaYICKKxHcQpz16/T7Z5AKMxtaeGTTE1DrS0HF3M+Sj47xFcLmREN1GmpO7+j8tazkIYDPVjHohkVEkRso/Z6UlLyoqFEUNiwJ0kLC3v8+NvV2SJKHX77ExHJIkkrgVGMXeMGBvGDOIFImR6pr9SBSo5ilc2y8ZwNfPabQ0H08vryCkojHvKJRvTl5D0w7HyXUlIqiWzOOmVIXzTNrXSKoU/Gc/eEkWbvA7v/1bcPo5xflzbm6m9OKQoqyZTRdorej3UsqqoraWNIowoY8Es2JKKqtKpEsfvphXFaUO+Y/+4e/z4uSMrLAEgfTvvbMd8Q/++lf54OEN8ssXZJfHTOYV/9F/fszB9pD/1f/gb/L1+zdR3vmntWcCPrKo2U7TS8GIaW2+WDKbzYiTlDSOyPMc0MRJCLoh/R4VnEWMMjK+jtW6bhlq60eS7HfnVnqDDLUEE6w6yMn4OxqEEqnVWsfJ+JJqWdKPIwplKK3hfCn1/ntRSBIaRqlmmjsmhSWvDctSMyuldLkghyIrCk7PLnj+4iXHp2eMx2PG4ynz5RJnLUmSEgQBWSHaQBIngr9ZznQ6JS8KemmPqq45v5hQO2lG07z3dYTrVwFGwc1hzP5Wn5++GIt/7JeAlQDn636huLEZc+vWAToIiAPRpgyWfmRYVIpZoXA+hFspqdYrIE7+K0QccG1TmtW2Fb3qbF8fr/Xf1xzTEvd2c/Pl7ePf4B8Nzfp5mUFX6pWbNEuigV+eQ5sg4Nadh9LdqmUGgrwNM3A4Xj5/RpHP+PX3bvHs2UteXmbty4szzFGWGeBIe3201mTLjCAIpaxEnhMlKds7u5TzifQkrSqy5RKQeyjriALHezsBHx4XIhH751ROCphJmWFBgNAoNnqGG6OYjb6R+1QVp5OCk3FJUUvlSIKQIIjY2dnh3Yd3OLy5RxJFQpCUlUQvLSajd/Zibgw0oec0js5DICaqRoUVH4QXR32mrNLGJ6t1lFbXLUEs1wHaTk0iwTZmIjlLGwlt1T4yximFqy0Wy7LS/Cd/POHDV0vuPrjLrdsPmF+84jDM2XIvePrilG+9d5v93W0f8SVljcVmLs+vW/Oef0TgZDIln8/oD0eMM8U//Cd/wK99+z22Rz2cq1BVThgpbt3aZ5QmnD79ARenn3N6suQffa/gd3/rG/wH/+AvE5tQMnl9ZI/yVU01mlo5nKoxKmQ8mXFxOaHf67GztSEOVOsXlLLghPULwV8JBsq5lQ/FN4jXzXppGIGfn2b8hRKAckqkfnyfiM55pasJjaGwlufHF5SLgoOdEaP+gMpV4KQOkbMKHRhOl5qPTnKmmaV2YtqS/aIVVHXJYlHw9NkLPvrkY16/PiIvcv8sMj5hGLIsJN4/CKQCal1WLBYL6tqRF1LaAWqCMCDt9ahrx/nl5K2E51cJCkmUPBjF7G72+MmzCbkvD9NlPt3vjZlZtotGtqJlq3IjSajphZq6dvSTkM39Wzgl1Y3xzmLnHImx7PcsVoWcLYSBaxVQ+GJ8zkerNdeX8h7yDI3DeX2s1n9fu+0LzhH8epP4r19Ctq0f4zWDLoH/cuCp0hW+IiA3+eUYgtaG2/ce+G5n3rHmn7HLwY+PXjOdnvMbH9zm1csjnp0uwHv64zimrmsWi5m/pibtSSnaIi+wvo9pOhhweHibfDGhKAuyxVLCxvBRMUCgLF/dD/joVUFZW6JAMUoNvUhLN6lYE2ojIZB1ja01ReWYZTWVqxmmEb00JI57mOE+N/f2ubm/RRRLQ/mNJGR7FDAIFbGBUWLY7htC08xkY5cTCV8r8TXIUDQVMFezoJQv8OdErGz6KLUEvsUDT+xdY/aTZCflncfQ3FZKSzfRIziFMuJk/OHznGnlmOclz1+dMpsuORuPuXNzl/2NPvcPd7h795B+L2axzKEqpPNZlYOz2LoiMpLgo4ySuipe5V2UJf+b/9P/i71+zf/o7/8mW7v3GC9q/uTTz3ny6owkidnaSBn2Eu7dusGN3U3OH/8+FydPePp6yj/5Q8ff+O3v8B/+e98lCKQst/J9F+azqSz4NMahyPKcJE6J4xDnHDUyds550xFNaQvXGP+EITSZ7s5KaGfXFNfMiQKFaFW2O52yA+UjdLWGqrJcTGYYLT0m5rmUWu6nKSaQWj8KqK3iIodxrsmtYZrXTDJFI5s6b74bX455eXTM2dkp55dTzk7PmM1mouk1OCAfKKVIej2cc4wnU7Iso64tURzjnKUsC5xzVFWFQkxtURyjtWK5zJguGp/Bnz0ESnG4mbA9ivnp8wlFx3wrILkkXYIMSL0rBQqpjTVIY/pJSBpJCZksr5gvJPlxbyNluHcTpwLBA6/ZSei5Xx9AEjgSz7DTSENdcl4Ea6HAtPSyO+4yXKunvA6aMZV5uubIzrY3xt+bZUW2cO04yPfueaCGw+E1V1+X9vEndgf77SDP84urbUppbt19QBKLbVz5VdWdbKXg/Pyc89OX/KWv3OH0+IzHR1NQijhJCLzkXxSZJy7iRDZBCN5m7awl6fU5PLzF5PKUxXzOYrlsB7dhCNo5fv1OBM4RRzEmEAJ7Ni44usjICqlYKRnFlmEv4WArZnNgSEIJPT26zLhYwu2vfxelDZu9lL/19SHv7oTSXtA3dVfKUDnfoN6/s27MG41JQzXaQFMD0oqBopUKpH2flJQWJyUotNconLNSH8lfTyEESWkxdXiO4JHUYZWo/mFomOc1L48uAEjjmH/4T3/A8OAh773zkNEg5fXpK37y8WMOb+6TzXPOTsd87Y7CJT1u3H6PG7fe5YOvfZ3vfe97/Jf/+T/lr/+Nv06QBvzef/nPGbmC/+BvfZPASIhlXlX8b/8P/zH/7e8mvPPeX8LVETfvfCCVJl3JbDblTz97zunZKZG2bIw0h/0pf/LhM4ajbX70uePf+7u/y7e//pCydJwcn2OpOdjbpT8YUNcVrnZU1rPL2mK9eU97xqGVaTuU4ZDGht5xbvG+IE/Qlcj2vnSDHz1nhYk6Bb5tqfJRPQ5HqDWzouLFyxM0mjv7O4RpKtd2SsJzKwuBwznNybji0VgxLWOUNpJe4SzoGo2mqhzPXz3nT370Ex4/fsIyz/2zX7emPY4DVVVR+7ItRVEwn89RSnx0cRwTJwkgmcDONwZq8M05x3wxp6gkauzPA0INh5spG8OEj15OpNeErf3aEOGveUaFjDnOEWrDZj9iazSgF0eUVcV4MuN0vGCeV4ihWYpEPtgf0d/ex0nFxxV4OiQfCu0ZaUOjtFFsqoKDgeP5XHGeaQKD1yNlTV4BH6XUjUpqd71V2l8/8k1Gcd256+etfrrrmEHzwOvg3rL9euja639eUEpzePsuadJrJ3c1AY3JyDGZTDh69Zhf/+Au44sxn728BKVIEikot1xm1LWPBbYWraWGexBIX1+AMIq4dfsuZ8cvWcznohU0zMD5pWId7+wG2NoxW0pz7CDQDBNNEmmCUJK9FI6yhMI6ssoyXloWuaV2knyU9mLe+8ZvSF9ZpP7N7a2Yb97u83A3ZGcQtSUSVr0cGlOESA/aF5WTIRGu33Xs+mUKXrp2stHPhNcCfGieDKhYuuX6DqM0tauZZyW1q+n3ejhryfOSKAx9FzhN5RyLrOT//J/8a8bTnLysmSxySmtxVqq8aiVZsf/r//7X2NnoMy7gX/3JKZnr0dvc4dOPP2OwscXrF0+oiyWRhr/16/f4+9/9OgqHVYpPPv4+Jy//Ld/5K/8TilxT5CVpr0cUGeIwpnYV48tTnj5/RGDmTM5fcu/BX2N7e0SvF+GsWIBHwwFBGFAjBE8Gpxk/GWOR/oVtek7cjp3zNXKaVaBl4ESm874jGWuZnQbzhUgI486qkul8TqBDkiBknmUopxgO+phAqo6KG18xy2GydNJtrjBcZJai1jjdFC+0zGdzTs6OOT8fczke8/LVSy7OLihrX7KkfQi/cpucBJr8DykTUuQFeV4QRjFRHFEWudcCQCEJfCaQkhpaGYSVyb66rikK0bSL+s+TGShub6UMBwmfvp5gvdUNn72sgMho0rgpDxKQhBKamxUli7xiNs/JqloYrn/s5ukjo3lwY0SysSPtaNcYgHxvtD8/GkpWq5Qwl37kAY7NRKroVkCsLNPKUDi/7vw4tjgjqHSFLXRHdJ2Yv20bcIU5XHfM+jY1HI46w9CQGb/TD8AVrGq2XMN1roJsl/1vO+ZtoDm8dZtebyDD1Wly0zAD5xyL5YLnTz7h1z64x3I25eOnp6CNZwaGLFtSVcIMVgQewDsMAR0E3Ln3kOn5MWVZUPr8g/Z4HGDZDh37w4TtoSJNZazGi5oXZwWXC0ftjI/I8OU7/BR3mVgUh7z/rd/yHa8a845I+vsbCd+5NeKvvJ8SGF/KGskmNYDTGuclVllwPnTTMwnlCduKenkzl5ISzc47ki3eAdxEeeiaIIjIs5Kj80uMMhzc2CGKJQFJKY1DYV0tNXCsbwbigMrxf/kvfsD5eMGiqJjOS2onGaB5nqFwhM7yP//799jfHvDqEn742RmTWc54knM0nZOEoc98tQxjzT/43W/wO996T8otOzh9/TE//pN/yt/8e/8zwmST2SxnmZd+4dVk4+fk+THHZ3NCU+PUiN/97b8hiV9BKGPvcduhW7s/SiQ6/AJuRk8joaNdlPWHCe54J6BY4VZrQAPWEwcxF9VoE7LMMl68PsUoONjZJYwDrAtQRrXXM1hqqzmeVzy7DJhVIbVyWKSpkFKaGktha06OTvjxhz/m8edPyBaZ5Gt4E1RjDpCHlhcQ/4wn/r5+kxg5xHRorZVcj7KUrmZRLH0CZgucTxpE+3dChJRGYMGbyJq1Wa6Fjf5ZQqQVd3dSer2YR6+nOK9FhcaxPUjZGqbEUYJ1jvFkxtlkwayoqO0qMXL9Ubv0LDaahzc3CPoblD7NpnlPsxbmDt6E2GoIsq6jIKT0JmfV+ClwJLrmIFVMKsPR0kqfC9ct+7Oiu80zXkdmu2Gr6/AGXV77vb7fOYcaDjfEmrDGDBpElx+rx+oOQBfWL94F0RK+CJpzm2srbtw8ZDgctgSzuW8z2M5BWWY8/uxDfv3r72KzOT/65AUWTRzHhEFIWZVk2VIGtSHu3g7cgDKG+++8x+zihLIsqHwiTPPOzpda+M07MVUNrycll/OawopjtnlemolstqyNU/M76ffZu3mL0eY2URS15h88gt/Y6PPtuwPe3Vfs9iNhhspLpm2DDQ8NQnstoKHw3blS/ny0QjnFsiypq4p+L6a2iul8QRrHjIZ9lDE+mQw6mWT+Vj4nwPp6Q34g/2//7E85Op0xzUtmixLnJPa+yDMUEFjHv/+be/RDxeXCcjpecjQveHmRU1Y1vTRhtswYxppvPLjBzrBPVecoBfcPbrA3qvj0J/8f3vvqd3nwzq+DU4xnY8pyweTiFFdPGO7d4U9+/DF7u/t882u/4f0pSpzxzdwgyX2yhJTghG0aj8KffPqMyTznzs09Hhxs+TFoxM2r4Jw4MGW5SLhqUVoWi5wgUIBiMl0QGsNoNCAMQ6QvhLjNF4VjkVtyq7lYWM6XitIZnNJYNE4rsuWCi4tLzi4mnJ2f8eLZM05OT31/XsH/Loo5JU3g67qmqqV6p62F0BsjTuGV8xoRErS0qpzNZj6bVhEnKXXtWCyW1HZl6vW8AFbo1OKGPIc3aX0BHfhVQqwV9/f69Hox59OcJDYkYYhCkVU1s0XOeJ6zLHy1X/zEfUlIAsU7N7dwcZ9CKvy9QYfavy/YZ4x0X2yhWZO+0c8oUgRGMS8skZas8GUlpsbmSPWWR3e8GaHU7rtuYwNr+5pj1Wi0sVrx0PoLOnP9c8HbHuJt2wWafavB3NndZ2NjszWXdAe6OcPZkieff8K3v/oQVSz5ow+ftipdryehpJVnCA1DksdYSQBOKx6++z7zyzOqsqQoSyGuPopGmIHj1w4CPj+vmRRSMqh5Dqt8CSEPyksXzf7u9vbTm7L2b91hc/eGqJVIpUyHNFDZHSV8/fYWv/MwIVZlW/1TTELOE30hdGKnljBYpaU4mdaKMAjIy5JXZ2O0g93tTfr9lLKuUNqgAyk21xI+AMRe75xEGzlkX0NsrJWuUNZZqsryn/7rT3h8MuZiXpDlkudR1zVVkYNSGOv4tdsR/USzmfaZ5iU/enrCxawiNBFxL2Ayz/janS1+42t3+Oo793DWUVupe6+qSz756T9Dabhx5y5pssH2xjZlkfFHP3lKGG/yze98nT/4o59wc+eAb773ELAEKpCeFV6jUl4Kdp7ZWScmIZGEFLOspK4ccRTQi42X0GQe5QivkSrAdxSbZyXHp6cEKHY2hkIhdSCanTIi9RtNURvJ5p1BZjW101TWE2YlfTXKWnF6OeaTTz/l80efMJ0tyfOSsiqFwDbP4RDq66fNVlK/Py+KVgu2tcVhpfuZ0gShN/FoRVXRhkBGUYRSWvr9liXWWqKkhzGG2lqy5VIImVeU1tdwG2YgaHjtMX9WkBjFg/0Bg37MeJpxPivJfMZ6UwblF30SBSSB5p2DbQoTUVQr/113HV/3+8o+pCCmNgbro52a/c19PPqhlJWOh8B25BiampdZRGkbX2BDHa+CRc5/27i/bft1DGGNGXSdTN2Dr3uMt0NDDN/6IF/wkM1AbWxvs721S6A8pl0z2EGg+fzRx7x37wBTzPmTT55T2WZfQBRJNFJZFh0NYbWYQFTGB+++z3J6SVUV0gyjKbXc+AwcfHXf8HpaMV6unmEdmm1+7V67j455QmlFfzhi7+CuFIoLJLpIhE4JKdzdHPDVg5Sv7sAgBJRuJd9G6jVak5c5Re1Io4iyljLbURCxuTkkTsJ2cTRKmjyPZyxO5sM6qRvkEKd5u8j9MdYnS2UYzhc1R2dTnh7POb6YMstyJvMF8+mcsigp80LOtxVbQcXvfLDPVx48ZHp5ThyGuCTiolIcnU95fTbh1kaPJJSWg/fu7LO5OUArKPIpTz7654Sx4sE7v4ZRjrPxE6hrTmcpL08V77+zw48fXbDb2+O7v/EBoUmoqiVJPICmsmejYrUOeC340JqJ/Lh4Iqe8KUQpicrJioLQaGrrOJ8uiLRhc9QnCIwwFqUAx7KSKKvCBpwtHecLQ45UHxWTm6MsS6bTOePJhNPzC54+e8Gr10csFkuh9v56K2lcEtiagn9S+rukLAqq2ocZe7V0XRAxShz/2idw5ssStJJ8ASXO4izPsL58iFKaNE3QPulvlVV8PQiTlE/LSgP/s4bEKB7eHJKXls9PpACeazTCa0xAPy/0A8M7h1tMnaH2VTaEbPj3vYYerf9uvjdJjq2GIBy9xRmF4KSjqa0lmlhqLNuRY1lrslr6mBe1o7I+BNm/pBJuAF44ZQ0Prp2Ta7ap0Uh8Bl0Eor1YwxzWT+wyDYFrb/gF21kjms1xzXMMRhvs7t0gwNvj1gY6jCLCQPPRhz/m1t6IUVDzo09fUXpmgI+RlgqlrmUI1jXSoK8KbC13Hr5LtZxRljllUQph9BPXNGN5b89wOS85W3rTgwf1Fk1gHa4giuCCJDghMYW9YZ/9w7uMNrfR1kq0kM8ZCALFRhrxjYM+375liLzJQftrXGY5RWbZ2RoQBFI+u5F6u6Yr/yRCBJ3YkMXZJg8krmnASZ6D8+/vcFirWLoe5+E+cxswWRbMF0sGgxRXZWRlyWIxZzzL+Lf/4r9iOZ8LIbYlfVvym/c26QUhs/ElSsHDX/saB1/7JlobeqFmfnbG0yfP6MUhuxt9wlDML5qC01c/ZGdnC6ssVbkEW2IR6bf2JTXKyhK4iJ39LYzqo1yBClKsep+djYGYYJSsMsEnBI8bhz2+SqySngPLRc7F+ZgkDhgNUikzESgiIwzbIrYSDVxmmtdTy7wKKAhYVj7xz5dgL2rHdDrhyeNnfP70GZPxmPky86Gb61F3MhuyHhoHbU7hJffGVNeFZu1cXWtSqM5oJZqBX8uldYS+WGOe514jkFDaxt6vtabX68l7Wsuy0RCuAQlzluVZeaHizwJWdELWUGzg4Y0Ri7ziyen8DQr1y0I/NLx7a5vLEqpaIvJUE8SxxgwaQfXKGu98x2sIYRBQVpV/F2EqtIKdzw9qz1E+8EChlJSh10hDpt0eLCvDWa5EvZWz5FpWrB1feh46x6mNjY0vedbbQCQsrl73CnzpB/NECaDXS7lxcFsq+CvPDPwkRFEkNlAsf/qnP+TBnZvsJPCDHz+mqK9yxDAMvToMeZGTZZkkVnlmUFvL4f37uCKnLmRx1L6HslxDInUebGuK3PJ60TyjRwQPLWKsgeowC6WEg7e2QF/Rsn1eA5u7B9w4PCSJ4hXSeROS1rCVBvzm/SF3NjT9ZJVEVdmK50cX3L25SxgFUqCsE56KEttIawfWUoxOOyE/rnFAO+lk5qxIGWKacszViGfuDjoKiJOYvFzy6tVLstmSw5u7lHXJdDrle7/3e1ycnJHP5zKftqZPzVd2U0KlcLYiGgx573f/CufzBR89OWZ354CNfszhZg9DhXJLtlKDVorJxTHlcszxyQu01YAlTgpGQ0MUOCwFSikCIw1rolBhAkeoDEaNeX7xDh8fb/Dwzi5fu3+LwMg4aq1RxogzvLZEYchiuWB8OSeNY7Y2BwSBdLAT/VBR1ZrCOkqnmCwVx3PNpDarpCQl1VizPGeRZZyeXfD4yROePXvOdCb5Ll2NRCZ9tW5qV2Nrh60q6fFQllhbi0TaRCw5rhAS+S2MuxZfL3hJUylFoL1woEQ6JQh8tJeYlJQ2LJaZVKHtEgal6PV6aF9q4W0aQkdOk6bx1xzzq4DumlZKsu8f3hwxWRQ8P1/8SpmBUsIM3ru1w/Gi6R0uY94IyDLdwuyb929pQLPWlV/pnfDwwBiqum6PFbrA6vp4OtehC6v59vREPEtsJRDqgHHuNSGlkERsdaWSqgiEq2NwvibWGsm6lhmsHmI1+M3n+jYhis0lGoRdu4s/5+eBJI44uH0PKc680g5EaklxDsoi45NPPuLerX0ON2P+8CePmS0kc3L1fFKQLoojijVmoLxmcPPuHXRVU5cZRSllEGjMRM4BjtubGlU7nk8lU7SB9bHpQnfblf3e/ue8vV8OkGOi0QZp0qPIl9w4OGRjY1OasSDhCFqJvXqnH/JgO+Kbt1J6kW/WorVkjjrFIivZ3xoKsUG6Whn/DBYHykeK4Blex8YqWkcz19KP4LOzih8+L7AKwjikdgoT9xn0+xRZztnRM86Oj8nnM86PjijzDE1NoCxpAFuhIgkDXK3QWxuE+w/47OlLrK3pbYzY39+GssYBO9ub7PR7LKZTPnj/fTY3DJYe5dMfYssFZV2Sl1Ikra7mKAq0KnGuBJcTqJLNYUloZjw63+GPnu5xuDfkb3/3mwx7PZbLnPlyTi+WMhNVVUkkTSilop2RBLDaKS6XMM40Syu9BrJKUTlJznNOSc/fZcbrV6958fIl5xeXTGYzZr5Xb6P++pFuVohoqNZKr14vgNS+FIe1PnylQYxWSBK25Ff1G2vK4pk+YNoQR0XgBYY4TsRBuRCNJE4TlNJUtUTmrUv/jYbQaAfr95NjBFeckyYy1x3zqwaFohcoHh5scjFb8uJiucYMujTp5wOlxIQ8iDTv3Nrm5bTw2fsNE/D06Ir0D+DNin6DUleZQXOs1lIdt9EIm+t0r3v9J6hGq12DQEMkDe9IA0scKC5zTW6bqK/VOf5qrQRyJTCgYQbXEbMvC1eZA1fMSF3kePO4t0MUhty6e7911iqliOJIOliVlTyvq/n004/Y29ng/Vtb/OnHL5gty7bqaBcaCcc6KaOAfx5nLfu3bhMCVeErLHaYgRxnuTkypNry5NIzA+fForfA+ng2760aBPHruzU5KfkviCOS0TZnr19S1xn7+ze5d/8hcdJrzUbav49SkAaK335ng/s7AUmgJEnKKGpX8+z1GXdv7GGMQyE1h1yrBazmRnnuJM+ixETVMCwfhPjhiwn/+sNjqkoIx+V4ThAGKAxa1SRG42wF5ZLQFoxiw3AQkqQJcRCgHFxeXnA5WRJv3yTYvcHGzdv0opgwiCmrnBevj/ijP/5TXJnxlcM9yiLnZOmIEsVhL+Tf/+5X0baitPJUyjkqW1GVBXVdYuuc2s5RdolyFxR2DsFDTPKAwonzfWdjyNaGSP1aiYNV+dh9kJINJ0vDRRaQO4P1obUog3PSAW+RV0ynYx4/fcanjx5zeXkpvhhPDJRaSWbKM2PrcS1QjrKsGE8XniC8BYecnCxzJA5EIdUKhTTJ6YLY6yV0ViFCRsMMojAkSVOWiwVl7chKrxV46V8pkVavMwc1ePy2NSv9s/+8mQH0Q82Dgy3Ox3NejjOhlg2N8drcF0F3+Dy/xq8SlFIMY8PdG1s8u1zgrOTfoCUzYEWgV8R+/XfzvaFdzf2UUmhjCIKAqhJHfvd67XU6DKK7rf3e2S444QVS7w5NTcVuqplXikkh5sKyRsyHHZxzDaopUJubm188amugGqLmL3IdrOPD+u8GvghxAqO5c+9h68yL44ggDHE47+QV6fbzR5/Q60V88+4uP/38SEo8FwWFr63SQEvYG8nYb7PWsnfzJkkQUuVLCh962eyX0yx7w4BRYPn8vF5pBl+SGbST6FUzhTxIgzhdMGHAYGef1y+f4eqKNAyIY8Pvfu0WJ26LKN30tnTfPctfd28U8t5uzFduDkiljhpGwzxbUluYLXJu7ow8EW1IkDdZNY4FP6nCMHw8tm8B+vxsxuup43Qy59PHRyxziS/XCiJVQ1WiXMn+Vsp7t2+wPegRhb4ctBbHqVZSxuLZec6/+pNPmdUGrUMpF23FJFLWFlXX3BhKWYjISO/hYS/i194/IPLVRmVx+LF1lqouqcqCZTanLKZYB6U27Gzts7GxS2ACtAnlGQJhArPcMS01uTPipKs0tmnT6Md2meccnZzx8tUR55djJmNJ8Mp861MZt2Y0VzjmfDe3oiipqxrrarSt2R8lLIua01lxlWA1q7Lzs93cUCsPsvyvshE5XiawqVVlfB+HXpqilCbPMuZZTtkJGdVak6Qp8MXmoOtAoaTiqrdR/3kwA5lv6EeahwdbnFxMeD2V3CD8WHXXXnvOFRBNWUAIa2QUcagZJLH0rQ4Dqqrk+cUch0T7Ka+ZC9EVutRc5wqhfst3OVbwVvuueHUllXuvvYYX0LrbV58rBtMIBu2xzTMBCkcaKowWk3g/0sxLxaJqyFfHytFlBm8O2ttBJB5/Rw/riCC/5ZGu29/Addu1Uty9/xCjNFEUEUUhTinKsiSKRLUvy5KnTx6hA/j2vR1+8ulLrJaWllVVkuf5G9e2PkKo2WqtZWtnj16aUmdzqZbps5BbBuIs233Dbur49ESYgVI+2mN9oSpBVv+x2tYZM6Vk9XbHu0FiExo29g559fIZdVmQhBqjLf+t9wf8mycZKt3i9sOvEoaBJL90pASUVDD9nYcbPNyJCAMh/MZXunz04oi7N/eITINA3nksRfqvqIzWCvKUZUW2LDifLnl2fkluDe+991XipOb7P/yIn370ClfmHOz0+erDPW7f2KcXhBgtkrhCEQa6zX+o65qPnl/w+z/6lOmiZFZY4iggMYowcNLVyxm0khjqNIoIjSGODH/5G/fpJ2LaCIzU6bFKpCLti9BpJQsVLeUklNY4Z3z0heYiNxwvNHMbgA6EsSqpCltZS2ktF5Mpn3/+hI8/+ZiLi7EIHl4TkxW6UrPxOGWddM4ryorlsqAqSpHXnDBBrSHSsL8RsygsR9PiihzgnOQ9tL+5ura6oDwB68IVIqikVWQYBgx6PYzREhihoLYwXcyvrAulFEnaR3mH8WIhCWc/CxrH8TozEIIpqtIvE+J5HTTv2A8N7xxs8up8zNmiKV1/dRy6n37JyXclzlijoBcZRr2EwaBHEATkec50WbDIK5Z5KT2oldTMkkXrKwB405tphtwziYYYC2FePbPyjLeliP7YMIraRlsNfik5oP0u15RrtPfw0P195X2VNyvJJf31ZC4C7djpKQIHp0tHpbSwu4YZdG8ADbHqEDS/rZVsV4e9ASs8Wu3t4taXwDMA7t57QBonRJFkkuZF6W2fDcEvePz5Z9S24NsPb/CnHz6hdBJSqjVkmZh9BFG6z+JaNd5ay2hrm43BkDITO29ZVa16r3xEzVaiOBgqPjqqfO1/GRTlZ7eztK4scpmMtbHFj+/6uCuJOhjt3+L1q+fYYulNP4q/9X7CH74omeSiZm5u77O5e4P+cCQmo3bOhTjuDALe20t4by+lH4maqHEs8owsr1nmJYe7Q1SbJNHU2l9xeeufEz9OeVlyMV3y0asL/vCzM27ubnFrd4PAGN6/d8DOKCCbzQiURD34K8g1fHkSZ+HJ8Zj/6t99yCLLWFaw1U9a5rRCerGr96IQYzS9OOSb791hY5gSBobAq9qBEhVIMmMNRkuI3qRyTHJF4QzzWrMsFSWBLGatccpQVBUXF5ccn55weXnJ+dk5ZxcXZFku/pTWdCBI34yU9SGeokVKj+a6rqmrGq2EyKShJgqls1oYGOqyZpFVbG8kzLKKVxMJvZXxkStL5rLf9hZo8K27MhvUFlyTsYvDiH4qrTjrSlqKxklM7aCsKrIsb4MJJDRWSwMorSmKwpfr/mLwbrwWmoq+jQTs/Fr7VYKsF8cwMjw83OL5yZjLpTcby8uvjvXzBp74a0UvCen51qaBUX48nPTeLqUTnVaGoiqpa8Hf5h3ktbyw19zDE2Pl86GkEJ7cVzfntMetvjfX01pjgqDVEBTCaJr98lr+eN8V8cp9233Xf9IwFP9dhqg5BmIDqZESOmpra0uWfmcQG+hKss7/fgOuEEKBdcJ7dd/qPuv7umCt4+E779Dv9VEo8jwXe6ZWGBOQJDFKOZ49e8x0OuE7D2/w00+eMMtrwkgK1S2XC3n2TsQG/r4rZuAYjkZsbWyTZ1O0iVjMZ+Akokj5xb8Rw72tgD99Wbbx4kqtwkRlnN4cQ97Y3jyIn3jPqJQSRNZGs7l/i6PXLynzOb1AEOBvvhfz49c1ZwslRNUXSRtu7/HgK99GWYvvowVakFgrRRIYvnO7zzcOAyK1kky0Vnz24pTd0ZDRIMa5GlWLAU1rBW12tQMctmrq2cDziwX/5k+fUlkpjvb67ILJbM4gHfCtr73L3/nd9zD5hOWyxHhp0XmGUteW4/Mp/9/vf8jFdI5yjiSKZGFaS2UddVWTxAGbg4TtzR43trYY9HoMewmDfkwUhgRBIElPxqCMjORF5ng+VUxtiMWABqO8lgHUGJZlyfOnT/now485OjmjquuGZYEfm/a7N4k656id89FoOVVZiQPYyQIJjW8nGiqG/YgwFmaV5xWTackkr6hqiIzj1k6PaVbxarxmJvqS0JgaQaZGK2HyssrF12MCzaDfw2hD2eQj+OSxJJGQ0bqumS2bkhOeiGthCNf5DtZBpH/n15eYFf1w/JlCs5ZGseHhwRbPji+YFG+ahsD7TZT0x97eSOilKdZZ5ouSeV5QltJhr6oqslx8UVEU0e/3KIucuhP182WhIdDi0xPzUgPaJxg1eNUcq5QiimJK78vpXkch9LfRPGRfe5A/jva6zbndz+53vVZKo7kHCtTO1raDN8OM/P7Vt4Y7+siI7uFds0sX3sYUVt+7Evv6A1gevvsBaZz45Jq68/K+THUUcHz8mvPxBd+4vc2nj54zzhovfXPdVThecyvrVqF9zjmRxje3CJVmuLHB5eUlVZ5JpzTnAEc/dLy3G/DD54X0B/BXb6A78Ouwvk/R4QmImKGU7NDKsLl/h6OT1xTLCT1v6vjrD0M+PrGcL2riUJFEAWng6CWGJAkp431sb59e2pN7KGFkojM4hr2Q9/cS3tmN2Uh8qJtS5GXFeDrHKM3mKBF7fOftHH6R174Ynv9tgRqNtYrKgdWaZZ7x4vU5F5cziqrk5vaQWzsjdjdS6kpCF4uq5mI85fnRGceXM6nI6SAMIIoCeknEIO3R7yX0kpg0jkiikCgOCMMArQMya1hWmszBvNRMC0XmtPR+06KPuNoymy+4HF9KbZqzS45OTphMp+K4bRbB2vw4z7SqqpI/376x8s1TFI441MSBJjJSqDAJpRNaVkJRWRZ5zaIQhmE75tS+VtzeHzBdFLwcF10kuBYaPLkS8dH89o5SI5NMoFeCSa/XIwwCirL0PoDmTg6lmtpdmrKqWeZL6vrnrynUZQZ4oernvcYvAsoLYMNEzESfH41ZVL4hjULmJZLCdL0kwBhFZSEvLYtMpP+yrqlqS1lJyY5uCY04jiVL3xff+0XhCrH1TEGpRkRfEXk5xmsIJpAM/26gScsQrl5v/R605qXmFt3jViYseYTVs8ghQgvUzvaO4JZsW128WfjeVLKadXnQ1UlyXivd0kgKHYLyhd9X57QP4JM07t1/QBRG5Jkvw6s6KpRShMYwmV5wOZ3wtcMtPnv0mHNvP2xiL7rgnETG+Ddqt2ktzCDQms3NLcbTKfl8Kke5GqssfQNf2zd8/1mO1gF0Jfq3QHc82uM6ztuuqtW8n1aKzf07HJ+dks8vSUyAcY7ffieixhCEmsBolpnl+GLGeGkprKHGYIOYja1tbt19DxOIxCiqvO/IBMRRxNdu9vjmQUBokPLMgHMVF7MF2ID97YHvauYEAxpccN6mYCX8smkDOK80f/jpCe/e3WF/FJEYRblcUORLSltwNqk42N6griuqsqaoJOTSIfZlrRWBku5jTVy8NgE6CNFGgQq5KDRnS8WyNhLlI4MGqin9qymqkqOXR3z6+SOOjs9Fiq8qaipJNvMjr5CEPEcTPtzkBxTkebkqHeAkasco6MeKUS8kDgMCI7b3+bJiklUsSkttpc8zbzGPKAV9o7lzY8hknvHqsrhWAGMNb66AA6WchBr7SCHT8V1Z35uiPxD7/3w+b7fJ9Zoha6KIFFVVMVss2zacXxaM73nRorVzviXkz3ednxeUJ46jJOD+zRHPXk9QoWIYJwz6CVEYkJcV87xgmVdU1lLVjqKqKAoJ331jXD0opUhi6SdelL8cM1gHYdzNGn9TOsdr5GEoUUZdmtG883XnXDmmu60jODfaQKOtiFDQmLQ619jd2ZH5806gZsd1oBCEBM+G/aAqn4q+Ds2gr39ev20luQMYE3D77m2SKKXIJbEI5L7t4AHT2ZjxbMq37u3x+NFjXk+lQNo6NPd5GzMYbmwTBoaN0QaLbM5iMpFMXF+oLjU137wZ8e+e5igddK58PXRNaq5bP6jd7nwJar9KgTB09OOIeOMWr89OWU4vuDXUvH/QI7cV06XmclZIFytlQPmwIRDu7zm+1prdGzfY3N4lSVMhgm03NEBrRqnmazcT7m6KpmCkIRaVrXl9fMmwn9KPQ6JIKmc2hBNHWzDPAZ+eFPxn33/OPMvpRfCNr34Ak6f87W/ckaJttcU6y/HFJUnUQylHGsc+rFMQ0Sjls3UNuVXkTj5npWJSKjLrI3xQKKWpHWTZkslkwmQ+5+z8nBcvXnMxHvtwzcb3sNJxhPCKX8TWYuOvbE1ZFBSFhBzjTT5JqKVFaajpRQFoKK3Ylpd5xTyXqKfam4pcszY6y2MdlGcGd2+MGM+XX8AMVldQ/q8h/tpX1RCHraCNVODs3l0xGPRRCmazWcvsVk8ozxwEAYnvUTBbLCh+zraRSimCzrM6JC/jz5oZgAhMoyTg4eGmL0KnKcqaRVaQlZbSF+iraktZSpnutzGALihfM6yXxC0z6J6nOuadXwQEBYWw68YRrYRBOCVlarQWQbjJQ5BT/BpfbRBC354ve/Q1DED5IBPZ5+lEV0No6YdC7e7utm+rVKd8gVrhpfi1hPg3hM3v8fEobw70+uA7J/bMbljndcxBvgszOLx1m36vT7bM2pdsvFbac7rJ9JKLy3O++eCAV8+f8fxsdu1ktczAeanwyiQbhptbREHAaDgkL0tml2co1xRqs0Ta8uu3Qr73WMxE69Co710TS7M4ZdV7guwjGWrfNGerp9gfBmykhsDEZBhO3CbPXp+zmJwRKOglkbRe7Ex2Q+zoIMuV7wqCMGS0scXNW3cwgbSs9HKrNDvRYnv9ysGId/YCBmFNoKSMQVGVLLKMbFlya3+7LfsLDlvLeNYKfvDpCf/pH3zGoqiosiXvPTjkqzf6/NWv3iaOjGCHd0w7X946iEJRi7WmImRcwHmmWNiA2ioqr3HQzJtSgOb0/IxPHz3l9ckxy8WCZZZTV+XKPKH8WHf8WA5p7VkUOUUmtXzEpCGM3iiIA8MwMcSRJgoCAq0o64rZomJWWGkkXzu8P7FlhAJazIkeJENViQ+mg2fKx8bfu7HB5XzBq4s1ZuCl/iZCx2gxQzWMvC2+5uRqwpw753eg35cWr9KmUp6ti+9WSSJm6HsULBZL8mIVnvllwdORllS4Pw+fAUKLBknAxrCPdY7C98wuK9ECVuPjCzo6R90WqvSWjbcMXtpLSeOYongzEpHO+dfBF+1jfZ1eWat+Hft3M94vWteNhoAXfVflwls60Ej8Hcm/+VQKCZhoGURzjt/nz2lA7e3tXXnj5oGEzMsZDdK2ztKON71ZeGpF+jxirC7bfvdSVPP7bZ8CmpsHh2xubElnqyYet7GvaUOcRJyfn3Jycsw3Hx5yevSKx0eX4AdrfeIbZG2UP3kPYTCjjW2iMGA4GFA7x/j8RFowIi0NA235zVsB33tS+oJS7QjIWDQvj22++I1iiokDQxjUxMawkWqGqSY0UFeOaW45npbMC6h1yObuTS6nc2bjEwKkc5swwKuIsI583e/CLOShTGDYu3HAxtYWURxDU/u+PRa2+hEPd2Lubhs2IkUcCMMtyopnJ+fsb4/Edq+V2P8VZLbmX//wOf/u0+ecX06xVvMbD/b45oNdbu5sMOynGB2I9OHEx1BhsNowrQIuioil1R2DnhC+Ki+ZzmfMFxmnF2Oev3jGyfGprw2vRKPyklFDfZoeBNZaKmtxtpaSDkVJVfl+ywrCQMY91opeFBCHklNQO0VW1MyyiqwQO7LY/H3VTo/zXQx9O7x5pAL6gebuwQaXsyVHlwWqjXcXqd+gMEZYtvWJao32AaIBNFddLeEVNHgex3Ebfp1n2dX1qBRJLwXENBaGEVmWk32J6KG/CKCQarz9foLzpr3KivkHOsJSSyRXhA9kzdg2474xE67mKu31SKKwbfH5q4Ar6/ILtoEXtJWY4URDqAT3lGqZQfdPwpbXmUAjMK5oxWpc5JzuPvzzqL29vSs9kOVwT0Ab7uKJaHNU19xxhVE0S8Cf28hP3UF1DUX2fgY8QTOB1HdpnHd1XbOxucPNmwdoH/3QOP6CICAIJDb88uKMk5MT3r+7x+LyjI+fn7YvuA7OOz7lGVdmKWUUo9EWURSJiq0V5ydHvlibMAOD5bduGf7gmRAkVCOFSslnkOxPiaCs6YWa3YFhlBj6iSEKNIus4GJWMischZVKhGWtcEoaqKMURhk2tveZLOZMLk4IlCP2Hd9kZvwzX/OO7cT6o2TOZeJREKcJu7t7DDa20CZG+7FQnqEHSjFMNe/sD9nvK7ZiSxoIwSqqksxHAh3ubFE5+OjpKUevTwhDTRgohknM7qjHaDgkiiOMMTgdMrcxcxuRW+X9G+LktcJWsSguLi949vw5JyenzOcLprM5eZ5Tt3ZbGfOGGQgIwZSckpKyrHFWymdYK0w40NCPFL04IAw0USiazzKvmWbiRCxrR+4d5K0J0ePnr4wgdJjBZJEznpX+PWS2aie40y0Y5xoTlDch+ALcrVAGYmM2RjTVqqopyxKtFb1UcKb2UnNd12gj60YbQ1lJJzqtDctlRln9/JrBfx2ggCRJSNOY+XzxhkZzhbi166HZ15GC/adrilIqMdHEcUIQSMVW22nc08C6APa2betwhcZ+yWO10gSBoS4reT4vCGslZtXGLPQ2JoDPQsczxNWY+N+eNrTjdGP/xpXw5q6tu0G49UdvcfE6ZqC8LaarqvsF1Xw25iLVlJoOwzeOLcsSpQ03bhxKExjPBVufgRP79mwy5uT0mAc3N3HLGT9+ctR56avgeY/0n+28p9KK0cYmYRgxGPQIw5DTo1eres/Ooqj5yzcN339dUzkZBIUSJ6wSi/ZWqtkZGOJQE2hFZTUn05zjy4JlJd3Kmjh3mQVASdOZ7mQON/eY5QsmZycEWOJe/4pWsA7dbc63rjTGyPiagF6/R6/fIwjFPKOUQ5mIMEpQJmiujPLVOBWwu9HnYBSwFVXs92pi7Qg05DV8+PkxgzSmFze2fHknE8SowICJyFzI0sYUTpIFMQalkOqxhUiik+mYzz9/wsvnLyWr3ONbF7/a9/KROULoLZWtyJfSmc4h7TWNVoRGnNH9SDFIpJa/OJdrlnnNeFlR1t7Q46TSpr+tx723mxB+GVDeTHT3YJPJPGM8L6ismNCk37HMcLfAWBcaM6Tz5lYTGGIfFdSFuq5ZLJZoZYgSKeHexQ/lx7BJ3nTOsVi8WZfoLypopUjSlDSJmM3mFE0zqs466L7zlXfvrDFNx66uFOAkAdETVusrxH4RqK4Z8Jp1+YuCUkJzlW+OE5pAEjg94V5nAnA1sKZ5lO77yvpurr0i+M29UAp1c//GSjNQXh/+uV+uWTyrc1wTvtmo1w1DaI+V/sNhKGUHmppAylcllYEGrQyD0YjQx5Yr5bMaraXyHbVOT4853OqRUvDDR6/XJrl5HvkU1V8m0flXVggziKJICGcv5ejlS3BSlkKYQs1vHIZ8dFSRxopRrEkCTS/WKFUzWdRMckdRw7KArHJUMqUd6fyqqacL7SQqxXBzl2WWcXF2jMGR9HptCeLrwHqH4KDXb8t2xFEktYO09hE7mtpWLOYLyqrC2hprHVHSZ3NnF62NlyLkiQGCQDFKA25spIwiR6xL+qokCUKyUqpkFk5TEmJ1TK0CKgKcNtC0y1SK2XzBy6NXnJ+dM5/PuLy4ZL6YS7hwqwJ78POCKMW4WqRdkW7FOdgsUoOjF2mSMCCKNFGgCJTY9he5JassRWnJvNRvmwJ8DsCJ87GD7/L1V88IGhgEmnsHG5xOF5zPqjfuta5tv7HdMzATivNXecm/qXEj60Pq5i+zDGstQSCag9Yaa6UXgmgPmiRJsNZK8cY/Awb4qwa/ksSUEwfM5guqyke9Ka6EUBqlVrH5fo13CZ9c0BtL/QA3eCi4sCpj/6uChqGvb2tog3xI/wMh+BJpZ7TBBDJ/zTHNX3vetRrA1XdqPpvv7e/m8+DGTdc9uAuy6ar/4CqsI5AcI5Mj0k77u/OJDx1tohmW2VU1tUHUMIxwTqTJXn9IGIQ+6kSIqlOwXMx58fI5t3YH7KYBf/Tpy3ZA8E8kqr+PP3eSKYkSU5bWBqO1b7Ie0+ulDIdDXr14ivIZms5ZcDXfuBmx25Nm8BfzilcXBePMUePLXLaIt3Kxrw/+OjT7nXNthmF/Y5u8LDk/ed0yg270gSCwIo5DBoMRg35fatajpQ2eH2utNUWRM55cvplIJAdJiWSjuHn7LqPNPVQHW5U39Vmn2N/osbvRoxcaIqVEStemrduPM1RYiqqkqC3T2ZzPPn/E0yfSq9cJ1RfC5InYOtRWIo9sbcnznLyoqH3LQZSUdQiUI40Mg9iQxCFaGypbk+cl43nFsnLUTrQf1+K179XbkhMhrA6Naxj+nwMMA829g01OJnPOZ6Wsqw5uNMngttVShIg1YoDgiBJ8MJIpnGVXizImSYoJQmEIy2U7ziscu16a/YvODJQ3mzhf3j6KApad1pwNvqs1swluzb/XfFeupV/X7XdfEODyNuie+8Z2r9G5jsVEggUkxFNrKW+hlS91gYSaSpSg0MQgDK/M5xU69zMYwNXPlcCnGqFbgzq8eSCaQUO83zJIPw+sD8aVbU7jnJM+xWF4JfXdK+/ti/V60j/WOUuW5wRBSJr2pLCZjAT5MuPZ88fc3OpzsBnzg4+eS/ysXAiCUFo8OiFGKKk8CLSEG8AEAUFg6PVStnd3efXsMc63B5SeBpZeAGUtLQqbqJHmYjJWnss2l3/L+K1v7/5WStHf2KKoLadHL9HOsbG5waDXx5iAOIqI44gwCMVW7BGmqiTBqKxEw8qzjLKs5NmRiITmPlkm493r9UjTlMAE9NMe/WEPE8S+Uqd/v9WDERrF5mjA/uYGURCAVuRVxfHpCSenp0xnCy4vx4zHY4pSiN2KLa7u3yzWupFctabIpoynOVlRYZ0YnwKtSEJFHBoiYwgDIWRFbaWEQGXJSp+1/CuugfNnAYNAc/9wi+PxnPPZymHbjkvnBdbXUPPbGEOc9rBWzDtXCJYf6mZtOefIsoyqaso1dJjMGg6u3+8vAmgJg+88u5CmtJ8SByHLfKXRNDTjuu8ttPbw68eg+3udGfzC4PA+RUQTUcLelQ8VVkr70OFuCKiX+Js/hEHoNspIelyAnC+fq+e/7v2bN1OeZjmA2tKLYbsHde1Qtw4OhGU1B68N0HXwtmPeNnjr251zbeOMNvzNAUj4ZJPYpgPDYDBEa1F9F8slCsdwtIXRBqUVZZHz9OljdkcJ9/eH/MFPnqBoulpBlKZsjDZZLrI2lnz96dsB05CkPW4e3OTl08e4WrSVbv/k1aCvrnJ1PORdu0RwHdYnqgHnm8kMN7axSnPy6jlxFPD+e18h9BJ1iyiBJi8KLs4vmM/nYlO8MsyOpheydTCbS9vP/f09dnd2iePY+2G89NlIU1pha8u8qAmiXitFiHYovh5xsJV8/tkjJuML71ppQuDehOY9HQ5tAsIwJkkTwiDGuhpX5SzHRxydZhjj6IeaXmKE4QB5UTFZlCxKS+GEiTh/3XXc+osAzXOtP19TdvnocsblvLjCvLplC7hmzTQQhiFhlFD6lpRd6JogugyhqyH8/xNo3yuhBSc41PcZ1nkpXQlZW0uqQwyvg7ftW9/+yzIE54sUKidmHKOvRv80f41Zu9kOyBq/8ufAr9M4iqRXu4fmHNX4VTugaM71pEmLNrw3gPujipcTxdEywLoQdfvw8BdmBj/PQHWP7TKD5XLZ2jwleWZlkFJGE4ahNOWwzlf3czhnieOEJB1QlQVPnz1haxDx/uEW3/vR5zgU0iYF4jRlZ3sfExiKvCDP8rZt4NXnF2IWJTGHB4e8evEUW62QrSHyDcgYrA/86j8Z0jfHpzt2Wus2DNAYQ5zERHGCMprT8ymvXz6ll0Q8fPgutpTCWWVdSvRHWXpRyRNZpaidpShKAhOQpLGolsYw6A8ZDvttPR9BLkE4vFNOHttfz1peXcyonSKJUylfYBpxwnI5HvP480/94av5aoN2/bUDI3HsShuCIJQy0o05DYShKyjLBW56TF1U5FUtZci91C8Nzv3CbO/zFxdWOLAKE1SeMaRGHMhHF1MuF2X7PhIAeRVkat984zAMiZKEsqykZ3IH1u3RcSwO5MaU9POs178IoHxGPqxIlFKK1FdirTodCZt93c91eNv2Btb3N9f+ecatfQb/velQqFVjBvJrbo0hNOux+U13na69m+72VF5jhsqv5eaJlTc5bqSOobHUzhEHcJYFLCqDRUzTCoW6feuw6fXSXsx1pJr1AepCs+/LDNb6MWEoZamrayQcQEqqGm9Laweoe08x3aTpgOcvnjOIA75yZ4fvf/gYaTClMEaD0dy4cUAci3/CWctiNhcfhSdu3UkPo5Bbh7d5/foZtW8NuILuO3TGpY1IaYhqc+hq/BziwdRRyHAwZDgYEEdRiyz4aoc6EIfvi6MLnj97RGgUG8MNuYeyWJTUUnEWbcTkNpstQCn29/bY3NgkjSNMIJpEa3fszKMgTBtEudqnRHq0teXVxZzCm9OVgjQVk5LDMRtP+PzJI+gkosm7asIgIUligiD0yP+mM7/57ZyTOXIlxcVLnh5PWZbOJyZeL10rZfzvX61z7xeBBjedk4AGGWsfAugUkYF+EhCFBls5iqJib2+D1xdTxh1mIIaDNfBSsB+KFrTW9PuSbDX15SaaC60zg+tgfR1+GVD+Gb0R98rzCF7KF9Xg/Vue48racGL/b/c1+NHJZFM+x0N7X1oTAWSCEOXDcbtwHc1ax7u3wXXHdcdKSxUWIb6rOJvVfj9C2ojZR/mkSnx4Z0PDmr+G8IOMX/O90RJW+1bHdbdLaf+QsijbgW18UKoNQ3a8v1OyHdU8ugyYlCEVRjzAbsVonJNJVHduH7ruTRpY//3LQvNS1qd4K6VI0xSlpCJpuabyNXY1pX3mrPJS1hV8k369eSYlKPY3+7w8vaS2QoSUkjBFpxTDwYAk7cvDOEe+zHwl1FVomvNROYcHtzg+eUn1Rse0K+i7+taJiJF3k9C/RhqO44g0TYnjmMCHfCot5LgsC6q6oi5rsjxjsVyitSMZ7PLsySOMsoyGI3COsq5QyhDHoZAPpdjcGDEcDQhNgDYyTo1XRB6pg3B+AFVLZNYk0jVmkJcNMZZ4a2NEkynzkqfPn6BQ5L7QWRRFDIcbhKGEATfj0cWj63HKoamx82MevbxknnuHYOcIOa85t8m8/fmJ2nWwWhD+d7tRsGz1uzl+9RwNIhrliI0mDjWRMSSR5JVY6/0aPpktVHD75uYXMIPVFjwuNRKl89EtzboxxlCUJVkmTXZcpxJvAwr/mB367TyTuW4maN/ag//ypt6ygqvHvjkn182/fK7Yn+oe18HT5nqqIaJ+nWkjRrXrSuB04Xp8exPkuO5sNPjgtzkZL9cyRI8b/rma6J+V8LXmxO68gzCBzu+1cVnfruRLO87tPsSPYIzBVrUvvunYTi2hsqShIlDwem5YWqmlhupEi/rrdUHdvXPrStIZ/obrHHYduvuuO7YhsGEYEoZhe3vnpMFJUeR+X4TD+Roxq3Z8zafWnnjKBr/dIzkimUrPAkcahSzz3KekN4MpTtYmzG4w2GjXdl3XLGYzb6aSaymtObh5wNnZUcsMVhJCF/n8szgJ7UQper2E0WAo9togEOlc61XIm9HU1jKdTP19a5yz0ve2YUjeJj/Y3OfJk0doapIkZXNjyGgwJIoiwmhlcmkyWJVaMUtWQ+W/r34IC5IevuCdW0oIbGNbrGvL0fmcrHrzvZWCyXRCluXEUcrZyWtqZ0njhI3NLcIouuovaappdmB1b+SNbYlanPL0eMZ4kf+MJf7Lg1K6jdtuBNGr+/2ibefeL6R2P2gcSWgYpSH9OBTntoVlXvnmKDW5d2w3czsMDfcPN3l1LmYiZOZkYUNnnCXqKo7F1Id/DmslygpoBam6053M+aRKiZoToUQ3D9wSNvm+uudVrG6gOaOdq7X1vQ6NScyP1tVrd9bz+nX8nvaE9f3dba2JxSfZrdbl9XDdta6DBu9bU5T//8117++vhQG0iV9t9E/X9HM19p82AezqOHQ/2z/Z0I5h97gr35VE+gVG8972kkQ7no8D5rWhtKIBCAY0c//meHXfTN27e9vP19sHrrvvOsJ/HSifLxB4J6Agq5gSlBKCk+cZQRAQhhEAeZF3uv50BmcNidSa6UAc0JYoMORlRVV7W5pSKB/6qNpwRkevNyQMgnbAl4sFeZFja1FLb9y4wcX5MYXXOJp7NRJyEEirxiAwpHFCr58ShxLdo7xj21lhUs5KktNsPiP3jchllhvMk7yJ2lqCULQJay2bOzd4/PkjlCv41je/RRrJGHXHosWJdmyUhFS+VVV2PsC2qYCvfQimqNvNUbW1HJ0vyEuRvRoHenON6XTKYj5nNNri+PgVVVUyGPQZDDaIokQYjrraOa1lCJ3QOiUPgbMlbnrEy9OFr/3/5+PsbKJVBGRcnbPt4nY+L0EpR2g0odHEoaEfRUSB4EVZW5ZFxSwryApH1VhtrvFxDCPDvYMtXp9PGC+kExrXrCdjTEvsV+umeT4nmdl1Tdo0tK+qNlfAAbVnBG8D5cd+/b6srW9LByk8XHdO6/Pw/7XY5tdgu2HtXKVEUHgbw7kOh1XH4do8a/dz/byfDV5LUlejuVgbC93ppNcwgdako73d3VcBFablGcIa/bruUzWfa/sa6P62zqIVbMQW5SpujGT8n89T5gXyInKWfPg1Jt/XMfKqIKDu37vT/l5/iC580b7roBvNUBRF6yTWWpzCxlfmy7JMnGI+G1JqyQhDaAa74bgNdCe+WSzOWcn6raRaoWoa3ystDMFPlHOOqqqJoog0lTK+ALauKYuSPM/Y2tpkMj5jOV9I56ogpNfvkSbSZasp8CURTYIkxmjyvGA6m5Ivheg3ZTX8Q+Oa6AJf3iHPc5I0ZWtriySKpTOWNyXNlhUff/IJri74te98kzROxbzTmb71OVn/3YBsVr7iTaPyIloTwgy6Z1rrOLrwzMCJ7XF1Mct8OuP84pK9vRucnhxRFDm9Xo8oThkON0TbeMMILnBl8Tv5z9oSNTvh6esxs1IIyK8q+uXtYyLbm+xv5/s/4G3fgVIkkaGfhPQiQ2iMOOjzksmyIvfO7coXkGsIXYOX18EoNNw9FGYwmV9f/iEMwzahrCh8hrUnSqt1Ylks5ihfihoE77MskwzttWdYH4N1ovc2kPVz9Z3UNYKZYkV03spk8Oaqa/atb/ui36pDhH9eaK5yhQD6nuCNYEjnHZt7qdYE1JX8O0Ter+kmzFP7cWv3r42bWrvX+qfzASHNEzugqmv6Uc07O5q6qDjLDXltWFZeA1C67al8dfpXPqXOljfHwjnUg/t3r0WN5uF+1rZ1UB5pxTQEeS415dePaSSfLBPCGfls5IZBdAd7fSBb8JKQs7WYV5TyETd1G9vrvGNWpGDPEKCNvW5CV1cT5ABHoCXSPgxCsfN3nEDOimnHKUWW50ynU4pOFqcsXgBF7ZtVmECDk+fr9VK2tzYY9Ae+JlODIELulXLMFhU/+fhj6mLJd779DQZpv322N8bBw3Xbrp4jSHB1wpuFtWII1sLRxZxlYa+cL+BYzGecnJ1zcPOA05Nj8mxJmqaEScpouOn1DsG45sx1U1H7IMphXQXTY56/njDOq9YM8IswhC6eNET0DdzxeCNj7gmthtBAFIT04oAkCgEphTxfFMyziryyVE5JiHJrP/7yMIoC7h5s8fp8fC0z6GoEZbnq4a2870v5ujxhuAq80L47GdAmFjY1jK4DpbztfX3HOnjNrrn/1V2r3803BSv89dsaX4WTk9r7StDg9U/whffy339eZvBFzM8pi/YRNVekf2//pxt2LQt1tV47eHXtb/mB6jzzm2PnB6nZJifhnCMwkJiaSMP9Lcd4UfNiFlFgRB/rnCdKmPj16ibKqpmML3h/WDF79eD+3Wt9Bs1B6/sauG678qahMBRTR9uq8hpopJyyLFtfQaMt0Lm+6nDkK9udHwFEK7Be6rY+5b4rzbQMoZlMhxhMvP8ijtO2/6tCOj6mgRb119sHsyJnNp9TFIVI/WWJ86URVLNYFYDzmbMVvX6fQb9HHEbEcUwcR0RtfaAVYjUI0UhVzkm3rJ989DHFcs63vvU1RoNh+77dcfgycGXM1Go+/JX8Hy1DsBZOLucs8xqangsN0ijIFnOOTk64c3Cb49NjsuWCftrDxAmj0VVm8FZEbPYpqG2Bmp8IM8gqXEcb/FkMQcZLmK9SqpXO1o+heX9AKYdRjjTS9OKANAoJjWQyF4VlXlTkhSX3NfGdEylZ+eZIvyiMIsPdwx1en14yWTbRbAJNfwHlNYKiKFoHqfKRLNrJGhFtAJ9fIp36XKd8gvW41Oh0qvPszVh0CeQX4ZJr/ACdY6587zAWpbyD0u/vOrSVNyetb1+H9WdZv69qNQNZ929TQZ1zndyNLs6Lzwy/tlv7v8+OV14LUOqqdN/80XmOt31X3e8KuZdaOVRkmHzQgJLJ8jNFXVlGPXiwYZkuLZnVLKqAZaWpvRbbvEkXGnKnvJ9VAmM6O9agSx8bUA8f3Gsuc4XTNLC6+Zuwvk/5wnMgyVOCnI3Ns3ukJggkykY0AXGKXXe9N/5YlzLlPo35A+d8CeOu7bz7bjLxbacrFGVREUUhvd4AbQwGRRRZirxgPB5LGeBrBk/q9NdoY6hrR1VbRsMBW5tb9HtiUuo+O37uV6DaZJLu5CqlWOYVP/n4U7L5jK9//QO2hptXCHl7bOdM1ZGG148RCivbHUjYnj+z605USAvE0/GCZdbElnonOTL4RZbx6tVr7ty6w+n5KYvZjH6/j4kiRqOtL68Z+AViXYmaHfPiaMxFtlJzm8XZNCZvOo8182Y0PkRR3qU71s7J2Da0SSsItaIXa4ZxSBxJFntRVMyWJdOspKgcpf3lCP4XwSg03Lm1w9HZJdNFeWUBd31rVVW1RHgdtNZtlzLpZLZ62mbeZXSu4kB3P56EXnfMOqwTbqV8BdXOdtFpZUrXj+/COl428GW2N9/FBLPCcclNcjL/rqvdv0nwGtwwvlaT9qHPK8m/cfpe7+ztSvfd7eq6bWvv1DBCpcD5Na98SfLASFXkraTm3rbl5YXi1SKiVhIFpDpm8S5ctw3/PCYIvMno+mO45nz1zsP77Zb1F1j/3cD12x1KSU0hrTXW1l7NfbMMLEAUxYRh4DWDbjbditN3B7hN4IEryqhIqyIlKIRAW/dmT1fV/Cc6qqdDPqrGSfs/5yDp9YiCiNn0jNw3DG8IjXNQlhW1taRpj14aEwURcRLTS1KpD+RDAZWXAIBOyeX2Ia4dky4UpeXHn3zGcjrhK199j52N/19zb9JkR5KcCX5q7v7eixU7EolMIDMrq4pky8zINGVOnfwNXG5V/Ruqjsy69pXsOQ35H2puTeFvYPI2VezLzIh0N5kFJJBYAohALG930zmoqpmaub8AsobSMxrywt3UzG1VU1VT224VGo5BTSg+XntLteXCau1ZdkyUqoNxcr5IwkDqOHUxbNYrPHv+PR5/8inenJ7i8uIdjg6OQF2LGzdujwoDoBIIJPkBi5koXL7Cd6/e4XRR2jxl2C70BCtfqldtS5sAt47IjDYETDpgv5Mdm5NGJ183jMWmx3LdY7ntsdXLT0zY1fX5rwk2Mvj+5AyXi2w6JSJZdmw7rm2pNYZ1aCODGGNxHMUuekp4bWo7LZjq9tgBYyYdQm6DEl+194481WB1ntqvTs/hZce83meh80/MsiltLDUyARDy6p/g3kkPg4MJA8dz6vxI+hrW4+1d8VpDWm+y5DNAV0DZeI2Buwc97s6iXJtKLc6XDeZbvYi2KswYSSY6tSfpyMzyapaWD9hJzVBhsKvyr8NRSlgktbGcoDZM8ZazUUx7IW1AGRVMQWR2zpxRidc3jhQykOkfiitA0rfy2kjBvOq855qWSpeTcCDmmcUS09kMcbPCcn4F2LxHH3F8dIQ7d+7gUHdABls94BZTClGgEgDjAtEDuQ7BADabHv/nf/0W84sz/PQnP8LdW3eKiVnfeUoQDQmQ4mkLlZ001Y74korXBMx4c77AfCWXwghK2pDB2G5X+O6ZCIO3Z6e4eHeGo8Pj9woDwDEg58dxi3D1Cs9evcPbhd1hnaHrOlBlMjJGADBIbyzrQsD+pMHxXovZdAJA1uK/my9wsdxivYmIkNNW/7+A467B40/u4PnrM1zZqEuB3P4BAFgudZe5M/sQEQ7290FBDqlbrdepJckxrzGwFT9mjkBVy0Z/9g5TPaoor0vj/SAWAhm1jcczhidjvpC+b2FKus4TpVYXjc0BOJt/ek/zAfJOqoETzK11YiZLlzeLy4AEKTgVShSkH8kITzd5hYiAHj+6zbi/H/HtmwYv5h36tCk0pitMLfqah+9k6mN4HXFu3R4uuDh8GRgA/fjLL1KouiHofRIbkGgUbd5NaDCdzuScmxixXq3EpEJA17SYTEQQbLdbt7fAx+qlsp3iJ8JBcGU+apaza54ifUfyz+KU2XhXMSzXJCJG7E0nmM1mmHSTAdGkWDzjN6GuwlDKwi6PmuZYg7AM75nk4Kj/6789wcXZG/z4yy9w7+4dhLh7lY4BwS/XyfgRUlGQPMITCQNvLxaYr7IpCSZsibHdrvHds+d49MmnOHt3hvOzMxwdHQFNg5s372Rh8D7Q/HHcguav8P2rc7xd9slD6kbiapsGIELfb0WhCMC0DZhOGkzbgK5tECJhE6Nq/pt0iF3apKv/PjB3/+ogI4PbeP76DJcrO48rNxPpHbxt24J1Camd5tsEOeXX5tUWi4XpmNKCgz5hdKh16QptterT9WB+tTCQYIawUBbxMH2DMn6f8hDqvJAqkERK22auSVq4lR9i8iFd+ukmgtNPd+PbxLB8Y1aHHA5qVpQFJ1p/khnt+ylzzg/KE1TcklgpmICPDiP22x6RRW08mTeYb4Pcb1IQYzZr1rx9VAiM4OpwpCOEqPOoY0okQ+KiH3/5RRoZ5M7n3R7EFCR+yryqIEQ6PeNWOQDASu8x9uewL1cryURV4RaPPVMjVXnK7x9WKf4pxKIEFGztsBAQ9Mwcq4ea/1qyMjSVZYlSN3V9+TzGFJ+A70xDfN9H/N/fPsP521f48ovPcf/ePQSW6yZrIC+0U7lNKlk7lR9a/Xg/0f5Fuzm7XGK+NoZVDjO3/RbfPfsOjx5+ivPLc5y+fYujo0OQCgPrvNdBKjUxYtwizF/j5etzvFlKHki1KmMABGCva3Bjr8WkFdMPAmG53OLyao2L1QbrvoeMZaxTeW1Xju4Yo5X/XnA0afDZw9t4fnKGq5UduiFZsuoiXS5q9umlnjq6v7+fJoqLy2iSMlPTUYbU9jqp7Ayxo19E3awW/bcD8PSLnWnjmjg8udZhSHPHxAg6L2BBTLu3OpIRQL30U/xMcISQmT7cXgC596ASBFpBtssfKgCEHiUT5k4T8ZRnavoITNoe/+YjYL+N+C8vGafrCfrQSnhrjoJH5f5Y12XNyxRZYwAN6+keWrc2h1Aryr716Cc//hHbBwaDhknumCZgfeOkcC4spRGC7KK0VT62qWq9Hr9zNX1fCYDa7Z++g5cVIRVL2pjS/nJ4FBJxmAYhDU26Eykbfmrw69HHw5AzxBTdbTz4KERm/JffPcPp65f4/PNHeHD/PgITeGQS2cCn+6HALHMEKGoReHe1wny1TesDGfk89tj3+O67p/jk4ae4vLrC2zcnODjcR2ga3Lp5R1dryAY+H6mvL+s6Yj/dguav8ebNOV7OGYEZTQPMWtnkNetazLoGkSN6Jqy3ERdXS6w2cll9P7LB678nlDRX+BQVcDRp8PnD2/ju5AxzLwzcBCM0Pj9CWG82urw5YKVLsT1YvV43eWsgYXV+TcVCcXT2iGnPs4yS5oUfGIwpHbvgunAEU7T0RZdRBlv+2chFTEmR042snk+Q9XPo8c+angmQoDyANC9EBAqS/7G8lXipJNub0kfGpAFu7fWYNj2mDWHTA6+vOixZbgNM8bgeWtNM6c55qMNdJwhqYFZ+paMlGyGMAf30J18mHytsXRnZXdq+63AgoHGqK+nMvQkE5ojlco2ok70+nH/3bms8w8lqEtEGoEzFgJTpGzAYHW3Rc5MaHzZysSseyVb8iK3dDlYzIJIjtcVhNs8PJ3oPP+QbZsY/f/cCr18+x+ePPsWDBx8hMCGSXNKSA1pX5bQyaVdjwxEMJQbGaquUbwE9/G65wdyZMvw5MByjCoNPMJ8vcHLyGoeH+zoyuKuMbSgMdgFji2bxGu9OL7BBwF7X5tU+qx5nixWulhuso9xiZhrgdivLUHNZ/v8B1s42qmmIMAnAjYMp7t8+xLev32Gx1nbQKqrXwpPNIbQtQMB6Kft1ritnJDiTZdHDNJVd9Gd0QIMwVrc/hHZ3wXgcptyoXV7npqRPyi8oI/NzACIMrD+LOk96kXz9/dgvgMBeGIBAjbbJaD61LvRdDotk3JgxHt8EKG7w3XmLy22LbQw6aZAhjbqtt460Yy0MCje74bbDW9vsis/7kRshjIWnP/jpjwusVEQmKEnfiEE0PiJZXgZAGKyDWsPZbLdpBc5ms807jNVE0zQNJhO5pnFvNkPX6cU1dYM6t/fz3Mb8DJgYdycr3O8u8Gx9hKvtVLUIaVQCZJelChn78x1C+KsQ6FinoJHOUrsNxHwiabNKbAtXH7rFHPHt96/x6vtn+PTTh3j48ccIUULm7Eley4blok4wILLr3fa+2kZcLLa6fFb9CIkQnz59gk8+/gSLxQInb15j/0BGBrUwyJSk7KZMWobXcYuweAvernG5ZqxWa8xXWyzWEZsY01gMLn952eluTef/DVh+a6jblUjPXko7mIEmEKZtwGzSYK9rMJu0aBpCz4zFZos351vE6Es1DqQjhKZtwXZzmebKvmVABUDJfLIvQ/ox6cSt+WWt3mgx/ys1/uuExfugri8BiY8qerA+TSRr5Rvd6NnYaCCtBFIhQPJsbPRf/eBHAtBJY+Ul0JGGjDrSpISWTvT3Qd6Z0bWEwzZi1jEOJsBiA5zMA1axTWYiuDnBXbRZ4wfu9M8ja4RA/a2H2o+qOQQfjv7gpz9mIRQrfBYAcHME8q5V5YSBrzD/Pl8scXU1x8odPmc2z17v8kzgHHuzGY4OD3B0cJAa3Kdbv0u+NRp9KQoJYBo2+PLwHIvY4un8KNkCh3l3GbFZfYYc11BkeAiWF3u3KmTSOAi6K9oym7uXhSuAgaevTvD8u6f49OEDfPLwY/3M7Pc5v2WDS7vV+F3vNS49QTibR737ofQLDeF3v3uChx9/jOVqjZOTl9jf20No2x8uDABE9GgWJ3j75hzfX6zBust3rD09mJZY73D/fSDTFZJSIAcQlv45PAC9yY30VrbDWYv9WYdZ16Fpg1xAs4pYbRmbGBGjnl0UYx5tjoK0odH4dDYDUYP5cgHm8U14kr/cV3PN1zAmNGowbd1ozLeivhU8w6eX6RLa3tmVywVtV1ImbYy++BnOhEAyC13307og6KkDkicy4aH8TdCSZ/tWQ2pflLyKGRM4nhI+PmZQ7PF6TrjcdlhHQtSrfes+YsCCzO7af6dba20H7WPHt1aOMX8D0hFCvcooCYMcEGmyLVdkrjSY9q8J+2+hVyq+u7jAZlN1UG0oWTOeJ7/kUcYBIky7To9skGOna3NRDkpCYPqdQF5masCIeHRwib22x/eLQyy3rQ7lJF+wuIwrEwCWicwxDuYrfqwRijp1QiGFycUfCgKN48WbMzx9+js8/OgjfPLwgQxt00R0mZ5/Svnz3IJv8F0EUuO3kXG5CsKU9ewnQEZbTSA8+d1TfPzgY6w3a7x6/RL7sz00XYsbv5eZqEdYnODNyQWeXywHbXcd2AihFgi0Y+jswUaxRGIvzqB0EDgxT9P+ASCQ7mNoAvYmDfZnHdpWaGndRyxXPZabLba97l9gUYSg5oXycqVhHisSB+kRL3aNKRzNWN8Rd9D4hnF+mBDwwAWNGZT9T8LICrYyTWl69XN9LPkrcw66RFtuAdNloIUAyBPF5jacvRNlpTWv+Mv8wvJszwBpSyKvkQkY3XQtY9pGHLWM4ylh2Ue8umpwtZUDLj0M+9/Qr35/v9svBhHwfKX+NoPajd9D/6y73r3JiP7wD34yspoIRQP6sosmlCvWE8fp2TtcXs3FUVVYctVEUbaE4rLz+OgI9+/eGaRnjWZ5NjeAdAqnxJUlN4Nx2G7w6eECZ5sJTuZ6UJ1qE8w+vH3Prk7eD77BklvLWTQmckHHGo3BeH16gSdPvsVH9+7h04cf11U3+I4Hm0ucUCwmWdNEQ6qXGrYRmG9kJMd6j7LEp8Lg6TM8/Og+1psNXr2SkUHTdji+dVu313w4MBhh+VqEwbvFSG6uh+tGCL4tindrW1IKTF4iCIyuGACRTAFOGtX+9+T4CgawWG+x2shR1X1kbLa97GeIcqsUA2hDg739qezc1fs8pJ0+jLZ8vneB0FNxDKuDUeQHQ0HTqs37vH9Q7Mb8zfbfNHL3L9nIwG8EGzL8oObdYMxe5wjMH8Rp7wBB+nQga8ucSREUuU61hVM/vTnrcf9A2vJ8BVxt5EC4LeuVvAq+nyW+M9Ifx/AGLAynMMVKRn3/FNgVB1z7XBfGwIchsjuVRSDQH/3hT4WOik6jT323zwPZml8fVuy2b07PsFq5m8E0TEEorkFGwTqmywNAmM2m+Pj+fbR6vEMObu++EjJzSzlwdUsAKDB+cnwOhB7fnR9jHSeAjYjq/Om593hPg7wXim/fv+qHAbx9d4lvv/0X3L93F588eKDlLb8bEJwd3reDMNVVtQxLvaU5KsKWgcUmuM4iZg5AjoR49vwZHtx/gNVmhdcvRRi0XYejG7fNEg0UbbQbRBi8wduTMzw7/2EjAwM/h2BgncTy4GlXGEhWGhJO3hD0uItpCxxOWuzPGtGkIjBfbXG17rHpI7ZRtH07LVfqObcTEY0KA6lveRZ5sNb5gHrzIOGpmF/JnlUytRtaOWmI6sowElb6R1l3NVi9U7H5K5t75DwgsRRYuDQSINHsTcvPeBdvELXU6BVBLBkiCGQMLfxECuDr094ZjDZETAPj1n7EzRnjck14eRmw2HQQ1qExKOO2Ug/63Y73uh8OcaawDUcCHsbiMbjOD+/xJ2cyoj/6w5+qwMvakKdDk7L2YT1X0Pc9Xr85ld2SFQEnl32fMSVYBx2izIXpZIKHDz5C24reaelbnjM4TVelvWDV9GWNS4xb0xUeHVzh9WqGk8U+QK3GpaMDYjWRVCahFGcJ11X6+6D+lgk4v1jgn//ln3H3zm08/OgBgt545VMeEB0bXVX4Hwg9gPnWxoEZYpQLeS4vL3Dz6CauVnO8evkCe5MJum6Cwxu3ZfRYmRavBwaWb3D29gzPzpbXm9OvgbaVC3/67RYMVpuxlsApGkYjNem0DWHaNdifiPmnDXIZ0WrLWG8jNtsoIwCWw/w2fY+tnoGFa+q6a1vs701BhTCoBJHLyliNjcdc1+/YlzXspN7Kr+5XHsb9yDF026EfvMlH7f1JAARCA7sDIN8RTGm5tzcRkd4Mq8IAJG1KEHtFRW/paXklVcA4IhDj1h7h9n6Pbc9YbAKuNgFzOwwOIfFl36bMciWrL3nd9kV4lBp+SR/elD0UBLtoCe/x88AjI4YxnLRXC/o3f/QHej+SSWgfKJtYrFPVI4NXJ29kROBwBUk6R81YEuwQBpxw8n9vNsOnDx+4MPaF5FkKWTZXLoHqq24TLwNg6vE/3LrEIhKeXRyh5wbUMJiFwKw6eEQo1DCGq+G6MIUfAZdXK/zXb/8Zd27exMf3H+iQesh86sb24PP8IWBhtwwsttnuiio95ohp2+JifomXL77HbNKhm0xxdHxbO3tJbNcBI4KWb/Hu9Azfnf4wYSA0m7V/O26832xAtMNgRQwCoyFCEwh70wYH0wmmkwYtMa50NdNqozZ+pRtOdyaJWYIhRNRzxHqb79KuoWtb7M+mwpbM7Fbf3ytRpfcaONH3D2vPIRTUX/kN24pV+bH0PR5mLXBafxN0D0DS5hvR6Btv8nECwZl+0ojA2tTMR8aX/MjAtXmd59oNMAIxZiHi7hHj1j7j3Zzx/CJg3beIgRBiAJPu/WAxGaevHd0ng+mOPpfCWt2y4rQSzZ88/x82w05a2oWHtdU15qJdeAMVBlaBmdDy0wX2FnUinJ6ejc4RFE1RfT8KltY4uvA5PjrER/fuJrfALiYtTRKAdOYHNDYptLkZd2dLfLy/wovFPt4u9xBCPUT2kjxDXcHirHHDD6/DWVYXqw3++V++xY2jQzy495HYQCvTxhghfggMO4x1eHnvmZIw8OC/65qA+fwK3794jmnXoJvu4fDwpnbu6hsbwiuwbweOoOUpLs5O8cQJA5/WWH6heJvclWMG8kRjv7Vb5eQRCJg2DfamAdOuw6QTbXG9Ea1/3YvNf9PLhTXRdeRWzRQWoaVlnS9GuSFu2zN6ZIENFQZ7s6nSoQgDoScJk8smmqS0w87eMsY7SlKtcLviGQPfj+o+5XkDqdbumb9tALPRgNj1jclnQSBP9WtyfD7eIh2dC0lhhJiKPBmYMzKjDcDNWcTxlEEcseqBy3WDq42MAKTnQ0b/+j3bOxvPKJl/LQx8f8+48ukh4YZeo+FxDR7v8cOIf2pX1tGS5RUqDKxC5VmZiTwBIK+IWSxXOHnz1gfMrxk7QOwkcUtniPIYAMCD+/dwdKiX2wPjNeuA3ZpuK4+d3sis2n8gAD3+pzuXuNg2eHqxLzeBSZWktddjlVu7Ld7an1kPrlKcRV2HZT1Fc7ne4ndPnuJ4/wD3793VTnZ9Wa+DuuMUQGWF9wwstzs0a4W2CVgt5nj+4jkmkxZHRzfRtTMRpMnsqLCLuREBOjK4PHuHJ2+Xem3jbs3P46w6ytVAEDMFgNhHuat4v8PBXgcKAZttj6vlCvOlnV3EwsT7KIfYsbCAEPROC8hFI0GZkM8bNC9pBAkWwaJLSRnApOnkisq0uQ9JIMDRgXpIx6zqS2o0v9dgcVi+2JkzPT2K97A+a0hMw0BNOW0IoEYngd3xz/WTSMw6gZpUb6GR/u/Dwgnv4mejBc1rwmteBCcjUDmOnsS4ycBBx3h4I+Jo0uPkEnh52WHFAZL60GxS9z/oyMD6qvfntAfV4ew7bYQCl+J1dTnCM65z17DLfxfe4Dp/xkAYDIeg2S/jAwMvXp2kUxU1QH7N2AwEfPXVV/hPf/f3Bfov/vzP8I/ffDP4vqg+a3x1TroJHn/60HzFTxuOSO4JVdGl69XlW3+ap23IB2RegEi0hIYYnxyssD+JeHE5w9VGjhVGan5zKDE4t70PCcFSMs1PcZ7IVACYTTlG+W1jj65p0eptbGbiQMWQhhCkbJpWYi1WbIO0QEDqS7QuOQJ8vskamtStayPdN7JazvH8+2eYTloc37iDEFqNKWvPqQF0ZMmaXJZrEVieYfHuDN+erlL2dpUv0aQGFGumlLVrZMPX3qTDbDpB2wRsthus+4j1tsdyHbHZSPki5A4Kqf8iCQBqx4YImlaFgOBz+iIqZA7KQOLSuxGYZQJ5NlM/pQR9erCmGSv1SPaAOmyyAGn+vN/OGMYh2ffRFGf/pKOglamjOBaCkpkn2/yVsY+YeJKwpQCEcvm44LUcRIM5gUS3LEdBHO8xDtotGgLWkXCxCphvGmy5SbuamVn7oDJ77Y+CyseY534JRBsdaJvqmK4Kp0+Nz38/gArpeYUidrbUIOwOXA3XhWHnn4TBoLKveV/MF3j79iy5ARTMHANCFMR/+ru/x1dffVWg//Gbb/AXf/5nGeHTzNjUU8z7o7t3cXh4ACI9KE6tOgZRbz6zdyizsG7iLnnMDIqNGQKzsMb/eG+B5/MpXlzN0ncGJSFkZlJXfOS8t3hAPO7JuhnPQASXpurr1pmJCvyImxMDlyV29i0l5i5XceZw+h2AHhGLNSe7ex036STher3E98+fYTJpcfPWPbShE+0pioFdmIKNvFS7trIHu3UOoOVbLM7f4cnZsjjLZQzELCRdsyFg2gQczDoczjpMJi16RCz1wpqeAUaD9Xard1Lr1O2ODmLl9HXSEMs9FdeMyiRsmW9Wgm2C3JsNRy9Kcf964Oa3AG1u+GS0/awZ2XUmzb/8gAZ541e6/SuZfGyit2b6lXYfZGRlfnAjgACSOQS2uQRAxnGWD8mn5E4ECjPLuWFQhh4jDmeMRzcDJrTGy4sGp8sGa5YLYbSQ2th+RCZ9LbslbEwC2vdLFfQufG0m8uHLb0t8QqbX0q+IQ0vAI3MA9Xc1jMVjEMdMfz5sFgaGKjv+2PvJa500rsGFffT4Mb7+y6/xs5//vAhyHTx9+gTffPMN/te//o94+vRJSaz21JfpdIpPP36gTeOGjwPJWmp9vvD2P7DYjl1ygkePR0dLdIHxcr6HRdpwkjU7ecq5S5Dk9Wkp2GhAyTgRy/jTQOpaj7jVXm5plmFqEMafttin4JLvEqTjchqZyPLIzXaLzXaDTSQ0ocWkm6UJQLh0QwjYbjf4/vl36LoGt27dQ9fKMl2G7LSNUUZmMt+RWipdI2kNR8u3WJ6/w+/OVkA6YbQkZgLQBGDShHR89aRrEEjOLFpvtlise6y3artnWfljaW7fd4VmHj8lTV+zndbEW46kCvw7VCvWCJJmK0LXGKKnnR8CEtM4eD9fX4DRgDH+MhZj1PZs6tU/nsnbaMDeE9M3nAoF8/fzN/od1D/oYZC2agiwLRLGh+RZ03fXMg4mEfttxLQDtjHgbA5cbloV8EJ4iQMIEbo6lz5kP3Hrz5lvC7+o0Wicfj7I99ka57xgPImqb8SrdEOzPaas1GFr9y7gMaHiqMHwhZkIeu6QfWjvHvq+x8sXrwtcAUR49PgxfvOb39Y+HwxPnz7BX/zZn4tAgOttFbE//uRjdJPOFU3gfZVk/nZ9X1PYESUuIiWsELEX1vjpjSs8WxzgdDkF2RLPWJ4oxMUQccdTAyaXEiOU6bC+SPq2HM5SqMtmk9yiiQmYMCjbDdW37DpF3/fo+14EwLZHr5eqAyL8KARMJnKKpjE1YxSx3+LZ999h0ja4eesu2nYi2n/IHTNGPdZChQJBRgqJxgDQ8hTL8zP87t1ahauO4hjoGsZ00uJoKuf9tE0jdn+9q3jbywavGIG17vrNzalpaL6LC3KMZggyarQq0/ZI4VQjtryTmhTl1Mt88OEusH6Uw2SaMDNexuZOSkBB+zVY/VXYym0g4YzJhhDQkjvzx539I5p7LrflPQkIorwPwE4STWV0k8ewu0jM7GThMm+RFYuUj42WQqtDOPHhNODhcY829HhzGfBu3eajIFjPrrKlXjIzk5aEw2id9MavqCai5Kc/JwzshAQ/MoCOCsyUZPH6JyD0Dua8YGUkvHdbO6f23hGvQQo/5lfkQ6CgDtZJY3t34YCROQMPGZ+jvLqc4+zdeZlIBX/zt3+Ln/383+Obb77BL3/5Czx9Ikx98I21OYTpPX70Gf63v/kb/LuvvtppPvIVd/f2Ldw4PspaXDU5ZDCGgwoDJoyeE2NlluE2ow1bfH44R48GLy4nWEfZk5DYujY+O0KD01LGGljerRIsM2l8PKgxlsjL7m7fmZmANA7/TfWMqrHbseL27GOUY6KjahKhS/ERyb3VXdehCbJ8Uzpyj2fPvkPXNrh5+y66diIaXnWAoaQrexTSmTEkrUkghNVbLC/O8ezdGm0A2kCYThrMuoCukbjWfcRy02O1jrriR+p7G2UOYNiKAmZWMu019vmwP8+MPZ3X76LhymdkE5baVHk8kcFjjImWYOmO5Fo77e8HZXzGdL22byuA5IpWmwjOWr6YgmTOBMrsUzwDc5ExfjHnyLM0C8lP65SkvvLIQWlAhQKRCP/9jnE46THrAjY98GZOmK8bN9eno3kV/MaEo+lHaaQulyUx7HIXksGC0iSrmZShvbkQIm5uAdAd5dnf4ijfVRFxzeDD1G4WhLT3NeE8jnYsUIHGZzXkwajJyprCOFobWVrqYnCdwp6nb89wtVgk2+8Y/Oa3/4RHjx/jz//0T/HNP35T+A2+qhCPHj3G//Gb3+Lp0yf4X/74j0tPoOgkRwf7uH/vTnLXFeXxHgh+8vIDgCDaDCJudmvc31/h5XKK84WYRIwwASMg19hVoyVCEYp1dmZDCgjDUbxGlxpPCa78IhOtpc5O+2cvBJQxxxjRq9YuSynV31Z8NK3OGZDWu3TWdE9F24LAeP78KdompJGBMQA4uvH5sUlyIllxAgba1SniZo71VhjEpu+x3vTYbBlbZmz6iL6PiL12SmUC1omMxIl0RGKniIqcTDVj+bH2qPNZP+29dluMwsRKsDzYwoT6e/nWWmkM6pYVkChy2lBysKhZBauElZ2/9aofu6M7a/N58jc0Oa9kowTyJiA16xQmI4mDTJhoG6Qy6yCRENIOYk5+ctAfQAgN43gPuLPfg8C4WARcbBqstkEEQJRyGw1J2fPEsD3LvhfBkJFg6geDkcF1wkD0RHPbvAK7NC1u/7TmSXhxWPDCz7vpA3iXgeWDLIyj65JCStgVHzAQBoB0mDIQrEOA8PK1rCKyIGNa0Wtdcnrvzu2MHIm0wDjHq9dvAGBkP0EJk0lXbEKrYVfBiXOnMbDGGIJokUKywqCnzRqPD1e42hBez2fYGkNn6Y5wI5RBHvyGFqES6cJjSbtWtfzZENZw/j0RayUA6mfPXghkvAgESSe0DZq2A6mpSKorZzIAmEynmE1n+O75EzSBcPPWPUwmU6CgJwGhHtehNM31eoVJ24DXF+D1EouNbPjqo9wY1UcZqcgBb9ZqWm5y74ZIM6d5srwGY1R1m9v7GG74bulms5kHglvtNBAI422IFI/hfJweN6Rrn0aggNbtADYbv5mAknbvRgPC0CUe72+msYxTrT+ZiXJ4IlEakskIMhqzNC2fEWIu7FrGbNLjcErYn0Rs1sDreYPltkFE0EUUJsmNSRv9UJoYtjpMT9gIuhIE+p0fGVh3qvsOiMCR02qiFF7VjkGa1o7Mqd1yfgw/bG+P8+Foh2DIsVfx+oAVsJlc3xMuqTU5YVJpWRI3IJUct1rBDidZfA9o/H/59dd4ffIGv/nNb/GXX3/t/PNrRl0fd33j0y4gm6dkIRKhlarxrbKd2761b6ANse4n+G/n+9j0AV/cuMBBK/fyCssDSI9fDu5aPRlICxNpAhACIzSM0ABNI8sXBz+SJ0wxrzRbNuauNv+47bHVVTObzRabzQabzQbr9RqbzQYrfW7WG2zVb7vdYrPdJnMRrPxWbqGIXA/OHrtar2T3sNFPVaf5p7SjlWgMJATC+eU5Xp+8xKu3F3h+tsDJxQaXq4jFupfJ4I1MDhf0SGwNk5iQ/LQenU06fTJgyDVzH9K7gfA4lwZBKcExwQoYKpcG6WZBgCpfEsbRnrZ52TlcHery3q5tMe06zLoJ9iZTzCYTTLoJJl2HruswaVtM2g5d26KddGLumzRouwZd16LtWnRdg07D529adGoaFBNhm0yFrb63bYumkXOb2rZF1zboGv21rSyLbluZk2gaTDrC/WPCF/cjHt3aYm8ScLVq8d3ZDM8u97DuJwjUoAEQdBm1tKe1kdWV0eZ4/Q8YSnLKS+7nVTitW2bZU1CHty88j0hxMCtdZP+cjsPpyp4xP4P6+9pfPYfUMeh7OU0LV/tL1yU7m0gKkInRd5KcFBHh2fMX2Z3eMhBofGQA4C+//hW+/tWvCtz//utf45e//EUR16sTGRl4E1CtySsSP/rsUY0Fqso1YTBaoQpjBEUR0BtlxF2HIcaE1nh8uMSbVYvz1Uw1CQFJTt22sIejbHdPoXSqoAYJrA9hzhEMjrpcVfchWIOKeWc4ErDLXyKLeUi0HdVv9MpI1PWrTCa0sknLOmGd0RAI+4eHePHiOYCIWzfuouumoGaHtlzXX+zx4tVLLBdXAIDNZiOaGhHAvXZKyRljSIvshtaDuB3s8jNttf6eBkLD0s0mobE467wY3eX48qjbf50nJcvyjQGRKRilCShp/oV9XzXzZBoiMdeErNXLklnT7qXqSecVoO9pNOBGBwQ3OZxGA5ARhgQGiUUJbQD2OuDGHmNvAlytGKeLgEXfSh8j/ZnJpmaeSv/stHfD73oHAIa70cvmlWweIDFCmXAuvjdm7UYQdqmQuVO81kd13tHQPi5ybu9Xuy1sjffA4lHwD0HVGKTYWJXT8TAAIHUyempp7fbvz59/X+ZYYQQ1YOA2l+Dh6ZMn+OM//rcF7rUJg7t3BhGXTAv44vEjq6JR8BtTd1WGj5MsNgJkQKv4oj4goUi+bajHnekSe03Ei3mHZS+TqB6sEb27rrNESDYiYpEgIgSMmSMJATHtODPPiDAonkq4LL0haewpfX3aUsim6YSx76ANBuHg4BAvX3wPRsTB/rFqndO0Pt2H9yC8MeLFy5dYLa/Q6w5glgwWO4rZM9iRuHbBdWFrv7H4d4UZg+K7VJF5XwURqZabghUw7N4CBGG6DWzJprwnxqyrgKgy1yRBYOGIEIKFdZvKnCCxb+u4Eq4WBFamYKNeVQICYdYSDmeMg4nQ6mrbYL4Fln0Dmb8vd/OTtrPRZ2KQ1TO6uyDqcLVbatUmjhnMIR0XbfHYwgP/vfyRzi/E6zeaSSca4tzTwLt9GDJGTeOTyKz1A5Scro5fkBK49CP9RdhKvRoYo/cZZKjdAPDi5SuZuEnxKdvzuXWfCbmIzWpMGMBGEHXaOxyeyYYQ8PjTh/WnCWpBYOWpK4OKWM0EMSz/rtVWgPDt42aNh/sLvFxMcL6egEdO9q/TrnH+PWn3LETJzIi9Emit+RvT11GAx/lfnUbC+Tp2tmYSG1b2dOVmAPv7h3j16iU4Ruwfyi1ypJex2FJUX0/FO0e8eP0Kq8UlYmT0216WBaYQJdTt4eE6P4z4E+mGt6Lc4/kccxvU+GSSdH7JbFWELMELA4Iw26DHX5NOBqeNXl5DL54yIS8Tu5Uf6QSwmxeAHv0dqLT1BwkkZihbNaZlSWEAoNHjInRE0QbGwZRw+5DREuFyCZwuW6yjjRRFgQgs6/UB4X0EmcdjyGogVhu3mVIkXH6mH3TEMELf9k68FfMkQ/qN9hHWPIll1ASAgIyipVOwGxWM5cWYt+BK7bsOX+N3uQ3S9yM4DwwgJmJmx/dIfznkyOcAdIn93bt3/gMKwkUVQUnwi8UiSdXkX5P5KNUzbty4ia/+5E8K7F//1V/JcRRIiScYROMQBELbNjg+kjOK6k5ZHVVT+JPTdFB1UiIRDRbcwqb6EXaXBAhptgMI677BxbbD8XSDG5MVVrFBtNNPdQgN5CV7uc5d/FQSFTtlgSOL5Z1Fg/ZakoGRD7sy+zJIPqx8mq7hVFuUyUTdKKV15OMxIABd2+FqfgkwY9JNJA6Wid8YZU7H56MABubzK2y3cv0es9WT/+3QUkdw1/607cwt+ZH6JrIljv4blnp4T1oeQopT4rXWkLC5/orvXd03uuO3bdRW37ZoG7XJ29PZ6OXZoGllwrhpAtrQCD40aJoWbWPPgLbV+PXbppWwhguN7OFobQ4g6D6ERnabSxr5foK2JexNCbcPGHcOgaO9BhQC3q1avJm3mG9bMESYka5ECtoWgYKOlLRtSPRv0lVggdSuWtOMQl33iqwQ2gZJYADMAWAZ3dSMNbnTaCHHksxAJjQKRq3/XXR13B+KG/blId5Aasx6ewaSmhWH87LwlL7L5WFU117KU76W91y5Fub07AyLxbJgoL4RiIGTtzJncDfNGUicjx9/hp/97Of4ue5K/vWvf43/+Nd/lb4Fhg1aN69HHO7v497dPC+RyqH5+FCwsKn8BMBN1mawtUIlEKRTi4MARBy0a3x+eIV/uTrAfDNFoIio9m+CEI5vdrYGZwZzD44BvR5lkeYHIqNPowLZZ2OT6JF1Uw1s/81wdRE0jUxYWVNg5IKZJhhCkNudtDN7sLqazg5w8voVYt/j4PBIBJ2ESPs/AgVMugmaVi4MSfXKjNcnr7BcXCHqRHgNwzYYx10HmS5kFZndWFVGw1oB3k8Ytgip3WkSyW7qcibIpUtBhEGd9yTsRGsvdgCrIIKOCmA2ez3Dh1SYmKYul8WMjxZkxKDfONt/0zQIzm2SrAnCqAPJutCQhCQD1KAJEbf2CbcP5GC407lsBNtGPa4akNEks9KYIt3hfEJ3vZhuYJ0hj2ShwXtVjMbot8ZFtViIwqRae+zBejxK6hsAYi/fyoVNYr2wkUgeSUjasqo1bzhLcVvaSMUa5M1gF96gxvMIrgZb2QQNm+gt6j3ONlcKoTXLvwiLYdwqDDQIIZfKtEbH+ogIl5dXOL+4EAY66B9CbEkY3L6d43OdwDLoP//qqz/B3/zt3wIAfvnLX+Cbf/iHwTe1486tmzg+Osxoqwz8MGGgeoI4tA4sLgNxy0qa7Hb+glQXAxQxDRH3ZitEEE4We9iaTYJ16ZqmacRlRC2aPyHaZDEL0aa9AKwTwTaBDPtGO4oRMUP98s/S84SW8Jo9YQyy2oeTiUDrtig3Yzo9wMmbV+i3WxweHCVtWgJrrSpRNk2Dppvk+QRmnLx9jeVchEE94vRALu3rmtbC+TCeLnKo8lW+UIZoXrvob6QejC68n+UluY2BB1lzn5Z+pjX7bs1/GpUoI07M3Uw1Zdj07iaR87cahqR8yd8JIsmb5FFGrqq1BzmKY69jHEwZk1bCrLZyENyqD8rsTdFR5q/lN/qzVvM0mHHyT4SC0bSE6VmEirlrGq5/yQ+96MJ6E535y3tWmCRtnUS2HcbMMmfAmodUhpz/QhgkVKaBFB4mWLKfhxqfvxuCCSkDRiZMH40w+8wDOcU3FqsAM4swQCJg+UzekVLyWuF2u8Xr12/G+lOC3/7Tf8bjx4/xZ3/6p8LULRNVQCEfgb/7+7/HV1+JCenpkyf443/7P2sgT1gahX72yYMH6Lo29V/LN7mK2AWpjCwEPDZP4MOAJJwvgklY0o7gPNyhcAHHzRJ399Z4enmITRRGII2nTcTaESKSVsNszF4upze3aDJ5PqHW/o2Y7Fsj6F1CwSC9p5NGlamHkEot1eFLGjGd7OPkzQm22w0OD49kFYoBoTDKM4sQbLuJmCWI8Pb0REcGMv8xBql+NYvCe4oaT2ATtjIqMQUHVb41Ts7hRBfWdq7iJozTk+8zY2BaO5kWrnZ/WQ1kGrlu7HI/GQEYkxYTVprwVcZfCgu99hN5Yrdg8jrakHcRJI0XFulntEyIAZg0wO0Dws09IPbA6bLBXO8CYHA6XE4axPoSAKg2rduBx+hMnkbzSv+Q86wEbcxbY1Q+WE8gg0VhwsAvpsljUpOqMHtN1gkDi9v6iGYh5XWw89j1IUDigI5girxZCPe+y022nLXwyf7QKzftW6G97G+UKCDtUqczBj5M5vKstWSRG5N0hWNmtG2LSToPSD9NbwJ2/MTXX3+Nf/cn7pRSVlVRP/BE4OGJnUkEy1eVBgOz6RRdZ9dUKvoDCg9XkVLGzAB8BRfvxjwcQyGSDiB4DQRhmKrrJb+LfoaXixk+PrjEnb2F7sTMaUo47bBpSC5aIFE+/THj3DI/DT8wD5AuO1Rccheao483LzfMcwdCYsIkcsOlPOvcR+a4KlTt5xs7NTpjs1livZ4XcwUWr0GRL6ksOSyvEbu3lUN+YtNumgbUBNkwl8LZ5StaD678CKT+chSzL3dK39Vx/bNyFWHV9t+1Ys+fdB2m3QSTtsW07TDpZL3+pJugs7X/utZf1vvn9fptF2T9v67Xt70CXevX/cv+gLbRPQNpvb+GdXsEuk72DkzbgLYLMtfQks4lELq2weFewN1jxue3gU9vBhACnr/r8ORihot1B+YWAYSWG6NyGeVAaDW1X/pXtusAEq1Y/6X8IZQHJdIZ9u8kRAaMOMcRofeIOJNTDp/jEXz6LIXzo74amJF3MVdCQPw/zM2VIPDxMXIvMlrz/oQcQPIzzIf4SUxlXnPs9NOffCmnljLAqs0KMzPerZ3ewXK5xNnZeUb43IDw2ePH+O0//efsPwJ3b9/y7YWvvvoTfP2rX+Hxo8f45S9+gW+++Qcf3DEc+ezO7Vs4PNgfjApgGtmwLkaJMoAc4xKwcOnJ8i7rdVOwFEbXJQCFJlpkWSAw7nQLHHULPJ/fklUWLAWyRgRDVz34EQLpQWyGy8tLUxjXyIBoPhKXulmWp0KJwsKTEY+ZdCzP1uak9sdUHyUtdJMp3rx5g+1mJSODJh95bWmPgZQ1YLlaYL1eXRsWKW2Z7K3z8D6Qb0rbv3/3YPm2Z70QwcJkkDXcULoLbsetCNgskMs1/SZUSs3f+wcV6gWueEozJXNT9X2+dF7MPRYnkZl1RCAedIzbBxH7XY9V3+B81WLVN+i5ARjVcepmyiM9SE786vZTtiPvjuElf6PVKMLATDly5SQjphGyLIVko2FH4/ZejxZSGNKNlGluQJ8sO/klXNbIZeTAxYi6vrUuKacpHUOXZduFG3NzcguND8KRmLGGYMtE7Vf6YSRd41Oe+VoY+ulPvkyhE1GrYYDhJ9vs4wgg4OTkDba6G1kCWGEEPnv8GD/7+c/x85//ezweWU569/at7HB9qzK4lKB5mHQdHj64Lzl0HbN+rzuy94czKUBXlHjwYfOcglZaHY+akDyMxcc6ZD4Ma9yeLnG2meFqO0nDVLCtGLKhrwkAocF0LIMNZXU+wQgzso60ojwjy5Z6aIOP/TTZpBkBAKupqLD/K0SvGHBEN93DmzdvsFmvcHR0jMYddf0+YGa9Y0CG84arw/h3UsFJO4TNGO56kLZNObYEdI+JKBWUwhnNkYY15iqM2wkBx5j96Exwnjkrw679nRAIutLJx23mIQtDRGh1wl/yYoIiCxkjyrYJ2JsABxNgv2MQBcw3hMtNi00vo72GZd4ArEWHkb8Op0eqOTF/c4+0aYkr6begSWZEFQRgvVRmJMy1P7AeVKcmV8g+nTxfwHmSWHMt83KaV+RNmZaPOl2rHJ8n/xx7L7lJ6V+D6nSajswlColKDAQJkK2x4/sIPIz7x1IYGNSduXRHEDVYLlc4PcsX3BRM3HLond6/wI85qvg8EOHendvY35+lMD57lleqhEFdJi8IrIMb+HeVrwO8d4fEJEp8DWQTmwQ02OJ2u8AkRLxYHSDGJq9i0AaT38gIgUXLN/pM/opI30JXIjFBOsSIBiUI6SiaT4a3y5f10qfykQiDyRRv3r7FerXC4dFRusRlVx14YCcMzO2f74NhOGmHsaNUcvcrywQAzDHbvwWD1NEKUCZrQsA0cH33jJcck84jAp3M9fb/FFYEgJgBbULYnhIXUAsKiUOO0pY7qQHZ9Uuk2r9OBgciHEwD7hxEzFrGYkOYb1os+xZbFltA2efEcE5VWw7rXCAak9OgRVsKkWX6SoyUlX6NLuV8LHknuYIU9VyAIE2zr/3rsELjshOZWYWBCYAYReEtwutGNO0TJoRqQSDvVTnd08C7x/xKjGxzld6q1aZQfmujM4HSL+iX728zA/Onn/z4R+4+AwFxW3Zy5xG8ZJcIeHd+gfl8Ie6RrgMxq0utjTCHAjP0Ho3z8GAfd3RUYfn2URsuqPbocSmMmcFCTCag5Fe9i/+wMn3cQQ/E8ngPA5y6IxhHtMSt6RJv13uYbyeJIC1FIz5bs2/n9nszUZ4szjhYh7EOBzuxcRjG8pKIgkgmAGHtkts3kpgNmEQYtJMZTt+cYrla4vjGIdqmHZZ3B/AOYVC/vw/YmXWGICNZ34FE/qt5kFmXQcbULnXuyWn/5Jg8BZKdwZUA8OYdWSGkpiAnADJTd36jpqBh/P7ZpNGB+EMsPwAIXSuHwR1NCbcOGdwHnC5aXGwaMOv6f8c4hMxFAtR1UENd1zbqLXBGY1Alh8UcSYnhm0IzZOA9B9DIiCDFWQmD2q+MT1bgQfuK+cl37jgKXZLJbpRtyzFNyfLxKjrhxp4G3m1vgrKa1rKmUBnquDwtl35G57tMREPwYegnP/6RZGnQgU1bLvGZMQr+7ekp1uttGcaIK2GqTO3odENEjgsAptNJOsnU8itPlnAaVIg8a/912ZKb5K5k8y3jVJwTBmPxECCXaDqvsXBjYLQwoS1utgsQMV4tDxCjdFJWoVAujbMjqDNjz6ak+qmEq8Nk6ZOcNCNzi9CQd4OIWoDLO+sbkxBe001x+vYMy8UCxzeO0HWd8FjXFgY1cbK7WOd9ncjiqf13g3VYVkqwd2/6sbjye9H2TgDIclgAikvmHdPSVQsnb6sPJgx0EtqNHoIbIYh7XADU7rSfgMzUlE1BMhIAjmeMe4cEoohl32K1bXC1abBlObVUSqzfANJ/WJ4/FPyIUtyZjozGkv6tq3QyYxUax8io1QuD2s//4BUaNz8gXn5UncMILseXBY48zUwUOZuPLM9lvnMfk3d9moeCCRRy7xkyZXofi6uGjN/lHzWlHTxH8z/mTz/+8gvGSCcoE1MCcnibVO5jxOnpGbbbUiDAJTdMVjpV4fQvVV4JhK5rce/ObbRqhoDLc35WeNjkrnQS7yeOfNvusPzuqQc9jfmXZqRcZ0U6Dlc3MqU18RHHzRK3Jgt8Pz/CKsrknXU2tuVxLG4RCEbow04i4fVdFqzqXILZTEsiZkf4zKIdMpSpV2YXIrlDmsFouw6nb98VwiAgTzpnsI5UeoyNDOo6+hAYfmNuVRQs7qQ3lZBpRuz3UEYsTFeZsbV5EgbKrDHc9JUYtc4FyGjAhynvCCbH8D0u2LERQTacNSSZNGZOgdA2hC4E3D7s8eAw4GoNPL9ssdx2YjIylUfLIOX0bTFmEithWL8CLC1bulkXJNTtyTLhPEZ7Rh+cRsCyv8AUIR/2+p+FgypFWSD4XxpNO+0/mYdMKFjJRvKQ37VoHmffiJfiobWDVO+Gk7nZHIeHMZxATtvjMlgaXOGh7uHoIQkDVAxM3oeRZ78MkRnvzt5hvdkUeINMgBVQxg78DAiYTia4c+vmQBDU+R1j+Lr6etSPSDpFXR5zS4cr81bHQxDNTGB8tdGHQgSjC1vcaefYxBZvVntKsMqmnTZjRCzzB3l1RKn5yES0EbfvXGl0YATstSDD2QqjBLksQsCMpulwdvYO8/kCx8dHmEy6qswWg6Xl4tCRQT3M390Brofhd9IR6oUE8O2XtGzRmdNOXWO4IeR5AmXAtZAobf8mDEz7H7lDwD2Lb8aEgYaVOeSQDvALAG4dEG7vRYACNn3AfNviciPLP0RNkREmeZovnjTCKN4PDC4+k1rWtgOEzkaEQWpjWyFU48Gi2Xq7vfv5sOM/pfnBfILNRbhRNPTQRxNCqb/od9YfRtLVIlZ513dBJ1z9LohyuUkSOuZdh1f4ofgSfL656MsGhTBIyAFzxODjYRjC+fkF5otFgRdQ7WwQS4p8iFc4PNjHrZs3ktvSHX9mwrdnYMh6ckvfd4yg+yk8zn1P+q0p/OI1nGzOowtOlV7Xj4HHjzWiaQh3mkvstRs8W9zSCziEZIRolTDTCEGSTTeVVQLBwvvhdnRrow3HbGe4q5ukUyqmaCVmAgcVBqcqDG7sEga5nLUwiHoMhc+L9//9QdJlZlUIMlDFeE2rR4HXtk2bxByjtiMiij0gag6qVhORTiALXuMtNo3ZpG9+irARExQkW0AQuusC47NbDe4dEl5fAM8vG2zN/q8Cy8ootFoUXfxctUq43TDWBnm6paSX5P+BwsDjxtz1D2Zmqeg507tkxisX9pOwnEYKcnuaav+sClUSDNa3cn+xeA0knHsfqQP/LPGlVp7m50bC78IZXOdnMAwTi/Gx+dOXP/p8MIFsUONrt4HHr1YrXF5dlctOHTPIA1V1J2fGE4CubXF8fIj92cwHEn91D59Df2P2pr2nvJKYfrwwSE+NLK84kn+U0tglENj5aZlVwxwHC5f9GVEYLQH7tMLN9gpX/QTv1vvqJ0Qo67Aha6atY9pdBW6EEItldFUHkQSzwABU4BghS8cf2jkFIgihbXF+doGrqysc3zjEZDKpQtm3Vk4pq6Qhw/Vdcwb+Hb7tKqjDKRbkSJ4KZo5k3ydlwqQrcnKYvArI3DYaSEyfdKMe/M7faiTQ2KhB6WTMNJTmFGTVj+EjgFkL3N4DZhOgpYCeAt6tGizWAUxZzAl9mzlTsHV1/RAhMAZ1PTNnYWBug149jNbG3j1uzD38qXIywOefaf6mCPTMgDcVqVCQJaO6qkhZVWQZcaewlUBg9435C274LHCALAm1dzcS8OE9SBFKPwlruLL9dsUzBrvC0pc/+pyhGsnOQCOEU+Nq92K5xHKxHDUd1bERMuVOJx0O9vdwsLcnfj7emmkPnhasxAfH9FN8KgzqEQNBmDfrTuKx+HKny7hGHOC0mYlBJERT142AMAOZ8PFWbCU6kgO8mCPut+8wbdd4NpdRAqOa5PI7IFUgANAL6E0gjK+6YGQbLvPQ1lsKg9K0FEl2+Z6/u8R8foXDowNMp3LtZQnl91Juhg3f5R6DHO+/BhAxGpY2CWoCCjoXQMqY5WcauRpWKvu+uHUvSSO2dzv6IQQ51TMpHDWjL0YAZRgiWQIaSCJvICu4AhEiE27uMX58p0EbIp6+I7zbdOi5k7yaCcsKq0tAzR5GUgFaDxZmt0oCR8cfUv8+zDhji+hZDsEzU6b39zSY6K5y+1Fs/gkd7wozGBEnGo9pRADWi6F83Hovstxc4CaiOQuHnA7ye1Wm0acqTdDm0fGJRFLUWYYSx/JFkro2Ohlq9rvA/HO/GwIzZ2FgnSPGcrLU4PfF9b3cc7vebLDd9sKgoi5f01UaXdNgOplgNp3IapQihirOigkPn2V4UoZPdViKyQZcfw/FZ/OQEyIpzHB0gEoTHUIvsxgjfnUjCQnIG3PEYbPAcTvH+XYPl5uZ7DOACIK0SSYRtx5mx3mirB46SyexjuOECZcCweyZ4iflkve8/HR+dYWr+Ryz2QyTTs1EVb0amNviZ3cngwfvruPwULcBQRYFWJsNf87PXUtKNfOuRgIWRk70LBm/33VNbqmo3ycgYQWnWwPQECmtAbOOcbRH2O8YkzZg1Td4twhYxAYiKoTJM0kZCXJSqhBpZvRU0anxENlFnMGH82AnzWaExO/4F5gyU5QguS2lBzB61oWOjmn6cO9zR2Xa2V8WRPjwXhhYeKHnMs7IURg968iAgd5r/Ek4lN8xVNgV+RuaVwHtrwknGE6sW094KMRADr/LXeIkbY+n1E+HbTkWVw11GPrRF58xXOcJIaTVHbsIBiN+tXsMZ+563f6AWTu//I1RtSf20k+ewqQ9zvYcFOFUGJh7LK4xYSDflqsvzA82Ctnh9yFQEJfhlIgCtvhocg6iiO/nx2BuNHwvQgE9KMpmHSPYGPPQOePUhMRqkmKI5oQoWpKlqR3CJpaNdiwepoAIoNcVQYRsivB2UAzaSKDOj8d7SG3heJK1K3RDlbVR/UvfF6MBURBsBAACmqAM1yaDQ0BQO71n/CIkyhGACISyfHkEkPtVE2TER0pDDQh3D4FPjoFNz3g9b3C1bbFhES4NkWiEBD0VQFZwebo08O/eXTN3gsT3Q6FuE+9MNKsCp3cBrI3LcDWDHeIML7RRKStjPwhTF1rO8fVJy+/TfoZSMXLHWlcmIVWXgBTfsAwSd64MwwEapxtND8MwAC7m0QSkzB7qOHbBWLgxXA3MnIUBrIMpEf8+AuF9uOwlSSY8+xU55TuK7xVfuev4h3jTrfJEne0xsLTGviFknYscc5H+lCvYlzl/N/QbA9oxdBNiLN1QTeC4nWO/WePdZg/LTSskxRE9GKRajqwycoQdWTbfKM5GBpHlpMjcgfQpZJpXVQCFMBANSQq67SP62Lt2E4YzVi4Plrd6aWkdJtUpAyDSc/UzQ4eaV8Sv/kkd2yjQfn69frL9p1VBOodgS0N1HqDcJ2C7hfW7QGjbFlF34lrcshw053FvBuy3wMGEMOsC5uuA0xWw6WWzHkEmpglWjUFpLS/CGIDWD6CTu6RdbCT4++gRGoeBaLSZ/ky2GLOSJmM1NyrdaDuOPev363DykzRqvE0kF3Z+o2MbDRff2Ei4HCHLdyJkfXhUZiLDWV58uWozWH6XMZz1nzqMCALnKvx243AN3sOHhDHgWhgIyHC2aZrB3oExQhrDYQTv3R86Mii/UT/Daaf0/tmrDCtPQpPC5ZHBeNgcTvhO7ZfzX/sBkv9aoKEKMwaJyPRX48VP3ltscLe7Qs+EV6t92IYeVgIWwpaziViX1NkIIe1P0GWnteBgpyVF1nmDaoiegdD3UTQwylon7RByBubntTSPBxzzt/ZIoz5Nyk3wWtXKe0hCgBzDT4xcwwizNqFgAiAz+WJE4ExDgnM0koSDnpzKUZkygYjRBuDhDcLtWcT5OshBcLHBNkKphZLGLqV1q+KcCODEjHN5DQ+rLz/95IDtezTpePX3Q5BlkNw7KaC0aWcX2UYyT787nt6sY0//K3HkNk/mMELXuvw0af3ZLMoMyVMK639yACR04QKgy0tjNo0WaSUlyMXt3L4sfnSQwrhb1Imjzh0wcO1oYdxtsAtv8D5/g7Fw9MXnjweriTyB12fM12F34TCCz+5yyVswok8dIIOPw/LlEPkb7XwWbvgUYZBHBtm2XIct3keFgUZRZMXl04cd8X8fCCGWbg/MpqVF3GivcNCs8Hp1iNW2ddoPROt3xCsCQeLqo59bMC0qFmuvoUQelQPUGpA8RRjEGNMBdx8CPo4yPgGrd6tLaV+p9AB5kiKlHZWGkoYvSzMlDlFwxF5fCobkDiYMMu1TJTgEl/OThEPQNEjS6bqASROx30bc3CdM2wZv54zTVQvmRvKuI4gkAIzRV3VYCwMzbVpNkeKl/NLmBanpO+vvBwkDlp4pF8VYG5mfJMgW8YAu9KlLnmu8/5U4AGCZkzJmrysgWBk/s5mE9GfKj9tUCTUR+TRsNGx0LhPLUoYUr6Zj8ab0tew+vuwnIwuDVCYVBsyMwFEPebQySgh8gGDYhfPA1xzJMoYbA/ri88eDkMa4TNupBYLBGIMbw6HCyzvrTwjca9L2Zt/U3yZ38geg2lLh78Lb6MOEAREN5g18+PQ+Kgzsmauu9jPwAqcGw+9qSCMkg8E7CUF3tMGdZo51bPB2LauwhMCNycvPtHClbREOToOSTieakmlF1hF61AIBYN2Z3ffa8UaK6cu4C0zTUxdQ7Ry36rO2kZ+EIsp1TMa8nQY/emx0gJvcBUKQoyZ8uGL0MPDTSWI1GxnB7nWMB4cRe9MGq77D1Qa42gRsetP8/RJkLR8yQw9wx4Wrb2Gy2UFHQK6jog2uCb8Lcs40MtL2MX/XjIIu29dorcZ5vzqMdxtt1mGLnxvt+rA28hXaH/lu9BfTyaR5pCHxs9K8hZW0XN5c2Swf+V2qj1nnedwKwDpsKSAUUyMUduEFzG/IS2oY86fPP3s0OjLw703T/KsLBPhz4K1T+HTtqbjRZ3ovwybtX3FEeRL5OmHg4yZ5+SBhUOS7KoPF5fHXQUFQ9ttBcIBf2dHjo/YdmIC3y0NsOFzTKZThp3mDLCjsMLvIIg7sPVYaks9LjIxtn4XBtWVlUV2LECzzN+rQ9swjOIITAr5NFR9Um/YrfaB4+zYx8iDCwAsH0/qR3G7kQOTMRjq/QCRLV1tgEoDDKeHeodj2X10FXGw6MMkF9Syz+SI0WFb/+Poh4bZAIFDkfHy4iAh4hr6zXlUeMZzJaFfY90BmJ+qu6S21fU7MwtR06vH1OyvD9cyWlZGjoLUcvsYl5p2ehnfaffUrvlFFyJuDomaCK7zPY8KNlBnI/XYX8/fv4jbeqqpC5b8LNwSrn+vbfldc9Plnjxg7iMdw7xshYMf3GMGb07Bkv4rok7/idz2lAw/DluH0dEfHVADZgbxLGCScmStG/NLCsTpP1qwj5fghIARZukffAe1YEXthjRvdAotthzM9zsIuCoESqA2xY4zJJGRL82Jv6boO5IQDnICxfDBDaYMkJ1pWlipIIKt/JExCW93lYA6kba3+SevRJnzTiMAmdvWMIFi4wsYvSzrJJoWJnOavPzeJLCMMHQFAl4OCQIFxPGPc3ge6wFhuWyxig/m2QR9tzY+ACJnGVOhELwYWTqol10CqkUw8WrNDIF1hRagmfn8PevMwxjBYCA1wZ+bXT3sv6SP71Qzd6Ed+5Tf+J3SXGXntb/FEzv4+Li8EWGmalcaLOKUnDeIGdFTs8mmjZEsnpadtYt4uWApXuhm4RpvfhTeK2Ol97bdDSMIgIUaIKHeoBn2fJ5XHwuID8PlW3dIOWnQIxyRqfHJXTDqjPU7e66OGiZC0tOsY/q6RgbwP92QMwo6U4UOBOS/rzLghARbvBPSxx4PuCqAeJ8sDbLlJO5ZtGz6Dwb1MqJmpCOyEgZuU8x3Hdwhm6TjRTU5TYk4B/J6DAOt3D2Y2tLomZYgB5W5fIj9CKJk/VJERt9SNKTa1H3GeYwhNyPMOgRAawjRE3D4E7h0w5ivGy6sOi34CBBkRZBEgQBBzEgCEpkm3zAmUc2YDULrjNGEuKdTLRDVoqvcSnxGeTnbVt4eagXgn65rhMdq77lm/51+Oz4ertf7hd57BI4Vlo9cdP6PlOn5P43Ve5L0sh31j/ilcEgSGg3KAYb1oyFFN3qdTg/jZD8ZhKv8PBwtPnz1+ZIpcAWNEY3fP+k1CY+EMxvw8zl69PlX6DzVr/0xhVXus8f5p8xKFf1ATxK74R/xSmgV+vC6Sv2NuY+Cb1Ddj8V418JCw8rsaeHAYljhq1rjYTnCxmQhDcUQtncZvUNPRgU4iZw1Ltu8X38GEgow06klC02bhRmSCLuuvqBVThjWMNx/ar2D4hRCoJoDJrRSSU96EsQdCgDMZkQiXYoRAwKRh3NgHjqYMgNDHgLkeBd1LDKm9gp48K6nksqViUUBogi59tBEUDVbVSdj8HcOClri6zjAiDKBx1XTzQ8E+FzKQRK6jvbFn/W77BoQR7gpT/lBP8hY/M23W+PIXnVl04OcEwTAfuYzM5cjBwL9LKobTJdgOfBo1jOEwije3o41BmAy8Y17SA332yFYTxYrKMpSELeupP2TZqUHtZ255yoXTnlnW6Ul/8N8o3sLZo2b2KR7ZaToQBpTnDTIOyoZCcWTFMM7x9zKeof84RDMsXQsykTdOgJ7AhBRl4irwFh9Pr7Bh4PXyAD23bs117hhpmGzCQEcHbP7qhmlgTquSjlp2DlRt5DV9efF8blhPVuf1zwsAqHYvTz0AzuFD0A1lifmXQsDcCFBNPmJ/wvjkBnA8ZZxctXg9b7BBiwAzRZVQt+t17jxC4KIdPZA70sS0TMPvgmu8fm/wTSntSrrMdJzmPuSZyCUx1TzK9CMACVuOCGrNHTbnRTYiyFe8ZiVG42GgV1Np/bP5MIz45Tiqcuwon70zQW8XBEzgef/hO4sI4SEP8OEFtBKBxDOGYUp4n78BffYoryYiQl5PXEFB1NrRfKVrqPw2QqA+DnmXb3UEn/xJAqSwNSPxzxSnsy3XYaAb+oUJ1N/KvIEGg7AF9dM5alLOVZuzhuUZx9Xvvz+wEtcYQZXEqW8iFrjHcbvEtNnicjPB1XaCWJ3SCO040qbSAbwGld6LEUNpR5XOWrYfOWGeq0DeB/VjYUdGBGTCvFrvT8bkbT6AKC8hBTut340o9FKAQMC0A46nwP5EVnX21OJyRbjaNHKfsDMTJjrxeXaw282pzEHPAPMrdGogXUX0g+YAXGCpS6R0d4Ojnfol0VDGed5l9OXbXsL4pwgPQRktufBuVGCMvsAZvRne0avMe+Wl0ez3yVS/pPBUIwtP//azvJc/KXaZj1wmg3RfcqowrSLiwhTkv8lxeJyELYIJpngfmJdS+j8ErMzA/wPuxM+lfpjYrgAAAABJRU5ErkJggg==;" vertex="1" parent="1">
          <mxGeometry x="-647" y="-990" width="387" height="227" as="geometry" />
        </mxCell>
      </root>
    </mxGraphModel>
  </diagram>
</mxfile>
